<?xml version="1.0" encoding="UTF-8" standalone="no"?>
<!DOCTYPE svg PUBLIC "-//W3C//DTD SVG 1.1//EN" "http://www.w3.org/Graphics/SVG/1.1/DTD/svg11.dtd">
<svg xmlns="http://www.w3.org/2000/svg" version="1.1" viewBox="366 99 555 563">
<g stroke-width="2.00" fill="none" stroke-linecap="butt">
<path stroke="#265821" vector-effect="non-scaling-stroke" d="
  M 699.79 157.80
  L 646.97 246.01"
/>
<path stroke="#506b11" vector-effect="non-scaling-stroke" d="
  M 646.97 246.01
  L 631.18 272.81"
/>
<path stroke="#747609" vector-effect="non-scaling-stroke" d="
  M 631.18 272.81
  Q 630.58 273.49 630.20 274.44"
/>
<path stroke="#7c630c" vector-effect="non-scaling-stroke" d="
  M 630.20 274.44
  L 588.52 344.34"
/>
<path stroke="#7c490d" vector-effect="non-scaling-stroke" d="
  M 588.52 344.34
  L 561.69 389.55"
/>
<path stroke="#79310d" vector-effect="non-scaling-stroke" d="
  M 561.69 389.55
  L 524.63 451.62"
/>
<path stroke="#6c050b" vector-effect="non-scaling-stroke" d="
  M 524.63 451.62
  L 481.07 524.46
  A 0.96 0.95 15.1 0 0 481.90 525.90
  Q 498.74 525.73 509.27 525.92
  Q 523.03 526.17 530.05 524.13
  Q 540.66 521.04 547.89 513.59
  C 551.75 509.60 555.15 503.70 558.12 498.64
  Q 569.16 479.77 580.49 461.05"
/>
<path stroke="#79310d" vector-effect="non-scaling-stroke" d="
  M 580.49 461.05
  L 611.80 408.76"
/>
<path stroke="#7c490d" vector-effect="non-scaling-stroke" d="
  M 611.80 408.76
  L 652.56 340.79"
/>
<path stroke="#7c630c" vector-effect="non-scaling-stroke" d="
  M 652.56 340.79
  L 660.30 327.75"
/>
<path stroke="#747609" vector-effect="non-scaling-stroke" d="
  M 660.30 327.75
  L 686.79 283.88"
/>
<path stroke="#506b11" vector-effect="non-scaling-stroke" d="
  M 686.79 283.88
  L 705.72 252.55"
/>
<path stroke="#265821" vector-effect="non-scaling-stroke" d="
  M 705.72 252.55
  L 751.58 177.00"
/>
<path stroke="#104135" vector-effect="non-scaling-stroke" d="
  M 751.58 177.00
  L 797.52 100.68
  A 0.58 0.58 0.0 0 0 797.04 99.80
  Q 783.14 99.48 762.99 99.56
  C 747.26 99.63 732.93 103.23 724.14 117.39
  Q 714.82 132.42 699.79 157.80"
/>
<path stroke="#34964a" vector-effect="non-scaling-stroke" d="
  M 751.58 177.00
  C 734.35 169.30 715.53 163.76 699.79 157.80"
/>
<path stroke="#73c126" vector-effect="non-scaling-stroke" d="
  M 705.72 252.55
  Q 680.47 240.63 652.30 241.24
  A 1.10 1.09 21.7 0 0 651.55 241.56
  L 646.97 246.01"
/>
<path stroke="#c1df0e" vector-effect="non-scaling-stroke" d="
  M 686.79 283.88
  C 670.89 269.80 651.22 269.95 631.18 272.81"
/>
<path stroke="#eed608" vector-effect="non-scaling-stroke" d="
  M 660.30 327.75
  Q 633.90 324.03 609.37 313.82
  A 0.52 0.52 0.0 0 1 609.12 313.08
  C 609.96 311.61 610.93 311.11 611.89 309.10
  Q 618.04 296.23 623.69 288.15
  Q 624.25 287.36 625.68 285.72
  A 7.15 7.07 78.4 0 0 626.71 284.14
  Q 627.81 281.81 630.77 276.07
  Q 631.32 275.02 630.20 274.44"
/>
<path stroke="#f6a90c" vector-effect="non-scaling-stroke" d="
  M 652.56 340.79
  Q 650.08 342.30 649.17 343.78
  Q 647.03 347.28 643.87 351.75
  A 2.84 2.83 -64.7 0 1 640.80 352.85
  Q 617.96 346.53 596.07 337.20
  A 0.71 0.70 -60.6 0 0 595.23 337.44
  Q 592.49 341.24 589.83 345.13
  A 0.78 0.76 -34.9 0 1 588.43 344.90
  Q 588.39 344.70 588.52 344.34"
/>
<path stroke="#f3770d" vector-effect="non-scaling-stroke" d="
  M 611.80 408.76
  Q 613.27 403.31 616.01 398.30
  Q 616.74 396.96 616.62 395.53
  A 0.58 0.57 88.9 0 0 616.07 395.00
  Q 603.14 394.34 597.46 393.48
  Q 582.08 391.14 568.01 383.40
  A 0.45 0.44 28.2 0 0 567.39 383.58
  L 563.49 391.10
  A 0.52 0.51 37.0 0 1 562.66 391.21
  Q 562.02 390.53 561.69 389.55"
/>
<path stroke="#e3330c" vector-effect="non-scaling-stroke" d="
  M 580.49 461.05
  L 573.68 468.38
  A 0.74 0.74 0.0 0 1 572.89 468.58
  L 524.63 451.62"
/>
<path stroke="#808085" vector-effect="non-scaling-stroke" d="
  M 470.02 144.90
  Q 478.79 144.81 510.24 144.85
  C 517.31 144.87 525.73 145.77 531.79 149.47
  Q 538.95 153.84 544.49 160.52
  Q 573.82 195.87 602.74 231.53
  Q 606.64 236.34 621.35 254.56
  A 0.59 0.59 0.0 0 0 622.32 254.50
  L 647.88 212.28
  A 0.63 0.62 41.2 0 0 647.83 211.57
  Q 609.91 165.37 593.63 145.66
  Q 583.85 133.82 577.97 127.82
  Q 554.68 104.01 520.63 100.40
  Q 514.60 99.77 510.75 99.74
  Q 476.38 99.54 457.52 99.71
  Q 446.39 99.82 437.62 103.92
  C 426.51 109.11 419.68 120.40 418.97 132.51
  Q 418.71 136.86 418.71 143.25
  Q 418.70 370.58 418.68 524.91
  A 1.04 1.04 0.0 0 0 419.67 525.95
  C 432.96 526.59 446.36 526.44 457.00 519.25
  Q 464.63 514.09 467.28 504.81
  Q 469.26 497.85 469.27 486.00
  Q 469.45 173.11 469.25 145.68
  A 0.78 0.78 0.0 0 1 470.02 144.90"
/>
<path stroke="#808085" vector-effect="non-scaling-stroke" d="
  M 857.78 100.03
  C 847.05 99.39 836.22 99.67 826.24 102.24
  C 819.91 103.88 812.44 108.77 809.45 114.97
  Q 807.00 120.05 807.00 125.75
  Q 807.15 278.39 806.85 471.08
  Q 806.85 474.77 804.20 476.74
  Q 802.25 478.19 798.01 478.19
  Q 764.83 478.16 763.06 478.17
  C 748.51 478.21 735.25 476.09 724.20 467.42
  Q 715.47 460.58 707.61 450.91
  Q 677.02 413.33 650.82 381.51
  A 0.81 0.80 41.0 0 0 649.51 381.60
  L 622.25 426.63
  A 1.85 1.84 40.7 0 0 622.42 428.78
  Q 643.46 453.93 667.30 482.95
  C 679.11 497.33 690.96 508.21 707.99 515.84
  Q 718.26 520.44 720.20 520.94
  Q 734.97 524.78 745.23 525.93
  Q 753.14 526.83 770.81 526.84
  Q 784.98 526.84 799.24 526.72
  C 826.53 526.48 850.99 511.22 857.25 483.79
  Q 858.48 478.40 858.43 456.62
  Q 858.29 394.01 858.43 100.72
  A 0.69 0.69 0.0 0 0 857.78 100.03"
/>
<path stroke="#808085" vector-effect="non-scaling-stroke" d="
  M 591.1090 273.9761
  A 40.67 39.60 -0.4 0 0 550.1635 234.6610
  A 40.67 39.60 -0.4 0 0 509.7710 274.5439
  A 40.67 39.60 -0.4 0 0 550.7165 313.8590
  A 40.67 39.60 -0.4 0 0 591.1090 273.9761"
/>
<path stroke="#808085" vector-effect="non-scaling-stroke" d="
  M 687.0840 358.6882
  A 40.95 39.62 -179.2 0 0 727.4768 398.8761
  A 40.95 39.62 -179.2 0 0 768.9760 359.8318
  A 40.95 39.62 -179.2 0 0 728.5832 319.6439
  A 40.95 39.62 -179.2 0 0 687.0840 358.6882"
/>
<path stroke="#808085" vector-effect="non-scaling-stroke" d="
  M 588.75 640.29
  L 582.10 653.09
  A 0.67 0.66 -64.7 0 0 582.42 654.00
  C 595.27 659.76 610.45 662.45 623.91 662.69
  C 637.83 662.94 653.97 663.40 666.49 656.02
  Q 675.52 650.70 675.48 640.36
  Q 675.46 633.16 672.27 628.81
  C 667.72 622.60 657.64 618.71 649.75 617.47
  Q 634.60 615.08 623.53 613.91
  C 618.10 613.34 605.14 612.30 602.99 605.77
  A 1.51 1.49 44.7 0 1 602.98 604.83
  C 604.45 600.34 611.03 598.81 615.09 598.46
  Q 638.73 596.44 660.73 604.58
  A 0.84 0.84 0.0 0 0 661.77 604.18
  L 667.99 592.20
  A 0.51 0.51 0.0 0 0 667.73 591.49
  Q 661.94 589.07 649.19 586.82
  Q 635.63 584.43 628.51 584.17
  Q 613.58 583.64 598.47 588.25
  Q 592.74 590.00 587.66 594.45
  C 583.63 597.97 581.82 602.44 582.38 607.64
  C 584.02 622.83 603.83 626.73 615.76 628.01
  Q 631.40 629.69 641.70 631.57
  C 647.20 632.57 653.44 633.79 654.33 639.63
  C 655.54 647.54 643.24 647.91 638.24 648.17
  Q 629.55 648.63 617.24 647.34
  C 608.13 646.39 598.39 643.27 589.57 639.98
  A 0.66 0.66 0.0 0 0 588.75 640.29"
/>
<path stroke="#808085" vector-effect="non-scaling-stroke" d="
  M 436.80 623.94
  Q 413.09 606.52 389.10 589.66
  Q 384.31 586.29 378.76 586.31
  Q 369.49 586.33 366.84 586.29
  A 0.65 0.64 -89.6 0 0 366.19 586.94
  L 366.19 661.99
  A 0.46 0.45 -17.7 0 0 366.91 662.36
  Q 370.63 659.69 385.40 648.66
  C 390.78 644.64 396.93 639.97 398.08 633.11
  A 0.27 0.27 0.0 0 1 398.51 632.93
  Q 417.14 646.36 435.64 660.15
  Q 438.14 662.01 441.48 662.02
  Q 454.33 662.03 468.36 661.90
  A 0.81 0.81 0.0 0 0 469.16 661.09
  L 469.16 587.20
  A 0.75 0.75 0.0 0 0 468.41 586.45
  L 457.34 586.38
  A 2.23 2.22 29.4 0 0 456.19 586.70
  Q 455.51 587.05 453.77 589.02
  Q 447.81 595.71 442.08 602.59
  Q 439.00 606.30 438.38 608.93
  Q 436.77 615.81 437.46 623.57
  A 0.42 0.41 15.5 0 1 436.80 623.94"
/>
<path stroke="#808085" vector-effect="non-scaling-stroke" d="
  M 508.50 630.58
  A 0.62 0.62 0.0 0 1 509.12 629.96
  L 561.94 629.96
  A 0.62 0.62 0.0 0 0 562.56 629.34
  L 562.56 616.90
  A 0.62 0.62 0.0 0 0 561.94 616.28
  L 509.10 616.28
  A 0.62 0.62 0.0 0 1 508.48 615.66
  L 508.48 601.00
  A 0.62 0.62 0.0 0 1 509.10 600.38
  L 567.98 600.38
  A 0.62 0.62 0.0 0 0 568.60 599.76
  L 568.60 586.97
  A 0.62 0.62 0.0 0 0 567.98 586.35
  L 488.44 586.35
  A 0.62 0.62 0.0 0 0 487.82 586.97
  L 487.82 661.31
  A 0.62 0.62 0.0 0 0 488.44 661.93
  L 571.78 661.93
  A 0.62 0.62 0.0 0 0 572.40 661.31
  L 572.40 647.89
  A 0.62 0.62 0.0 0 0 571.78 647.27
  L 509.12 647.27
  A 0.62 0.62 0.0 0 1 508.50 646.65
  L 508.50 630.58"
/>
<path stroke="#808085" vector-effect="non-scaling-stroke" d="
  M 728.47 586.37
  A 0.46 0.46 0.0 0 0 728.08 586.59
  L 681.23 661.24
  A 0.46 0.46 0.0 0 0 681.62 661.94
  L 703.23 661.94
  A 0.46 0.46 0.0 0 0 703.62 661.72
  L 713.04 646.18
  A 0.46 0.46 0.0 0 1 713.43 645.96
  L 771.19 645.96
  A 0.46 0.46 0.0 0 1 771.57 646.16
  L 782.11 661.77
  A 0.46 0.46 0.0 0 0 782.49 661.97
  L 803.98 661.97
  A 0.46 0.46 0.0 0 0 804.37 661.25
  L 753.90 586.57
  A 0.46 0.46 0.0 0 0 753.52 586.37
  L 728.47 586.37"
/>
<path stroke="#808085" vector-effect="non-scaling-stroke" d="
  M 837.38 661.78
  Q 838.60 662.03 840.76 662.03
  Q 884.36 662.01 888.25 662.00
  C 901.39 661.99 920.39 659.29 920.99 642.88
  C 921.41 631.37 912.19 626.18 902.46 623.91
  A 0.49 0.49 0.0 0 1 902.43 622.97
  C 906.76 621.66 912.09 619.22 913.78 614.86
  C 915.95 609.26 916.03 603.10 912.94 597.91
  C 909.59 592.27 899.47 588.34 893.48 587.59
  C 888.77 586.99 882.85 586.35 876.83 586.33
  Q 832.84 586.20 813.60 586.30
  A 0.62 0.62 0.0 0 0 812.99 586.92
  L 812.99 661.82
  A 0.71 0.71 0.0 0 0 814.00 662.47
  Q 814.64 662.17 815.97 661.21
  Q 831.76 649.75 836.37 646.12
  C 842.46 641.33 846.75 637.04 848.87 630.24
  A 0.45 0.44 -61.3 0 1 849.58 630.03
  L 858.69 637.44
  A 1.03 1.03 0.0 0 1 858.77 638.97
  L 837.05 660.69
  A 0.65 0.64 -62.0 0 0 837.38 661.78"
/>
<path stroke="#808085" vector-effect="non-scaling-stroke" d="
  M 456.78 606.21
  C 451.60 612.29 448.54 617.16 448.63 624.75
  Q 448.71 631.40 448.55 645.29
  A 0.51 0.50 -71.9 0 1 447.75 645.70
  L 380.32 596.84
  A 0.66 0.65 17.9 0 0 379.28 597.37
  L 379.28 637.89
  A 1.09 1.09 0.0 0 0 381.21 638.58
  L 386.77 631.75
  A 8.00 8.00 0.0 0 0 388.55 626.72
  L 388.55 614.04
  A 0.30 0.29 18.3 0 1 389.02 613.81
  L 441.43 651.78
  A 4.34 4.29 62.7 0 0 443.97 652.61
  L 457.14 652.61
  A 0.41 0.40 90.0 0 0 457.54 652.20
  L 457.54 606.50
  A 0.44 0.43 65.4 0 0 456.78 606.21"
/>
<path stroke="#808085" vector-effect="non-scaling-stroke" d="
  M 741.36 600.36
  A 0.35 0.35 0.0 0 0 740.77 600.37
  L 721.07 631.76
  A 0.35 0.35 0.0 0 0 721.36 632.30
  L 762.28 632.30
  A 0.35 0.35 0.0 0 0 762.57 631.75
  L 741.36 600.36"
/>
<path stroke="#808085" vector-effect="non-scaling-stroke" d="
  M 837.67 610.71
  A 0.39 0.39 0.0 0 1 838.30 610.40
  L 873.90 636.99
  A 0.68 0.68 0.0 0 1 873.96 638.04
  L 860.42 650.50
  A 0.68 0.68 0.0 0 0 860.86 651.68
  Q 870.16 652.00 881.24 651.75
  Q 887.82 651.60 893.22 650.45
  C 898.36 649.35 904.73 646.25 902.39 640.11
  C 900.54 635.24 891.46 633.15 886.11 631.63
  C 881.87 630.42 876.76 627.97 871.91 627.18
  A 0.36 0.35 -53.0 0 1 871.82 626.51
  Q 878.57 623.31 892.21 617.21
  Q 896.90 615.11 898.26 612.87
  C 906.43 599.34 882.96 597.19 875.75 597.09
  Q 865.76 596.94 857.06 596.98
  A 0.42 0.42 0.0 0 0 856.80 597.73
  L 874.66 612.27
  A 0.50 0.49 43.2 0 1 874.69 613.01
  L 867.22 619.88
  A 0.82 0.80 -46.7 0 1 866.16 619.92
  L 838.95 597.77
  A 1.63 1.58 -24.7 0 0 837.93 597.41
  L 827.51 597.41
  A 0.44 0.43 -0.0 0 0 827.07 597.84
  L 827.07 638.80
  A 0.64 0.64 0.0 0 0 828.09 639.31
  Q 834.41 634.64 837.33 626.94
  A 5.35 5.23 56.0 0 0 837.67 625.07
  L 837.67 610.71"
/>
</g>
<path fill="#02020c" d="
  M 1280.00 0.00
  L 1280.00 853.00
  L 0.00 853.00
  L 0.00 0.00
  L 1280.00 0.00
  Z
  M 699.79 157.80
  L 646.97 246.01
  L 631.18 272.81
  Q 630.58 273.49 630.20 274.44
  L 588.52 344.34
  L 561.69 389.55
  L 524.63 451.62
  L 481.07 524.46
  A 0.96 0.95 15.1 0 0 481.90 525.90
  Q 498.74 525.73 509.27 525.92
  Q 523.03 526.17 530.05 524.13
  Q 540.66 521.04 547.89 513.59
  C 551.75 509.60 555.15 503.70 558.12 498.64
  Q 569.16 479.77 580.49 461.05
  L 611.80 408.76
  L 652.56 340.79
  L 660.30 327.75
  L 686.79 283.88
  L 705.72 252.55
  L 751.58 177.00
  L 797.52 100.68
  A 0.58 0.58 0.0 0 0 797.04 99.80
  Q 783.14 99.48 762.99 99.56
  C 747.26 99.63 732.93 103.23 724.14 117.39
  Q 714.82 132.42 699.79 157.80
  Z
  M 470.02 144.90
  Q 478.79 144.81 510.24 144.85
  C 517.31 144.87 525.73 145.77 531.79 149.47
  Q 538.95 153.84 544.49 160.52
  Q 573.82 195.87 602.74 231.53
  Q 606.64 236.34 621.35 254.56
  A 0.59 0.59 0.0 0 0 622.32 254.50
  L 647.88 212.28
  A 0.63 0.62 41.2 0 0 647.83 211.57
  Q 609.91 165.37 593.63 145.66
  Q 583.85 133.82 577.97 127.82
  Q 554.68 104.01 520.63 100.40
  Q 514.60 99.77 510.75 99.74
  Q 476.38 99.54 457.52 99.71
  Q 446.39 99.82 437.62 103.92
  C 426.51 109.11 419.68 120.40 418.97 132.51
  Q 418.71 136.86 418.71 143.25
  Q 418.70 370.58 418.68 524.91
  A 1.04 1.04 0.0 0 0 419.67 525.95
  C 432.96 526.59 446.36 526.44 457.00 519.25
  Q 464.63 514.09 467.28 504.81
  Q 469.26 497.85 469.27 486.00
  Q 469.45 173.11 469.25 145.68
  A 0.78 0.78 0.0 0 1 470.02 144.90
  Z
  M 857.78 100.03
  C 847.05 99.39 836.22 99.67 826.24 102.24
  C 819.91 103.88 812.44 108.77 809.45 114.97
  Q 807.00 120.05 807.00 125.75
  Q 807.15 278.39 806.85 471.08
  Q 806.85 474.77 804.20 476.74
  Q 802.25 478.19 798.01 478.19
  Q 764.83 478.16 763.06 478.17
  C 748.51 478.21 735.25 476.09 724.20 467.42
  Q 715.47 460.58 707.61 450.91
  Q 677.02 413.33 650.82 381.51
  A 0.81 0.80 41.0 0 0 649.51 381.60
  L 622.25 426.63
  A 1.85 1.84 40.7 0 0 622.42 428.78
  Q 643.46 453.93 667.30 482.95
  C 679.11 497.33 690.96 508.21 707.99 515.84
  Q 718.26 520.44 720.20 520.94
  Q 734.97 524.78 745.23 525.93
  Q 753.14 526.83 770.81 526.84
  Q 784.98 526.84 799.24 526.72
  C 826.53 526.48 850.99 511.22 857.25 483.79
  Q 858.48 478.40 858.43 456.62
  Q 858.29 394.01 858.43 100.72
  A 0.69 0.69 0.0 0 0 857.78 100.03
  Z
  M 591.1090 273.9761
  A 40.67 39.60 -0.4 0 0 550.1635 234.6610
  A 40.67 39.60 -0.4 0 0 509.7710 274.5439
  A 40.67 39.60 -0.4 0 0 550.7165 313.8590
  A 40.67 39.60 -0.4 0 0 591.1090 273.9761
  Z
  M 687.0840 358.6882
  A 40.95 39.62 -179.2 0 0 727.4768 398.8761
  A 40.95 39.62 -179.2 0 0 768.9760 359.8318
  A 40.95 39.62 -179.2 0 0 728.5832 319.6439
  A 40.95 39.62 -179.2 0 0 687.0840 358.6882
  Z
  M 588.75 640.29
  L 582.10 653.09
  A 0.67 0.66 -64.7 0 0 582.42 654.00
  C 595.27 659.76 610.45 662.45 623.91 662.69
  C 637.83 662.94 653.97 663.40 666.49 656.02
  Q 675.52 650.70 675.48 640.36
  Q 675.46 633.16 672.27 628.81
  C 667.72 622.60 657.64 618.71 649.75 617.47
  Q 634.60 615.08 623.53 613.91
  C 618.10 613.34 605.14 612.30 602.99 605.77
  A 1.51 1.49 44.7 0 1 602.98 604.83
  C 604.45 600.34 611.03 598.81 615.09 598.46
  Q 638.73 596.44 660.73 604.58
  A 0.84 0.84 0.0 0 0 661.77 604.18
  L 667.99 592.20
  A 0.51 0.51 0.0 0 0 667.73 591.49
  Q 661.94 589.07 649.19 586.82
  Q 635.63 584.43 628.51 584.17
  Q 613.58 583.64 598.47 588.25
  Q 592.74 590.00 587.66 594.45
  C 583.63 597.97 581.82 602.44 582.38 607.64
  C 584.02 622.83 603.83 626.73 615.76 628.01
  Q 631.40 629.69 641.70 631.57
  C 647.20 632.57 653.44 633.79 654.33 639.63
  C 655.54 647.54 643.24 647.91 638.24 648.17
  Q 629.55 648.63 617.24 647.34
  C 608.13 646.39 598.39 643.27 589.57 639.98
  A 0.66 0.66 0.0 0 0 588.75 640.29
  Z
  M 436.80 623.94
  Q 413.09 606.52 389.10 589.66
  Q 384.31 586.29 378.76 586.31
  Q 369.49 586.33 366.84 586.29
  A 0.65 0.64 -89.6 0 0 366.19 586.94
  L 366.19 661.99
  A 0.46 0.45 -17.7 0 0 366.91 662.36
  Q 370.63 659.69 385.40 648.66
  C 390.78 644.64 396.93 639.97 398.08 633.11
  A 0.27 0.27 0.0 0 1 398.51 632.93
  Q 417.14 646.36 435.64 660.15
  Q 438.14 662.01 441.48 662.02
  Q 454.33 662.03 468.36 661.90
  A 0.81 0.81 0.0 0 0 469.16 661.09
  L 469.16 587.20
  A 0.75 0.75 0.0 0 0 468.41 586.45
  L 457.34 586.38
  A 2.23 2.22 29.4 0 0 456.19 586.70
  Q 455.51 587.05 453.77 589.02
  Q 447.81 595.71 442.08 602.59
  Q 439.00 606.30 438.38 608.93
  Q 436.77 615.81 437.46 623.57
  A 0.42 0.41 15.5 0 1 436.80 623.94
  Z
  M 508.50 630.58
  A 0.62 0.62 0.0 0 1 509.12 629.96
  L 561.94 629.96
  A 0.62 0.62 0.0 0 0 562.56 629.34
  L 562.56 616.90
  A 0.62 0.62 0.0 0 0 561.94 616.28
  L 509.10 616.28
  A 0.62 0.62 0.0 0 1 508.48 615.66
  L 508.48 601.00
  A 0.62 0.62 0.0 0 1 509.10 600.38
  L 567.98 600.38
  A 0.62 0.62 0.0 0 0 568.60 599.76
  L 568.60 586.97
  A 0.62 0.62 0.0 0 0 567.98 586.35
  L 488.44 586.35
  A 0.62 0.62 0.0 0 0 487.82 586.97
  L 487.82 661.31
  A 0.62 0.62 0.0 0 0 488.44 661.93
  L 571.78 661.93
  A 0.62 0.62 0.0 0 0 572.40 661.31
  L 572.40 647.89
  A 0.62 0.62 0.0 0 0 571.78 647.27
  L 509.12 647.27
  A 0.62 0.62 0.0 0 1 508.50 646.65
  L 508.50 630.58
  Z
  M 728.47 586.37
  A 0.46 0.46 0.0 0 0 728.08 586.59
  L 681.23 661.24
  A 0.46 0.46 0.0 0 0 681.62 661.94
  L 703.23 661.94
  A 0.46 0.46 0.0 0 0 703.62 661.72
  L 713.04 646.18
  A 0.46 0.46 0.0 0 1 713.43 645.96
  L 771.19 645.96
  A 0.46 0.46 0.0 0 1 771.57 646.16
  L 782.11 661.77
  A 0.46 0.46 0.0 0 0 782.49 661.97
  L 803.98 661.97
  A 0.46 0.46 0.0 0 0 804.37 661.25
  L 753.90 586.57
  A 0.46 0.46 0.0 0 0 753.52 586.37
  L 728.47 586.37
  Z
  M 837.38 661.78
  Q 838.60 662.03 840.76 662.03
  Q 884.36 662.01 888.25 662.00
  C 901.39 661.99 920.39 659.29 920.99 642.88
  C 921.41 631.37 912.19 626.18 902.46 623.91
  A 0.49 0.49 0.0 0 1 902.43 622.97
  C 906.76 621.66 912.09 619.22 913.78 614.86
  C 915.95 609.26 916.03 603.10 912.94 597.91
  C 909.59 592.27 899.47 588.34 893.48 587.59
  C 888.77 586.99 882.85 586.35 876.83 586.33
  Q 832.84 586.20 813.60 586.30
  A 0.62 0.62 0.0 0 0 812.99 586.92
  L 812.99 661.82
  A 0.71 0.71 0.0 0 0 814.00 662.47
  Q 814.64 662.17 815.97 661.21
  Q 831.76 649.75 836.37 646.12
  C 842.46 641.33 846.75 637.04 848.87 630.24
  A 0.45 0.44 -61.3 0 1 849.58 630.03
  L 858.69 637.44
  A 1.03 1.03 0.0 0 1 858.77 638.97
  L 837.05 660.69
  A 0.65 0.64 -62.0 0 0 837.38 661.78
  Z"
/>
<path fill="#1e7f5e" d="
  M 751.58 177.00
  C 734.35 169.30 715.53 163.76 699.79 157.80
  Q 714.82 132.42 724.14 117.39
  C 732.93 103.23 747.26 99.63 762.99 99.56
  Q 783.14 99.48 797.04 99.80
  A 0.58 0.58 0.0 0 1 797.52 100.68
  L 751.58 177.00
  Z"
/>
<path fill="#fefefe" d="
  M 470.02 144.90
  A 0.78 0.78 0.0 0 0 469.25 145.68
  Q 469.45 173.11 469.27 486.00
  Q 469.26 497.85 467.28 504.81
  Q 464.63 514.09 457.00 519.25
  C 446.36 526.44 432.96 526.59 419.67 525.95
  A 1.04 1.04 0.0 0 1 418.68 524.91
  Q 418.70 370.58 418.71 143.25
  Q 418.71 136.86 418.97 132.51
  C 419.68 120.40 426.51 109.11 437.62 103.92
  Q 446.39 99.82 457.52 99.71
  Q 476.38 99.54 510.75 99.74
  Q 514.60 99.77 520.63 100.40
  Q 554.68 104.01 577.97 127.82
  Q 583.85 133.82 593.63 145.66
  Q 609.91 165.37 647.83 211.57
  A 0.63 0.62 41.2 0 1 647.88 212.28
  L 622.32 254.50
  A 0.59 0.59 0.0 0 1 621.35 254.56
  Q 606.64 236.34 602.74 231.53
  Q 573.82 195.87 544.49 160.52
  Q 538.95 153.84 531.79 149.47
  C 525.73 145.77 517.31 144.87 510.24 144.85
  Q 478.79 144.81 470.02 144.90
  Z"
/>
<path fill="#fefefe" d="
  M 857.78 100.03
  A 0.69 0.69 0.0 0 1 858.43 100.72
  Q 858.29 394.01 858.43 456.62
  Q 858.48 478.40 857.25 483.79
  C 850.99 511.22 826.53 526.48 799.24 526.72
  Q 784.98 526.84 770.81 526.84
  Q 753.14 526.83 745.23 525.93
  Q 734.97 524.78 720.20 520.94
  Q 718.26 520.44 707.99 515.84
  C 690.96 508.21 679.11 497.33 667.30 482.95
  Q 643.46 453.93 622.42 428.78
  A 1.85 1.84 40.7 0 1 622.25 426.63
  L 649.51 381.60
  A 0.81 0.80 41.0 0 1 650.82 381.51
  Q 677.02 413.33 707.61 450.91
  Q 715.47 460.58 724.20 467.42
  C 735.25 476.09 748.51 478.21 763.06 478.17
  Q 764.83 478.16 798.01 478.19
  Q 802.25 478.19 804.20 476.74
  Q 806.85 474.77 806.85 471.08
  Q 807.15 278.39 807.00 125.75
  Q 807.00 120.05 809.45 114.97
  C 812.44 108.77 819.91 103.88 826.24 102.24
  C 836.22 99.67 847.05 99.39 857.78 100.03
  Z"
/>
<path fill="#49ad35" d="
  M 751.58 177.00
  L 705.72 252.55
  Q 680.47 240.63 652.30 241.24
  A 1.10 1.09 21.7 0 0 651.55 241.56
  L 646.97 246.01
  L 699.79 157.80
  C 715.53 163.76 734.35 169.30 751.58 177.00
  Z"
/>
<ellipse fill="#fefefe" cx="0.00" cy="0.00" transform="translate(550.44,274.26) rotate(-0.4)" rx="40.67" ry="39.60"/>
<path fill="#9dd416" d="
  M 705.72 252.55
  L 686.79 283.88
  C 670.89 269.80 651.22 269.95 631.18 272.81
  L 646.97 246.01
  L 651.55 241.56
  A 1.10 1.09 21.7 0 1 652.30 241.24
  Q 680.47 240.63 705.72 252.55
  Z"
/>
<path fill="#e5e905" d="
  M 686.79 283.88
  L 660.30 327.75
  Q 633.90 324.03 609.37 313.82
  A 0.52 0.52 0.0 0 1 609.12 313.08
  C 609.96 311.61 610.93 311.11 611.89 309.10
  Q 618.04 296.23 623.69 288.15
  Q 624.25 287.36 625.68 285.72
  A 7.15 7.07 78.4 0 0 626.71 284.14
  Q 627.81 281.81 630.77 276.07
  Q 631.32 275.02 630.20 274.44
  Q 630.58 273.49 631.18 272.81
  C 651.22 269.95 670.89 269.80 686.79 283.88
  Z"
/>
<path fill="#f6c30b" d="
  M 630.20 274.44
  Q 631.32 275.02 630.77 276.07
  Q 627.81 281.81 626.71 284.14
  A 7.15 7.07 78.4 0 1 625.68 285.72
  Q 624.25 287.36 623.69 288.15
  Q 618.04 296.23 611.89 309.10
  C 610.93 311.11 609.96 311.61 609.12 313.08
  A 0.52 0.52 0.0 0 0 609.37 313.82
  Q 633.90 324.03 660.30 327.75
  L 652.56 340.79
  Q 650.08 342.30 649.17 343.78
  Q 647.03 347.28 643.87 351.75
  A 2.84 2.83 -64.7 0 1 640.80 352.85
  Q 617.96 346.53 596.07 337.20
  A 0.71 0.70 -60.6 0 0 595.23 337.44
  Q 592.49 341.24 589.83 345.13
  A 0.78 0.76 -34.9 0 1 588.43 344.90
  Q 588.39 344.70 588.52 344.34
  L 630.20 274.44
  Z"
/>
<ellipse fill="#fefefe" cx="0.00" cy="0.00" transform="translate(728.03,359.26) rotate(-179.2)" rx="40.95" ry="39.62"/>
<path fill="#f58f0d" d="
  M 652.56 340.79
  L 611.80 408.76
  Q 613.27 403.31 616.01 398.30
  Q 616.74 396.96 616.62 395.53
  A 0.58 0.57 88.9 0 0 616.07 395.00
  Q 603.14 394.34 597.46 393.48
  Q 582.08 391.14 568.01 383.40
  A 0.45 0.44 28.2 0 0 567.39 383.58
  L 563.49 391.10
  A 0.52 0.51 37.0 0 1 562.66 391.21
  Q 562.02 390.53 561.69 389.55
  L 588.52 344.34
  Q 588.39 344.70 588.43 344.90
  A 0.78 0.76 -34.9 0 0 589.83 345.13
  Q 592.49 341.24 595.23 337.44
  A 0.71 0.70 -60.6 0 1 596.07 337.20
  Q 617.96 346.53 640.80 352.85
  A 2.84 2.83 -64.7 0 0 643.87 351.75
  Q 647.03 347.28 649.17 343.78
  Q 650.08 342.30 652.56 340.79
  Z"
/>
<path fill="#f05f0d" d="
  M 611.80 408.76
  L 580.49 461.05
  L 573.68 468.38
  A 0.74 0.74 0.0 0 1 572.89 468.58
  L 524.63 451.62
  L 561.69 389.55
  Q 562.02 390.53 562.66 391.21
  A 0.52 0.51 37.0 0 0 563.49 391.10
  L 567.39 383.58
  A 0.45 0.44 28.2 0 1 568.01 383.40
  Q 582.08 391.14 597.46 393.48
  Q 603.14 394.34 616.07 395.00
  A 0.58 0.57 88.9 0 1 616.62 395.53
  Q 616.74 396.96 616.01 398.30
  Q 613.27 403.31 611.80 408.76
  Z"
/>
<path fill="#d5070a" d="
  M 580.49 461.05
  Q 569.16 479.77 558.12 498.64
  C 555.15 503.70 551.75 509.60 547.89 513.59
  Q 540.66 521.04 530.05 524.13
  Q 523.03 526.17 509.27 525.92
  Q 498.74 525.73 481.90 525.90
  A 0.96 0.95 15.1 0 1 481.07 524.46
  L 524.63 451.62
  L 572.89 468.58
  A 0.74 0.74 0.0 0 0 573.68 468.38
  L 580.49 461.05
  Z"
/>
<path fill="#fefefe" d="
  M 588.75 640.29
  A 0.66 0.66 0.0 0 1 589.57 639.98
  C 598.39 643.27 608.13 646.39 617.24 647.34
  Q 629.55 648.63 638.24 648.17
  C 643.24 647.91 655.54 647.54 654.33 639.63
  C 653.44 633.79 647.20 632.57 641.70 631.57
  Q 631.40 629.69 615.76 628.01
  C 603.83 626.73 584.02 622.83 582.38 607.64
  C 581.82 602.44 583.63 597.97 587.66 594.45
  Q 592.74 590.00 598.47 588.25
  Q 613.58 583.64 628.51 584.17
  Q 635.63 584.43 649.19 586.82
  Q 661.94 589.07 667.73 591.49
  A 0.51 0.51 0.0 0 1 667.99 592.20
  L 661.77 604.18
  A 0.84 0.84 0.0 0 1 660.73 604.58
  Q 638.73 596.44 615.09 598.46
  C 611.03 598.81 604.45 600.34 602.98 604.83
  A 1.51 1.49 44.7 0 0 602.99 605.77
  C 605.14 612.30 618.10 613.34 623.53 613.91
  Q 634.60 615.08 649.75 617.47
  C 657.64 618.71 667.72 622.60 672.27 628.81
  Q 675.46 633.16 675.48 640.36
  Q 675.52 650.70 666.49 656.02
  C 653.97 663.40 637.83 662.94 623.91 662.69
  C 610.45 662.45 595.27 659.76 582.42 654.00
  A 0.67 0.66 -64.7 0 1 582.10 653.09
  L 588.75 640.29
  Z"
/>
<path fill="#fefefe" d="
  M 436.80 623.94
  A 0.42 0.41 15.5 0 0 437.46 623.57
  Q 436.77 615.81 438.38 608.93
  Q 439.00 606.30 442.08 602.59
  Q 447.81 595.71 453.77 589.02
  Q 455.51 587.05 456.19 586.70
  A 2.23 2.22 29.4 0 1 457.34 586.38
  L 468.41 586.45
  A 0.75 0.75 0.0 0 1 469.16 587.20
  L 469.16 661.09
  A 0.81 0.81 0.0 0 1 468.36 661.90
  Q 454.33 662.03 441.48 662.02
  Q 438.14 662.01 435.64 660.15
  Q 417.14 646.36 398.51 632.93
  A 0.27 0.27 0.0 0 0 398.08 633.11
  C 396.93 639.97 390.78 644.64 385.40 648.66
  Q 370.63 659.69 366.91 662.36
  A 0.46 0.45 -17.7 0 1 366.19 661.99
  L 366.19 586.94
  A 0.65 0.64 -89.6 0 1 366.84 586.29
  Q 369.49 586.33 378.76 586.31
  Q 384.31 586.29 389.10 589.66
  Q 413.09 606.52 436.80 623.94
  Z
  M 456.78 606.21
  C 451.60 612.29 448.54 617.16 448.63 624.75
  Q 448.71 631.40 448.55 645.29
  A 0.51 0.50 -71.9 0 1 447.75 645.70
  L 380.32 596.84
  A 0.66 0.65 17.9 0 0 379.28 597.37
  L 379.28 637.89
  A 1.09 1.09 0.0 0 0 381.21 638.58
  L 386.77 631.75
  A 8.00 8.00 0.0 0 0 388.55 626.72
  L 388.55 614.04
  A 0.30 0.29 18.3 0 1 389.02 613.81
  L 441.43 651.78
  A 4.34 4.29 62.7 0 0 443.97 652.61
  L 457.14 652.61
  A 0.41 0.40 90.0 0 0 457.54 652.20
  L 457.54 606.50
  A 0.44 0.43 65.4 0 0 456.78 606.21
  Z"
/>
<path fill="#fefefe" d="
  M 508.50 630.58
  L 508.50 646.65
  A 0.62 0.62 0.0 0 0 509.12 647.27
  L 571.78 647.27
  A 0.62 0.62 0.0 0 1 572.40 647.89
  L 572.40 661.31
  A 0.62 0.62 0.0 0 1 571.78 661.93
  L 488.44 661.93
  A 0.62 0.62 0.0 0 1 487.82 661.31
  L 487.82 586.97
  A 0.62 0.62 0.0 0 1 488.44 586.35
  L 567.98 586.35
  A 0.62 0.62 0.0 0 1 568.60 586.97
  L 568.60 599.76
  A 0.62 0.62 0.0 0 1 567.98 600.38
  L 509.10 600.38
  A 0.62 0.62 0.0 0 0 508.48 601.00
  L 508.48 615.66
  A 0.62 0.62 0.0 0 0 509.10 616.28
  L 561.94 616.28
  A 0.62 0.62 0.0 0 1 562.56 616.90
  L 562.56 629.34
  A 0.62 0.62 0.0 0 1 561.94 629.96
  L 509.12 629.96
  A 0.62 0.62 0.0 0 0 508.50 630.58
  Z"
/>
<path fill="#fefefe" d="
  M 728.47 586.37
  L 753.52 586.37
  A 0.46 0.46 0.0 0 1 753.90 586.57
  L 804.37 661.25
  A 0.46 0.46 0.0 0 1 803.98 661.97
  L 782.49 661.97
  A 0.46 0.46 0.0 0 1 782.11 661.77
  L 771.57 646.16
  A 0.46 0.46 0.0 0 0 771.19 645.96
  L 713.43 645.96
  A 0.46 0.46 0.0 0 0 713.04 646.18
  L 703.62 661.72
  A 0.46 0.46 0.0 0 1 703.23 661.94
  L 681.62 661.94
  A 0.46 0.46 0.0 0 1 681.23 661.24
  L 728.08 586.59
  A 0.46 0.46 0.0 0 1 728.47 586.37
  Z
  M 741.36 600.36
  A 0.35 0.35 0.0 0 0 740.77 600.37
  L 721.07 631.76
  A 0.35 0.35 0.0 0 0 721.36 632.30
  L 762.28 632.30
  A 0.35 0.35 0.0 0 0 762.57 631.75
  L 741.36 600.36
  Z"
/>
<path fill="#fefefe" d="
  M 837.38 661.78
  A 0.65 0.64 -62.0 0 1 837.05 660.69
  L 858.77 638.97
  A 1.03 1.03 0.0 0 0 858.69 637.44
  L 849.58 630.03
  A 0.45 0.44 -61.3 0 0 848.87 630.24
  C 846.75 637.04 842.46 641.33 836.37 646.12
  Q 831.76 649.75 815.97 661.21
  Q 814.64 662.17 814.00 662.47
  A 0.71 0.71 0.0 0 1 812.99 661.82
  L 812.99 586.92
  A 0.62 0.62 0.0 0 1 813.60 586.30
  Q 832.84 586.20 876.83 586.33
  C 882.85 586.35 888.77 586.99 893.48 587.59
  C 899.47 588.34 909.59 592.27 912.94 597.91
  C 916.03 603.10 915.95 609.26 913.78 614.86
  C 912.09 619.22 906.76 621.66 902.43 622.97
  A 0.49 0.49 0.0 0 0 902.46 623.91
  C 912.19 626.18 921.41 631.37 920.99 642.88
  C 920.39 659.29 901.39 661.99 888.25 662.00
  Q 884.36 662.01 840.76 662.03
  Q 838.60 662.03 837.38 661.78
  Z
  M 837.67 610.71
  A 0.39 0.39 0.0 0 1 838.30 610.40
  L 873.90 636.99
  A 0.68 0.68 0.0 0 1 873.96 638.04
  L 860.42 650.50
  A 0.68 0.68 0.0 0 0 860.86 651.68
  Q 870.16 652.00 881.24 651.75
  Q 887.82 651.60 893.22 650.45
  C 898.36 649.35 904.73 646.25 902.39 640.11
  C 900.54 635.24 891.46 633.15 886.11 631.63
  C 881.87 630.42 876.76 627.97 871.91 627.18
  A 0.36 0.35 -53.0 0 1 871.82 626.51
  Q 878.57 623.31 892.21 617.21
  Q 896.90 615.11 898.26 612.87
  C 906.43 599.34 882.96 597.19 875.75 597.09
  Q 865.76 596.94 857.06 596.98
  A 0.42 0.42 0.0 0 0 856.80 597.73
  L 874.66 612.27
  A 0.50 0.49 43.2 0 1 874.69 613.01
  L 867.22 619.88
  A 0.82 0.80 -46.7 0 1 866.16 619.92
  L 838.95 597.77
  A 1.63 1.58 -24.7 0 0 837.93 597.41
  L 827.51 597.41
  A 0.44 0.43 -0.0 0 0 827.07 597.84
  L 827.07 638.80
  A 0.64 0.64 0.0 0 0 828.09 639.31
  Q 834.41 634.64 837.33 626.94
  A 5.35 5.23 56.0 0 0 837.67 625.07
  L 837.67 610.71
  Z"
/>
<path fill="#02020c" d="
  M 457.54 606.50
  L 457.54 652.20
  A 0.41 0.40 -90.0 0 1 457.14 652.61
  L 443.97 652.61
  A 4.34 4.29 62.7 0 1 441.43 651.78
  L 389.02 613.81
  A 0.30 0.29 18.3 0 0 388.55 614.04
  L 388.55 626.72
  A 8.00 8.00 0.0 0 1 386.77 631.75
  L 381.21 638.58
  A 1.09 1.09 0.0 0 1 379.28 637.89
  L 379.28 597.37
  A 0.66 0.65 17.9 0 1 380.32 596.84
  L 447.75 645.70
  A 0.51 0.50 -71.9 0 0 448.55 645.29
  Q 448.71 631.40 448.63 624.75
  C 448.54 617.16 451.60 612.29 456.78 606.21
  A 0.44 0.43 65.4 0 1 457.54 606.50
  Z"
/>
<path fill="#02020c" d="
  M 837.67 610.71
  L 837.67 625.07
  A 5.35 5.23 56.0 0 1 837.33 626.94
  Q 834.41 634.64 828.09 639.31
  A 0.64 0.64 0.0 0 1 827.07 638.80
  L 827.07 597.84
  A 0.44 0.43 -0.0 0 1 827.51 597.41
  L 837.93 597.41
  A 1.63 1.58 -24.7 0 1 838.95 597.77
  L 866.16 619.92
  A 0.82 0.80 -46.7 0 0 867.22 619.88
  L 874.69 613.01
  A 0.50 0.49 43.2 0 0 874.66 612.27
  L 856.80 597.73
  A 0.42 0.42 0.0 0 1 857.06 596.98
  Q 865.76 596.94 875.75 597.09
  C 882.96 597.19 906.43 599.34 898.26 612.87
  Q 896.90 615.11 892.21 617.21
  Q 878.57 623.31 871.82 626.51
  A 0.36 0.35 -53.0 0 0 871.91 627.18
  C 876.76 627.97 881.87 630.42 886.11 631.63
  C 891.46 633.15 900.54 635.24 902.39 640.11
  C 904.73 646.25 898.36 649.35 893.22 650.45
  Q 887.82 651.60 881.24 651.75
  Q 870.16 652.00 860.86 651.68
  A 0.68 0.68 0.0 0 1 860.42 650.50
  L 873.96 638.04
  A 0.68 0.68 0.0 0 0 873.90 636.99
  L 838.30 610.40
  A 0.39 0.39 0.0 0 0 837.67 610.71
  Z"
/>
<path fill="#02020c" d="
  M 741.36 600.36
  L 762.57 631.75
  A 0.35 0.35 0.0 0 1 762.28 632.30
  L 721.36 632.30
  A 0.35 0.35 0.0 0 1 721.07 631.76
  L 740.77 600.37
  A 0.35 0.35 0.0 0 1 741.36 600.36
  Z"
/>
</svg>
