<?xml version="1.0" encoding="UTF-8" standalone="no"?>
<!DOCTYPE svg PUBLIC "-//W3C//DTD SVG 1.1//EN" "http://www.w3.org/Graphics/SVG/1.1/DTD/svg11.dtd">
<svg xmlns="http://www.w3.org/2000/svg" version="1.1" viewBox="58 289 894 324">
<g stroke-width="2.00" fill="none" stroke-linecap="butt">
<path stroke="#818185" vector-effect="non-scaling-stroke" d="
  M 771.94 403.88
  L 793.88 370.44
  A 0.68 0.67 40.4 0 0 793.81 369.61
  Q 791.22 366.82 791.10 366.67
  Q 776.75 349.51 761.36 331.18
  Q 745.55 312.36 739.58 307.47
  Q 724.91 295.44 705.55 291.25
  Q 698.03 289.62 687.68 289.69
  Q 664.50 289.86 647.44 289.78
  Q 639.20 289.75 634.56 291.09
  C 624.98 293.86 616.21 299.62 612.18 309.11
  Q 609.11 316.33 609.11 320.03
  Q 609.04 466.15 609.34 609.91
  A 0.54 0.54 0.0 0 0 609.89 610.45
  Q 616.69 610.35 623.86 610.39
  C 640.30 610.51 651.66 599.92 651.64 583.01
  Q 651.52 495.28 651.55 327.86
  A 0.60 0.60 0.0 0 1 652.16 327.26
  Q 666.33 327.54 684.06 327.36
  C 697.91 327.23 708.16 328.71 716.55 338.96
  C 737.03 364.02 753.32 383.89 771.07 403.94
  A 0.55 0.55 0.0 0 0 771.94 403.88"
/>
<path stroke="#3e632c" vector-effect="non-scaling-stroke" d="
  M 840.80 322.95
  L 800.49 386.77"
/>
<path stroke="#667320" vector-effect="non-scaling-stroke" d="
  M 800.49 386.77
  L 791.25 401.61"
/>
<path stroke="#807112" vector-effect="non-scaling-stroke" d="
  M 791.25 401.61
  L 769.01 436.78"
/>
<path stroke="#805a1c" vector-effect="non-scaling-stroke" d="
  M 769.01 436.78
  L 746.75 472.01"
/>
<path stroke="#7d461e" vector-effect="non-scaling-stroke" d="
  M 746.75 472.01
  L 717.75 517.60"
/>
<path stroke="#77171d" vector-effect="non-scaling-stroke" d="
  M 717.75 517.60
  L 658.64 610.30
  A 0.56 0.56 0.0 0 0 659.10 611.16
  Q 666.85 611.23 678.26 611.61
  C 691.63 612.06 701.64 610.36 711.63 601.84
  Q 715.84 598.25 718.04 594.76
  Q 735.61 566.93 753.11 538.93"
/>
<path stroke="#7d461e" vector-effect="non-scaling-stroke" d="
  M 753.11 538.93
  L 782.86 491.88"
/>
<path stroke="#805a1c" vector-effect="non-scaling-stroke" d="
  M 782.86 491.88
  L 800.15 464.65"
/>
<path stroke="#807112" vector-effect="non-scaling-stroke" d="
  M 800.15 464.65
  L 828.85 419.67"
/>
<path stroke="#667320" vector-effect="non-scaling-stroke" d="
  M 828.85 419.67
  L 843.32 397.06"
/>
<path stroke="#3e632c" vector-effect="non-scaling-stroke" d="
  M 843.32 397.06
  L 875.40 346.79"
/>
<path stroke="#085231" vector-effect="non-scaling-stroke" d="
  M 875.40 346.79
  L 908.08 294.00
  A 0.65 0.65 0.0 0 0 907.54 293.01
  Q 892.42 292.64 879.28 292.92
  Q 868.66 293.15 860.40 298.63
  Q 856.79 301.03 852.60 304.65
  A 5.31 5.25 -4.6 0 0 851.55 305.87
  L 840.80 322.95"
/>
<path stroke="#42b151" vector-effect="non-scaling-stroke" d="
  M 875.40 346.79
  Q 859.01 333.50 840.80 322.95"
/>
<path stroke="#9fd140" vector-effect="non-scaling-stroke" d="
  M 843.32 397.06
  Q 825.85 387.55 807.72 379.46
  A 0.66 0.65 33.0 0 0 806.96 379.62
  L 800.49 386.77"
/>
<path stroke="#e1e026" vector-effect="non-scaling-stroke" d="
  M 828.85 419.67
  Q 822.23 413.97 815.38 409.10
  Q 804.66 401.48 791.25 401.61"
/>
<path stroke="#fbc721" vector-effect="non-scaling-stroke" d="
  M 800.15 464.65
  Q 780.29 455.85 769.01 436.78"
/>
<path stroke="#f89c2e" vector-effect="non-scaling-stroke" d="
  M 782.86 491.88
  C 778.97 495.98 774.81 499.28 770.22 495.23
  Q 758.71 485.06 746.75 472.01"
/>
<path stroke="#ef582f" vector-effect="non-scaling-stroke" d="
  M 753.11 538.93
  Q 733.97 530.87 717.75 517.60"
/>
<path stroke="#818185" vector-effect="non-scaling-stroke" d="
  M 950.86 292.85
  Q 940.94 292.65 937.75 292.84
  C 929.76 293.31 919.72 298.25 915.49 305.24
  C 912.15 310.76 910.02 315.89 910.03 322.50
  Q 910.12 448.08 910.22 562.75
  C 910.23 573.96 902.00 575.66 892.22 575.50
  Q 880.60 575.31 871.36 575.55
  C 859.68 575.85 851.58 574.20 842.32 568.42
  Q 838.67 566.14 833.88 560.47
  Q 816.31 539.66 790.31 511.06
  A 0.49 0.49 0.0 0 0 789.53 511.13
  L 768.25 544.54
  A 0.58 0.57 40.2 0 0 768.31 545.22
  Q 772.43 549.95 790.02 570.05
  Q 806.48 588.85 812.54 593.65
  C 824.47 603.10 838.64 609.27 853.95 611.51
  Q 861.43 612.60 864.81 612.61
  Q 891.74 612.71 897.68 612.68
  C 927.31 612.54 951.58 595.22 951.62 563.75
  Q 951.76 449.41 951.65 310.75
  Q 951.64 296.54 951.50 293.48
  A 0.66 0.66 0.0 0 0 950.86 292.85"
/>
<path stroke="#818185" vector-effect="non-scaling-stroke" d="
  M 676.8601 420.8919
  A 33.23 30.34 -174.2 0 0 706.8540 454.4347
  A 33.23 30.34 -174.2 0 0 742.9799 427.6081
  A 33.23 30.34 -174.2 0 0 712.9860 394.0653
  A 33.23 30.34 -174.2 0 0 676.8601 420.8919"
/>
<path stroke="#818185" vector-effect="non-scaling-stroke" d="
  M 260.16 484.24
  Q 261.16 484.49 262.39 484.94
  Q 275.64 489.78 287.26 491.40
  Q 288.69 491.60 296.67 492.55
  Q 311.64 494.35 328.24 490.24
  C 339.20 487.52 349.53 481.86 348.41 468.77
  C 347.23 455.00 328.17 450.83 316.59 449.35
  C 311.91 448.75 303.94 448.52 297.99 447.53
  C 292.04 446.53 287.51 446.19 283.89 443.12
  C 280.69 440.39 282.31 437.62 285.36 435.90
  C 292.12 432.08 303.83 431.96 311.23 432.59
  Q 319.76 433.32 333.30 437.66
  Q 334.69 438.10 336.72 439.29
  A 0.55 0.55 0.0 0 0 337.47 439.11
  L 344.19 428.55
  A 0.48 0.48 0.0 0 0 343.96 427.85
  Q 326.08 420.75 307.01 420.30
  C 295.24 420.02 269.33 421.91 264.43 435.66
  C 260.53 446.61 267.61 453.80 277.28 457.24
  Q 284.13 459.68 294.55 461.15
  Q 302.06 462.21 314.52 463.44
  C 318.50 463.83 326.33 465.31 328.31 468.88
  C 332.81 476.98 316.27 479.24 311.40 479.48
  C 297.91 480.17 281.83 477.79 268.78 471.53
  A 0.99 0.98 28.6 0 0 267.53 471.89
  L 259.97 483.77
  A 0.31 0.31 0.0 0 0 260.16 484.24"
/>
<path stroke="#818185" vector-effect="non-scaling-stroke" d="
  M 128.38 456.11
  A 0.37 0.37 0.0 0 1 127.77 456.40
  L 85.27 421.33
  A 1.38 1.38 0.0 0 0 84.40 421.02
  L 59.53 421.02
  A 0.62 0.61 0.0 0 0 58.91 421.63
  L 58.91 491.28
  A 0.35 0.35 0.0 0 0 59.47 491.56
  Q 71.63 482.34 78.06 477.05
  C 84.09 472.08 88.02 468.47 88.05 460.98
  A 0.56 0.55 -70.3 0 1 88.95 460.55
  L 127.17 491.69
  A 0.88 0.84 -25.0 0 0 127.70 491.87
  L 159.43 491.87
  A 0.54 0.53 -0.0 0 0 159.97 491.34
  L 159.97 421.94
  A 0.41 0.40 -0.0 0 0 159.56 421.54
  L 156.15 421.54
  A 1.96 1.94 23.3 0 0 154.82 422.06
  Q 140.97 434.94 128.79 444.02
  A 1.05 1.03 71.7 0 0 128.38 444.85
  L 128.38 456.11"
/>
<path stroke="#818185" vector-effect="non-scaling-stroke" d="
  M 176.98 421.30
  A 0.31 0.31 0.0 0 0 176.67 421.61
  L 176.67 491.42
  A 0.31 0.31 0.0 0 0 176.98 491.73
  L 252.79 491.73
  A 0.31 0.31 0.0 0 0 253.10 491.42
  L 253.10 478.17
  A 0.31 0.31 0.0 0 0 252.79 477.86
  L 194.51 477.86
  A 0.31 0.31 0.0 0 1 194.20 477.55
  L 194.20 461.58
  A 0.31 0.31 0.0 0 1 194.51 461.27
  L 244.23 461.27
  A 0.31 0.31 0.0 0 0 244.54 460.96
  L 244.54 449.54
  A 0.31 0.31 0.0 0 0 244.23 449.23
  L 194.51 449.23
  A 0.31 0.31 0.0 0 1 194.20 448.92
  L 194.20 434.53
  A 0.31 0.31 0.0 0 1 194.51 434.22
  L 249.59 434.22
  A 0.31 0.31 0.0 0 0 249.90 433.91
  L 249.90 421.61
  A 0.31 0.31 0.0 0 0 249.59 421.30
  L 176.98 421.30"
/>
<path stroke="#818185" vector-effect="non-scaling-stroke" d="
  M 432.97 475.32
  A 0.33 0.33 0.0 0 1 433.25 475.47
  L 443.64 491.94
  A 0.33 0.33 0.0 0 0 443.92 492.09
  L 463.97 492.09
  A 0.33 0.33 0.0 0 0 464.25 491.58
  L 420.01 421.55
  A 0.33 0.33 0.0 0 0 419.73 421.40
  L 396.36 421.40
  A 0.33 0.33 0.0 0 0 396.08 421.55
  L 351.63 491.36
  A 0.33 0.33 0.0 0 0 351.91 491.87
  L 371.21 491.87
  A 0.33 0.33 0.0 0 0 371.49 491.72
  L 381.83 475.47
  A 0.33 0.33 0.0 0 1 382.11 475.32
  L 432.97 475.32"
/>
<path stroke="#818185" vector-effect="non-scaling-stroke" d="
  M 475.22 492.52
  Q 485.07 485.83 487.92 484.27
  Q 491.87 482.12 495.79 478.83
  C 501.89 473.70 506.41 470.27 507.90 463.35
  A 0.41 0.41 0.0 0 1 508.57 463.12
  L 516.64 469.78
  A 0.27 0.27 0.0 0 1 516.66 470.18
  Q 501.81 485.11 499.62 487.17
  C 497.63 489.04 496.02 490.09 494.21 491.42
  A 0.33 0.33 0.0 0 0 494.40 492.01
  Q 514.05 492.21 539.72 492.15
  C 544.86 492.14 551.15 491.99 554.76 491.30
  Q 559.68 490.38 565.71 487.39
  C 571.70 484.42 575.28 479.21 574.96 472.52
  C 574.51 463.09 567.71 459.57 559.91 456.82
  A 0.86 0.86 0.0 0 1 559.95 455.18
  Q 570.24 452.03 571.98 442.92
  C 574.08 431.86 565.26 425.51 555.79 423.43
  C 550.63 422.29 545.37 421.46 539.35 421.43
  Q 500.58 421.26 475.17 421.48
  A 0.57 0.57 0.0 0 0 474.61 422.05
  L 474.61 492.20
  A 0.39 0.39 0.0 0 0 475.22 492.52"
/>
<path stroke="#818185" vector-effect="non-scaling-stroke" d="
  M 819.0641 486.9005
  A 32.65 30.09 -176.7 0 0 849.9279 518.8201
  A 32.65 30.09 -176.7 0 0 884.2559 490.6595
  A 32.65 30.09 -176.7 0 0 853.3921 458.7399
  A 32.65 30.09 -176.7 0 0 819.0641 486.9005"
/>
<path stroke="#818185" vector-effect="non-scaling-stroke" d="
  M 80.17 430.49
  A 0.40 0.40 0.0 0 0 79.92 430.40
  L 69.23 430.40
  A 0.40 0.40 0.0 0 0 68.83 430.80
  L 68.83 471.27
  A 0.40 0.40 0.0 0 0 69.51 471.56
  L 77.66 463.40
  A 0.40 0.40 0.0 0 0 77.78 463.11
  L 77.78 439.31
  A 0.40 0.40 0.0 0 1 78.43 439.00
  L 132.56 483.67
  A 0.40 0.40 0.0 0 0 132.81 483.76
  L 149.09 483.76
  A 0.40 0.40 0.0 0 0 149.49 483.36
  L 149.49 440.76
  A 0.40 0.40 0.0 0 0 148.82 440.46
  L 139.40 449.05
  A 0.40 0.40 0.0 0 0 139.27 449.35
  L 139.27 478.42
  A 0.40 0.40 0.0 0 1 138.62 478.73
  L 80.17 430.49"
/>
<path stroke="#818185" vector-effect="non-scaling-stroke" d="
  M 389.23 462.81
  A 0.31 0.31 0.0 0 0 389.50 463.28
  L 425.42 463.10
  A 0.31 0.31 0.0 0 0 425.68 462.62
  L 407.57 434.74
  A 0.31 0.31 0.0 0 0 407.05 434.74
  L 389.23 462.81"
/>
<path stroke="#818185" vector-effect="non-scaling-stroke" d="
  M 533.04 468.14
  L 519.46 481.71
  A 0.15 0.15 0.0 0 0 519.57 481.96
  Q 520.34 481.96 542.44 481.60
  C 547.29 481.52 555.19 480.53 557.38 475.78
  C 561.06 467.81 549.04 464.42 543.74 463.03
  Q 534.49 460.59 528.88 459.13
  A 0.80 0.78 -67.8 0 1 528.41 457.97
  Q 528.56 457.69 528.86 457.59
  Q 539.21 453.96 547.30 450.55
  C 552.78 448.24 559.51 443.97 555.40 437.43
  C 552.23 432.39 541.53 431.51 536.25 431.54
  Q 523.81 431.61 516.90 431.49
  A 0.44 0.44 0.0 0 0 516.62 432.27
  Q 523.62 438.05 530.25 444.25
  Q 531.67 445.57 534.10 447.02
  A 0.29 0.29 0.0 0 1 534.11 447.52
  Q 529.80 450.28 526.12 454.54
  A 0.56 0.55 -48.7 0 1 525.34 454.60
  L 499.32 431.71
  A 1.66 1.62 -23.9 0 0 498.24 431.31
  L 486.43 431.31
  A 0.41 0.41 0.0 0 0 486.02 431.72
  L 486.02 471.81
  A 0.47 0.47 0.0 0 0 486.77 472.18
  C 489.90 469.79 496.17 463.52 496.25 459.69
  Q 496.58 444.26 496.61 443.34
  A 0.65 0.64 -71.6 0 1 497.62 442.83
  L 533.00 467.73
  A 0.27 0.27 0.0 0 1 533.04 468.14"
/>
</g>
<path fill="#04040c" d="
  M 1024.00 0.00
  L 1024.00 1024.00
  L 0.00 1024.00
  L 0.00 0.00
  L 1024.00 0.00
  Z
  M 771.94 403.88
  L 793.88 370.44
  A 0.68 0.67 40.4 0 0 793.81 369.61
  Q 791.22 366.82 791.10 366.67
  Q 776.75 349.51 761.36 331.18
  Q 745.55 312.36 739.58 307.47
  Q 724.91 295.44 705.55 291.25
  Q 698.03 289.62 687.68 289.69
  Q 664.50 289.86 647.44 289.78
  Q 639.20 289.75 634.56 291.09
  C 624.98 293.86 616.21 299.62 612.18 309.11
  Q 609.11 316.33 609.11 320.03
  Q 609.04 466.15 609.34 609.91
  A 0.54 0.54 0.0 0 0 609.89 610.45
  Q 616.69 610.35 623.86 610.39
  C 640.30 610.51 651.66 599.92 651.64 583.01
  Q 651.52 495.28 651.55 327.86
  A 0.60 0.60 0.0 0 1 652.16 327.26
  Q 666.33 327.54 684.06 327.36
  C 697.91 327.23 708.16 328.71 716.55 338.96
  C 737.03 364.02 753.32 383.89 771.07 403.94
  A 0.55 0.55 0.0 0 0 771.94 403.88
  Z
  M 840.80 322.95
  L 800.49 386.77
  L 791.25 401.61
  L 769.01 436.78
  L 746.75 472.01
  L 717.75 517.60
  L 658.64 610.30
  A 0.56 0.56 0.0 0 0 659.10 611.16
  Q 666.85 611.23 678.26 611.61
  C 691.63 612.06 701.64 610.36 711.63 601.84
  Q 715.84 598.25 718.04 594.76
  Q 735.61 566.93 753.11 538.93
  L 782.86 491.88
  L 800.15 464.65
  L 828.85 419.67
  L 843.32 397.06
  L 875.40 346.79
  L 908.08 294.00
  A 0.65 0.65 0.0 0 0 907.54 293.01
  Q 892.42 292.64 879.28 292.92
  Q 868.66 293.15 860.40 298.63
  Q 856.79 301.03 852.60 304.65
  A 5.31 5.25 -4.6 0 0 851.55 305.87
  L 840.80 322.95
  Z
  M 950.86 292.85
  Q 940.94 292.65 937.75 292.84
  C 929.76 293.31 919.72 298.25 915.49 305.24
  C 912.15 310.76 910.02 315.89 910.03 322.50
  Q 910.12 448.08 910.22 562.75
  C 910.23 573.96 902.00 575.66 892.22 575.50
  Q 880.60 575.31 871.36 575.55
  C 859.68 575.85 851.58 574.20 842.32 568.42
  Q 838.67 566.14 833.88 560.47
  Q 816.31 539.66 790.31 511.06
  A 0.49 0.49 0.0 0 0 789.53 511.13
  L 768.25 544.54
  A 0.58 0.57 40.2 0 0 768.31 545.22
  Q 772.43 549.95 790.02 570.05
  Q 806.48 588.85 812.54 593.65
  C 824.47 603.10 838.64 609.27 853.95 611.51
  Q 861.43 612.60 864.81 612.61
  Q 891.74 612.71 897.68 612.68
  C 927.31 612.54 951.58 595.22 951.62 563.75
  Q 951.76 449.41 951.65 310.75
  Q 951.64 296.54 951.50 293.48
  A 0.66 0.66 0.0 0 0 950.86 292.85
  Z
  M 676.8601 420.8919
  A 33.23 30.34 -174.2 0 0 706.8540 454.4347
  A 33.23 30.34 -174.2 0 0 742.9799 427.6081
  A 33.23 30.34 -174.2 0 0 712.9860 394.0653
  A 33.23 30.34 -174.2 0 0 676.8601 420.8919
  Z
  M 260.16 484.24
  Q 261.16 484.49 262.39 484.94
  Q 275.64 489.78 287.26 491.40
  Q 288.69 491.60 296.67 492.55
  Q 311.64 494.35 328.24 490.24
  C 339.20 487.52 349.53 481.86 348.41 468.77
  C 347.23 455.00 328.17 450.83 316.59 449.35
  C 311.91 448.75 303.94 448.52 297.99 447.53
  C 292.04 446.53 287.51 446.19 283.89 443.12
  C 280.69 440.39 282.31 437.62 285.36 435.90
  C 292.12 432.08 303.83 431.96 311.23 432.59
  Q 319.76 433.32 333.30 437.66
  Q 334.69 438.10 336.72 439.29
  A 0.55 0.55 0.0 0 0 337.47 439.11
  L 344.19 428.55
  A 0.48 0.48 0.0 0 0 343.96 427.85
  Q 326.08 420.75 307.01 420.30
  C 295.24 420.02 269.33 421.91 264.43 435.66
  C 260.53 446.61 267.61 453.80 277.28 457.24
  Q 284.13 459.68 294.55 461.15
  Q 302.06 462.21 314.52 463.44
  C 318.50 463.83 326.33 465.31 328.31 468.88
  C 332.81 476.98 316.27 479.24 311.40 479.48
  C 297.91 480.17 281.83 477.79 268.78 471.53
  A 0.99 0.98 28.6 0 0 267.53 471.89
  L 259.97 483.77
  A 0.31 0.31 0.0 0 0 260.16 484.24
  Z
  M 128.38 456.11
  A 0.37 0.37 0.0 0 1 127.77 456.40
  L 85.27 421.33
  A 1.38 1.38 0.0 0 0 84.40 421.02
  L 59.53 421.02
  A 0.62 0.61 0.0 0 0 58.91 421.63
  L 58.91 491.28
  A 0.35 0.35 0.0 0 0 59.47 491.56
  Q 71.63 482.34 78.06 477.05
  C 84.09 472.08 88.02 468.47 88.05 460.98
  A 0.56 0.55 -70.3 0 1 88.95 460.55
  L 127.17 491.69
  A 0.88 0.84 -25.0 0 0 127.70 491.87
  L 159.43 491.87
  A 0.54 0.53 -0.0 0 0 159.97 491.34
  L 159.97 421.94
  A 0.41 0.40 -0.0 0 0 159.56 421.54
  L 156.15 421.54
  A 1.96 1.94 23.3 0 0 154.82 422.06
  Q 140.97 434.94 128.79 444.02
  A 1.05 1.03 71.7 0 0 128.38 444.85
  L 128.38 456.11
  Z
  M 176.98 421.30
  A 0.31 0.31 0.0 0 0 176.67 421.61
  L 176.67 491.42
  A 0.31 0.31 0.0 0 0 176.98 491.73
  L 252.79 491.73
  A 0.31 0.31 0.0 0 0 253.10 491.42
  L 253.10 478.17
  A 0.31 0.31 0.0 0 0 252.79 477.86
  L 194.51 477.86
  A 0.31 0.31 0.0 0 1 194.20 477.55
  L 194.20 461.58
  A 0.31 0.31 0.0 0 1 194.51 461.27
  L 244.23 461.27
  A 0.31 0.31 0.0 0 0 244.54 460.96
  L 244.54 449.54
  A 0.31 0.31 0.0 0 0 244.23 449.23
  L 194.51 449.23
  A 0.31 0.31 0.0 0 1 194.20 448.92
  L 194.20 434.53
  A 0.31 0.31 0.0 0 1 194.51 434.22
  L 249.59 434.22
  A 0.31 0.31 0.0 0 0 249.90 433.91
  L 249.90 421.61
  A 0.31 0.31 0.0 0 0 249.59 421.30
  L 176.98 421.30
  Z
  M 432.97 475.32
  A 0.33 0.33 0.0 0 1 433.25 475.47
  L 443.64 491.94
  A 0.33 0.33 0.0 0 0 443.92 492.09
  L 463.97 492.09
  A 0.33 0.33 0.0 0 0 464.25 491.58
  L 420.01 421.55
  A 0.33 0.33 0.0 0 0 419.73 421.40
  L 396.36 421.40
  A 0.33 0.33 0.0 0 0 396.08 421.55
  L 351.63 491.36
  A 0.33 0.33 0.0 0 0 351.91 491.87
  L 371.21 491.87
  A 0.33 0.33 0.0 0 0 371.49 491.72
  L 381.83 475.47
  A 0.33 0.33 0.0 0 1 382.11 475.32
  L 432.97 475.32
  Z
  M 475.22 492.52
  Q 485.07 485.83 487.92 484.27
  Q 491.87 482.12 495.79 478.83
  C 501.89 473.70 506.41 470.27 507.90 463.35
  A 0.41 0.41 0.0 0 1 508.57 463.12
  L 516.64 469.78
  A 0.27 0.27 0.0 0 1 516.66 470.18
  Q 501.81 485.11 499.62 487.17
  C 497.63 489.04 496.02 490.09 494.21 491.42
  A 0.33 0.33 0.0 0 0 494.40 492.01
  Q 514.05 492.21 539.72 492.15
  C 544.86 492.14 551.15 491.99 554.76 491.30
  Q 559.68 490.38 565.71 487.39
  C 571.70 484.42 575.28 479.21 574.96 472.52
  C 574.51 463.09 567.71 459.57 559.91 456.82
  A 0.86 0.86 0.0 0 1 559.95 455.18
  Q 570.24 452.03 571.98 442.92
  C 574.08 431.86 565.26 425.51 555.79 423.43
  C 550.63 422.29 545.37 421.46 539.35 421.43
  Q 500.58 421.26 475.17 421.48
  A 0.57 0.57 0.0 0 0 474.61 422.05
  L 474.61 492.20
  A 0.39 0.39 0.0 0 0 475.22 492.52
  Z
  M 819.0641 486.9005
  A 32.65 30.09 -176.7 0 0 849.9279 518.8201
  A 32.65 30.09 -176.7 0 0 884.2559 490.6595
  A 32.65 30.09 -176.7 0 0 853.3921 458.7399
  A 32.65 30.09 -176.7 0 0 819.0641 486.9005
  Z"
/>
<path fill="#fefefe" d="
  M 771.07 403.94
  C 753.32 383.89 737.03 364.02 716.55 338.96
  C 708.16 328.71 697.91 327.23 684.06 327.36
  Q 666.33 327.54 652.16 327.26
  A 0.60 0.60 0.0 0 0 651.55 327.86
  Q 651.52 495.28 651.64 583.01
  C 651.66 599.92 640.30 610.51 623.86 610.39
  Q 616.69 610.35 609.89 610.45
  A 0.54 0.54 0.0 0 1 609.34 609.91
  Q 609.04 466.15 609.11 320.03
  Q 609.11 316.33 612.18 309.11
  C 616.21 299.62 624.98 293.86 634.56 291.09
  Q 639.20 289.75 647.44 289.78
  Q 664.50 289.86 687.68 289.69
  Q 698.03 289.62 705.55 291.25
  Q 724.91 295.44 739.58 307.47
  Q 745.55 312.36 761.36 331.18
  Q 776.75 349.51 791.10 366.67
  Q 791.22 366.82 793.81 369.61
  A 0.68 0.67 40.4 0 1 793.88 370.44
  L 771.94 403.88
  A 0.55 0.55 0.0 0 1 771.07 403.94
  Z"
/>
<path fill="#0ca055" d="
  M 875.40 346.79
  Q 859.01 333.50 840.80 322.95
  L 851.55 305.87
  A 5.31 5.25 -4.6 0 1 852.60 304.65
  Q 856.79 301.03 860.40 298.63
  Q 868.66 293.15 879.28 292.92
  Q 892.42 292.64 907.54 293.01
  A 0.65 0.65 0.0 0 1 908.08 294.00
  L 875.40 346.79
  Z"
/>
<path fill="#fefefe" d="
  M 951.50 293.48
  Q 951.64 296.54 951.65 310.75
  Q 951.76 449.41 951.62 563.75
  C 951.58 595.22 927.31 612.54 897.68 612.68
  Q 891.74 612.71 864.81 612.61
  Q 861.43 612.60 853.95 611.51
  C 838.64 609.27 824.47 603.10 812.54 593.65
  Q 806.48 588.85 790.02 570.05
  Q 772.43 549.95 768.31 545.22
  A 0.58 0.57 40.2 0 1 768.25 544.54
  L 789.53 511.13
  A 0.49 0.49 0.0 0 1 790.31 511.06
  Q 816.31 539.66 833.88 560.47
  Q 838.67 566.14 842.32 568.42
  C 851.58 574.20 859.68 575.85 871.36 575.55
  Q 880.60 575.31 892.22 575.50
  C 902.00 575.66 910.23 573.96 910.22 562.75
  Q 910.12 448.08 910.03 322.50
  C 910.02 315.89 912.15 310.76 915.49 305.24
  C 919.72 298.25 929.76 293.31 937.75 292.84
  Q 940.94 292.65 950.86 292.85
  A 0.66 0.66 0.0 0 1 951.50 293.48
  Z"
/>
<path fill="#77c14c" d="
  M 875.40 346.79
  L 843.32 397.06
  Q 825.85 387.55 807.72 379.46
  A 0.66 0.65 33.0 0 0 806.96 379.62
  L 800.49 386.77
  L 840.80 322.95
  Q 859.01 333.50 875.40 346.79
  Z"
/>
<path fill="#c7e134" d="
  M 843.32 397.06
  L 828.85 419.67
  Q 822.23 413.97 815.38 409.10
  Q 804.66 401.48 791.25 401.61
  L 800.49 386.77
  L 806.96 379.62
  A 0.66 0.65 33.0 0 1 807.72 379.46
  Q 825.85 387.55 843.32 397.06
  Z"
/>
<ellipse fill="#fefefe" cx="0.00" cy="0.00" transform="translate(709.92,424.25) rotate(-174.2)" rx="33.23" ry="30.34"/>
<path fill="#fbde17" d="
  M 828.85 419.67
  L 800.15 464.65
  Q 780.29 455.85 769.01 436.78
  L 791.25 401.61
  Q 804.66 401.48 815.38 409.10
  Q 822.23 413.97 828.85 419.67
  Z"
/>
<path fill="#fefefe" d="
  M 260.16 484.24
  A 0.31 0.31 0.0 0 1 259.97 483.77
  L 267.53 471.89
  A 0.99 0.98 28.6 0 1 268.78 471.53
  C 281.83 477.79 297.91 480.17 311.40 479.48
  C 316.27 479.24 332.81 476.98 328.31 468.88
  C 326.33 465.31 318.50 463.83 314.52 463.44
  Q 302.06 462.21 294.55 461.15
  Q 284.13 459.68 277.28 457.24
  C 267.61 453.80 260.53 446.61 264.43 435.66
  C 269.33 421.91 295.24 420.02 307.01 420.30
  Q 326.08 420.75 343.96 427.85
  A 0.48 0.48 0.0 0 1 344.19 428.55
  L 337.47 439.11
  A 0.55 0.55 0.0 0 1 336.72 439.29
  Q 334.69 438.10 333.30 437.66
  Q 319.76 433.32 311.23 432.59
  C 303.83 431.96 292.12 432.08 285.36 435.90
  C 282.31 437.62 280.69 440.39 283.89 443.12
  C 287.51 446.19 292.04 446.53 297.99 447.53
  C 303.94 448.52 311.91 448.75 316.59 449.35
  C 328.17 450.83 347.23 455.00 348.41 468.77
  C 349.53 481.86 339.20 487.52 328.24 490.24
  Q 311.64 494.35 296.67 492.55
  Q 288.69 491.60 287.26 491.40
  Q 275.64 489.78 262.39 484.94
  Q 261.16 484.49 260.16 484.24
  Z"
/>
<path fill="#fefefe" d="
  M 128.38 456.11
  L 128.38 444.85
  A 1.05 1.03 71.7 0 1 128.79 444.02
  Q 140.97 434.94 154.82 422.06
  A 1.96 1.94 23.3 0 1 156.15 421.54
  L 159.56 421.54
  A 0.41 0.40 0.0 0 1 159.97 421.94
  L 159.97 491.34
  A 0.54 0.53 0.0 0 1 159.43 491.87
  L 127.70 491.87
  A 0.88 0.84 -25.0 0 1 127.17 491.69
  L 88.95 460.55
  A 0.56 0.55 -70.3 0 0 88.05 460.98
  C 88.02 468.47 84.09 472.08 78.06 477.05
  Q 71.63 482.34 59.47 491.56
  A 0.35 0.35 0.0 0 1 58.91 491.28
  L 58.91 421.63
  A 0.62 0.61 0.0 0 1 59.53 421.02
  L 84.40 421.02
  A 1.38 1.38 0.0 0 1 85.27 421.33
  L 127.77 456.40
  A 0.37 0.37 0.0 0 0 128.38 456.11
  Z
  M 80.17 430.49
  A 0.40 0.40 0.0 0 0 79.92 430.40
  L 69.23 430.40
  A 0.40 0.40 0.0 0 0 68.83 430.80
  L 68.83 471.27
  A 0.40 0.40 0.0 0 0 69.51 471.56
  L 77.66 463.40
  A 0.40 0.40 0.0 0 0 77.78 463.11
  L 77.78 439.31
  A 0.40 0.40 0.0 0 1 78.43 439.00
  L 132.56 483.67
  A 0.40 0.40 0.0 0 0 132.81 483.76
  L 149.09 483.76
  A 0.40 0.40 0.0 0 0 149.49 483.36
  L 149.49 440.76
  A 0.40 0.40 0.0 0 0 148.82 440.46
  L 139.40 449.05
  A 0.40 0.40 0.0 0 0 139.27 449.35
  L 139.27 478.42
  A 0.40 0.40 0.0 0 1 138.62 478.73
  L 80.17 430.49
  Z"
/>
<path fill="#fefefe" d="
  M 176.98 421.30
  L 249.59 421.30
  A 0.31 0.31 0.0 0 1 249.90 421.61
  L 249.90 433.91
  A 0.31 0.31 0.0 0 1 249.59 434.22
  L 194.51 434.22
  A 0.31 0.31 0.0 0 0 194.20 434.53
  L 194.20 448.92
  A 0.31 0.31 0.0 0 0 194.51 449.23
  L 244.23 449.23
  A 0.31 0.31 0.0 0 1 244.54 449.54
  L 244.54 460.96
  A 0.31 0.31 0.0 0 1 244.23 461.27
  L 194.51 461.27
  A 0.31 0.31 0.0 0 0 194.20 461.58
  L 194.20 477.55
  A 0.31 0.31 0.0 0 0 194.51 477.86
  L 252.79 477.86
  A 0.31 0.31 0.0 0 1 253.10 478.17
  L 253.10 491.42
  A 0.31 0.31 0.0 0 1 252.79 491.73
  L 176.98 491.73
  A 0.31 0.31 0.0 0 1 176.67 491.42
  L 176.67 421.61
  A 0.31 0.31 0.0 0 1 176.98 421.30
  Z"
/>
<path fill="#fefefe" d="
  M 432.97 475.32
  L 382.11 475.32
  A 0.33 0.33 0.0 0 0 381.83 475.47
  L 371.49 491.72
  A 0.33 0.33 0.0 0 1 371.21 491.87
  L 351.91 491.87
  A 0.33 0.33 0.0 0 1 351.63 491.36
  L 396.08 421.55
  A 0.33 0.33 0.0 0 1 396.36 421.40
  L 419.73 421.40
  A 0.33 0.33 0.0 0 1 420.01 421.55
  L 464.25 491.58
  A 0.33 0.33 0.0 0 1 463.97 492.09
  L 443.92 492.09
  A 0.33 0.33 0.0 0 1 443.64 491.94
  L 433.25 475.47
  A 0.33 0.33 0.0 0 0 432.97 475.32
  Z
  M 389.23 462.81
  A 0.31 0.31 0.0 0 0 389.50 463.28
  L 425.42 463.10
  A 0.31 0.31 0.0 0 0 425.68 462.62
  L 407.57 434.74
  A 0.31 0.31 0.0 0 0 407.05 434.74
  L 389.23 462.81
  Z"
/>
<path fill="#fefefe" d="
  M 475.22 492.52
  A 0.39 0.39 0.0 0 1 474.61 492.20
  L 474.61 422.05
  A 0.57 0.57 0.0 0 1 475.17 421.48
  Q 500.58 421.26 539.35 421.43
  C 545.37 421.46 550.63 422.29 555.79 423.43
  C 565.26 425.51 574.08 431.86 571.98 442.92
  Q 570.24 452.03 559.95 455.18
  A 0.86 0.86 0.0 0 0 559.91 456.82
  C 567.71 459.57 574.51 463.09 574.96 472.52
  C 575.28 479.21 571.70 484.42 565.71 487.39
  Q 559.68 490.38 554.76 491.30
  C 551.15 491.99 544.86 492.14 539.72 492.15
  Q 514.05 492.21 494.40 492.01
  A 0.33 0.33 0.0 0 1 494.21 491.42
  C 496.02 490.09 497.63 489.04 499.62 487.17
  Q 501.81 485.11 516.66 470.18
  A 0.27 0.27 0.0 0 0 516.64 469.78
  L 508.57 463.12
  A 0.41 0.41 0.0 0 0 507.90 463.35
  C 506.41 470.27 501.89 473.70 495.79 478.83
  Q 491.87 482.12 487.92 484.27
  Q 485.07 485.83 475.22 492.52
  Z
  M 533.04 468.14
  L 519.46 481.71
  A 0.15 0.15 0.0 0 0 519.57 481.96
  Q 520.34 481.96 542.44 481.60
  C 547.29 481.52 555.19 480.53 557.38 475.78
  C 561.06 467.81 549.04 464.42 543.74 463.03
  Q 534.49 460.59 528.88 459.13
  A 0.80 0.78 -67.8 0 1 528.41 457.97
  Q 528.56 457.69 528.86 457.59
  Q 539.21 453.96 547.30 450.55
  C 552.78 448.24 559.51 443.97 555.40 437.43
  C 552.23 432.39 541.53 431.51 536.25 431.54
  Q 523.81 431.61 516.90 431.49
  A 0.44 0.44 0.0 0 0 516.62 432.27
  Q 523.62 438.05 530.25 444.25
  Q 531.67 445.57 534.10 447.02
  A 0.29 0.29 0.0 0 1 534.11 447.52
  Q 529.80 450.28 526.12 454.54
  A 0.56 0.55 -48.7 0 1 525.34 454.60
  L 499.32 431.71
  A 1.66 1.62 -23.9 0 0 498.24 431.31
  L 486.43 431.31
  A 0.41 0.41 0.0 0 0 486.02 431.72
  L 486.02 471.81
  A 0.47 0.47 0.0 0 0 486.77 472.18
  C 489.90 469.79 496.17 463.52 496.25 459.69
  Q 496.58 444.26 496.61 443.34
  A 0.65 0.64 -71.6 0 1 497.62 442.83
  L 533.00 467.73
  A 0.27 0.27 0.0 0 1 533.04 468.14
  Z"
/>
<path fill="#04040c" d="
  M 80.17 430.49
  L 138.62 478.73
  A 0.40 0.40 0.0 0 0 139.27 478.42
  L 139.27 449.35
  A 0.40 0.40 0.0 0 1 139.40 449.05
  L 148.82 440.46
  A 0.40 0.40 0.0 0 1 149.49 440.76
  L 149.49 483.36
  A 0.40 0.40 0.0 0 1 149.09 483.76
  L 132.81 483.76
  A 0.40 0.40 0.0 0 1 132.56 483.67
  L 78.43 439.00
  A 0.40 0.40 0.0 0 0 77.78 439.31
  L 77.78 463.11
  A 0.40 0.40 0.0 0 1 77.66 463.40
  L 69.51 471.56
  A 0.40 0.40 0.0 0 1 68.83 471.27
  L 68.83 430.80
  A 0.40 0.40 0.0 0 1 69.23 430.40
  L 79.92 430.40
  A 0.40 0.40 0.0 0 1 80.17 430.49
  Z"
/>
<path fill="#04040c" d="
  M 533.00 467.73
  L 497.62 442.83
  A 0.65 0.64 -71.6 0 0 496.61 443.34
  Q 496.58 444.26 496.25 459.69
  C 496.17 463.52 489.90 469.79 486.77 472.18
  A 0.47 0.47 0.0 0 1 486.02 471.81
  L 486.02 431.72
  A 0.41 0.41 0.0 0 1 486.43 431.31
  L 498.24 431.31
  A 1.66 1.62 -23.9 0 1 499.32 431.71
  L 525.34 454.60
  A 0.56 0.55 -48.7 0 0 526.12 454.54
  Q 529.80 450.28 534.11 447.52
  A 0.29 0.29 0.0 0 0 534.10 447.02
  Q 531.67 445.57 530.25 444.25
  Q 523.62 438.05 516.62 432.27
  A 0.44 0.44 0.0 0 1 516.90 431.49
  Q 523.81 431.61 536.25 431.54
  C 541.53 431.51 552.23 432.39 555.40 437.43
  C 559.51 443.97 552.78 448.24 547.30 450.55
  Q 539.21 453.96 528.86 457.59
  Q 528.56 457.69 528.41 457.97
  A 0.80 0.78 -67.8 0 0 528.88 459.13
  Q 534.49 460.59 543.74 463.03
  C 549.04 464.42 561.06 467.81 557.38 475.78
  C 555.19 480.53 547.29 481.52 542.44 481.60
  Q 520.34 481.96 519.57 481.96
  A 0.15 0.15 0.0 0 1 519.46 481.71
  L 533.04 468.14
  A 0.27 0.27 0.0 0 0 533.00 467.73
  Z"
/>
<path fill="#04040c" d="
  M 389.23 462.81
  L 407.05 434.74
  A 0.31 0.31 0.0 0 1 407.57 434.74
  L 425.68 462.62
  A 0.31 0.31 0.0 0 1 425.42 463.10
  L 389.50 463.28
  A 0.31 0.31 0.0 0 1 389.23 462.81
  Z"
/>
<path fill="#fbb02b" d="
  M 769.01 436.78
  Q 780.29 455.85 800.15 464.65
  L 782.86 491.88
  C 778.97 495.98 774.81 499.28 770.22 495.23
  Q 758.71 485.06 746.75 472.01
  L 769.01 436.78
  Z"
/>
<ellipse fill="#fefefe" cx="0.00" cy="0.00" transform="translate(851.66,488.78) rotate(-176.7)" rx="32.65" ry="30.09"/>
<path fill="#f58730" d="
  M 782.86 491.88
  L 753.11 538.93
  Q 733.97 530.87 717.75 517.60
  L 746.75 472.01
  Q 758.71 485.06 770.22 495.23
  C 774.81 499.28 778.97 495.98 782.86 491.88
  Z"
/>
<path fill="#e9292e" d="
  M 717.75 517.60
  Q 733.97 530.87 753.11 538.93
  Q 735.61 566.93 718.04 594.76
  Q 715.84 598.25 711.63 601.84
  C 701.64 610.36 691.63 612.06 678.26 611.61
  Q 666.85 611.23 659.10 611.16
  A 0.56 0.56 0.0 0 1 658.64 610.30
  L 717.75 517.60
  Z"
/>
</svg>
