<?xml version="1.0" encoding="UTF-8" standalone="no"?>
<!DOCTYPE svg PUBLIC "-//W3C//DTD SVG 1.1//EN" "http://www.w3.org/Graphics/SVG/1.1/DTD/svg11.dtd">
<svg xmlns="http://www.w3.org/2000/svg" version="1.1" viewBox="0.00 0.00 1280.00 853.00">
<g stroke-width="2.00" fill="none" stroke-linecap="butt">
<path stroke="#818185" vector-effect="non-scaling-stroke" d="
  M 635.03 319.08
  L 662.24 275.93
  A 0.76 0.75 -49.8 0 0 662.17 275.03
  Q 654.48 266.29 636.63 245.37
  Q 630.84 238.58 609.51 214.08
  Q 596.31 198.92 588.88 193.07
  Q 571.72 179.54 549.03 174.99
  Q 538.90 172.95 517.87 173.03
  Q 487.47 173.14 481.25 173.03
  C 469.01 172.81 455.48 175.19 446.91 184.97
  C 439.58 193.33 438.58 202.40 438.58 213.25
  Q 438.60 364.56 438.57 579.22
  A 0.61 0.61 0.0 0 0 439.17 579.83
  Q 451.73 580.16 459.22 579.38
  C 475.66 577.66 487.33 568.41 488.55 551.27
  Q 489.02 544.75 489.01 539.25
  Q 488.95 380.89 489.07 218.21
  A 0.51 0.50 -89.4 0 1 489.58 217.70
  Q 505.87 217.79 513.24 217.65
  Q 529.62 217.35 535.69 218.85
  Q 550.31 222.47 560.99 233.84
  Q 566.16 239.35 576.87 251.93
  Q 599.00 277.93 634.75 319.10
  A 0.18 0.17 -48.5 0 0 635.03 319.08"
/>
<path stroke="#084d2a" vector-effect="non-scaling-stroke" d="
  M 723.32 199.07
  L 703.21 231.94"
/>
<path stroke="#295f24" vector-effect="non-scaling-stroke" d="
  M 703.21 231.94
  L 687.08 258.50"
/>
<path stroke="#47691e" vector-effect="non-scaling-stroke" d="
  M 687.08 258.50
  L 654.41 312.23"
/>
<path stroke="#647518" vector-effect="non-scaling-stroke" d="
  M 654.41 312.23
  L 615.24 377.12"
/>
<path stroke="#7f5a17" vector-effect="non-scaling-stroke" d="
  M 615.24 377.12
  Q 614.29 377.98 613.62 379.53"
/>
<path stroke="#7d4019" vector-effect="non-scaling-stroke" d="
  M 613.62 379.53
  L 553.91 477.28"
/>
<path stroke="#6e0e14" vector-effect="non-scaling-stroke" d="
  M 553.91 477.28
  Q 532.57 512.53 510.83 547.55
  C 504.19 558.25 498.47 568.86 491.66 578.45
  A 0.45 0.45 0.0 0 0 492.03 579.16
  Q 509.32 579.23 524.75 579.14
  C 539.06 579.06 551.46 575.19 561.05 564.03
  Q 563.06 561.69 569.57 551.09
  Q 583.20 528.91 589.64 517.38"
/>
<path stroke="#7d4019" vector-effect="non-scaling-stroke" d="
  M 589.64 517.38
  Q 593.69 511.70 598.42 503.91
  Q 613.82 478.55 662.13 399.59"
/>
<path stroke="#7f5a17" vector-effect="non-scaling-stroke" d="
  M 662.13 399.59
  L 666.41 392.61"
/>
<path stroke="#7f7c0e" vector-effect="non-scaling-stroke" d="
  M 666.41 392.61
  L 687.95 357.55"
/>
<path stroke="#647518" vector-effect="non-scaling-stroke" d="
  M 687.95 357.55
  L 706.99 326.52"
/>
<path stroke="#47691e" vector-effect="non-scaling-stroke" d="
  M 706.99 326.52
  L 737.38 276.96"
/>
<path stroke="#295f24" vector-effect="non-scaling-stroke" d="
  M 737.38 276.96
  L 751.07 254.80"
/>
<path stroke="#084d2a" vector-effect="non-scaling-stroke" d="
  M 751.07 254.80
  L 770.06 223.39"
/>
<path stroke="#053a2b" vector-effect="non-scaling-stroke" d="
  M 770.06 223.39
  L 799.98 174.59
  A 0.69 0.69 0.0 0 0 799.41 173.54
  Q 783.98 173.07 765.38 173.48
  C 754.03 173.72 742.80 176.42 734.28 184.04
  Q 728.71 189.02 723.32 199.07"
/>
<path stroke="#098349" vector-effect="non-scaling-stroke" d="
  M 770.06 223.39
  Q 749.02 206.97 723.32 199.07"
/>
<path stroke="#2da842" vector-effect="non-scaling-stroke" d="
  M 751.07 254.80
  Q 726.09 245.67 703.21 231.94"
/>
<path stroke="#6cc436" vector-effect="non-scaling-stroke" d="
  M 737.38 276.96
  C 719.47 273.40 703.55 265.98 687.08 258.50"
/>
<path stroke="#a7da2a" vector-effect="non-scaling-stroke" d="
  M 706.99 326.52
  C 691.83 316.82 677.08 311.78 659.28 308.63
  A 0.97 0.96 -60.1 0 0 658.48 308.85
  L 654.41 312.23"
/>
<path stroke="#dfed19" vector-effect="non-scaling-stroke" d="
  M 687.95 357.55
  L 689.35 348.79
  A 1.02 1.02 0.0 0 0 688.73 347.68
  C 682.49 345.12 677.00 343.05 669.66 341.71
  Q 660.04 339.95 650.54 338.45
  Q 645.59 337.67 643.03 338.44
  Q 639.40 339.52 636.82 343.65
  Q 627.54 358.50 619.04 373.71"
/>
<path stroke="#dfcb23" vector-effect="non-scaling-stroke" d="
  M 619.04 373.71
  Q 617.15 376.47 615.24 377.12"
/>
<path stroke="#f79624" vector-effect="non-scaling-stroke" d="
  M 662.13 399.59
  Q 658.94 402.01 656.75 405.49
  Q 648.89 417.96 636.45 437.23
  Q 635.18 439.20 633.73 440.97
  A 0.59 0.59 0.0 0 1 632.97 441.09
  Q 613.44 428.94 595.03 415.41
  A 0.69 0.68 27.7 0 1 594.78 414.64
  Q 595.41 412.75 596.09 411.60
  Q 608.36 391.06 610.73 387.00
  Q 612.58 383.81 613.62 379.53"
/>
<path stroke="#f9d219" vector-effect="non-scaling-stroke" d="
  M 666.41 392.61
  Q 640.61 387.85 619.04 373.71"
/>
<path stroke="#e64a21" vector-effect="non-scaling-stroke" d="
  M 589.64 517.38
  Q 592.75 505.59 600.67 495.02
  Q 601.20 494.32 602.59 491.06
  A 0.51 0.51 0.0 0 0 602.33 490.39
  L 560.43 472.32
  A 1.42 1.41 34.8 0 0 558.91 472.59
  L 553.91 477.28"
/>
<path stroke="#818185" vector-effect="non-scaling-stroke" d="
  M 656.07 436.94
  L 627.56 482.16
  A 0.81 0.81 0.0 0 0 627.63 483.13
  Q 670.79 532.69 678.46 541.53
  C 695.59 561.26 717.98 574.89 744.04 578.87
  Q 755.97 580.69 760.01 580.80
  Q 763.49 580.90 793.56 580.93
  Q 804.22 580.94 809.88 580.11
  C 828.69 577.35 847.70 566.67 853.75 547.51
  Q 856.45 538.97 856.44 529.75
  Q 856.43 474.55 856.42 173.88
  A 0.54 0.54 0.0 0 0 855.89 173.34
  C 844.08 173.16 835.11 172.80 825.06 175.85
  Q 810.34 180.31 806.29 192.87
  Q 804.80 197.48 804.80 212.28
  Q 804.76 448.58 804.81 528.01
  C 804.81 531.80 802.34 532.99 798.73 532.88
  Q 791.13 532.65 776.39 532.82
  Q 760.72 533.00 754.13 531.55
  Q 741.89 528.88 731.44 521.26
  Q 725.43 516.88 714.15 503.62
  Q 690.49 475.82 656.43 436.91
  A 0.23 0.23 0.0 0 0 656.07 436.94"
/>
<path stroke="#818185" vector-effect="non-scaling-stroke" d="
  M 525.6856 333.2852
  A 40.60 39.06 -177.0 0 0 564.1858 374.4165
  A 40.60 39.06 -177.0 0 0 606.7744 337.5348
  A 40.60 39.06 -177.0 0 0 568.2742 296.4035
  A 40.60 39.06 -177.0 0 0 525.6856 333.2852"
/>
<path stroke="#818185" vector-effect="non-scaling-stroke" d="
  M 689.5640 418.9736
  A 40.74 38.97 -178.5 0 0 729.2699 458.9966
  A 40.74 38.97 -178.5 0 0 771.0160 421.1064
  A 40.74 38.97 -178.5 0 0 731.3101 381.0834
  A 40.74 38.97 -178.5 0 0 689.5640 418.9736"
/>
</g>
<path fill="#04040c" d="
  M 1280.00 0.00
  L 1280.00 853.00
  L 0.00 853.00
  L 0.00 0.00
  L 1280.00 0.00
  Z
  M 635.03 319.08
  L 662.24 275.93
  A 0.76 0.75 -49.8 0 0 662.17 275.03
  Q 654.48 266.29 636.63 245.37
  Q 630.84 238.58 609.51 214.08
  Q 596.31 198.92 588.88 193.07
  Q 571.72 179.54 549.03 174.99
  Q 538.90 172.95 517.87 173.03
  Q 487.47 173.14 481.25 173.03
  C 469.01 172.81 455.48 175.19 446.91 184.97
  C 439.58 193.33 438.58 202.40 438.58 213.25
  Q 438.60 364.56 438.57 579.22
  A 0.61 0.61 0.0 0 0 439.17 579.83
  Q 451.73 580.16 459.22 579.38
  C 475.66 577.66 487.33 568.41 488.55 551.27
  Q 489.02 544.75 489.01 539.25
  Q 488.95 380.89 489.07 218.21
  A 0.51 0.50 -89.4 0 1 489.58 217.70
  Q 505.87 217.79 513.24 217.65
  Q 529.62 217.35 535.69 218.85
  Q 550.31 222.47 560.99 233.84
  Q 566.16 239.35 576.87 251.93
  Q 599.00 277.93 634.75 319.10
  A 0.18 0.17 -48.5 0 0 635.03 319.08
  Z
  M 723.32 199.07
  L 703.21 231.94
  L 687.08 258.50
  L 654.41 312.23
  L 615.24 377.12
  Q 614.29 377.98 613.62 379.53
  L 553.91 477.28
  Q 532.57 512.53 510.83 547.55
  C 504.19 558.25 498.47 568.86 491.66 578.45
  A 0.45 0.45 0.0 0 0 492.03 579.16
  Q 509.32 579.23 524.75 579.14
  C 539.06 579.06 551.46 575.19 561.05 564.03
  Q 563.06 561.69 569.57 551.09
  Q 583.20 528.91 589.64 517.38
  Q 593.69 511.70 598.42 503.91
  Q 613.82 478.55 662.13 399.59
  L 666.41 392.61
  L 687.95 357.55
  L 706.99 326.52
  L 737.38 276.96
  L 751.07 254.80
  L 770.06 223.39
  L 799.98 174.59
  A 0.69 0.69 0.0 0 0 799.41 173.54
  Q 783.98 173.07 765.38 173.48
  C 754.03 173.72 742.80 176.42 734.28 184.04
  Q 728.71 189.02 723.32 199.07
  Z
  M 656.07 436.94
  L 627.56 482.16
  A 0.81 0.81 0.0 0 0 627.63 483.13
  Q 670.79 532.69 678.46 541.53
  C 695.59 561.26 717.98 574.89 744.04 578.87
  Q 755.97 580.69 760.01 580.80
  Q 763.49 580.90 793.56 580.93
  Q 804.22 580.94 809.88 580.11
  C 828.69 577.35 847.70 566.67 853.75 547.51
  Q 856.45 538.97 856.44 529.75
  Q 856.43 474.55 856.42 173.88
  A 0.54 0.54 0.0 0 0 855.89 173.34
  C 844.08 173.16 835.11 172.80 825.06 175.85
  Q 810.34 180.31 806.29 192.87
  Q 804.80 197.48 804.80 212.28
  Q 804.76 448.58 804.81 528.01
  C 804.81 531.80 802.34 532.99 798.73 532.88
  Q 791.13 532.65 776.39 532.82
  Q 760.72 533.00 754.13 531.55
  Q 741.89 528.88 731.44 521.26
  Q 725.43 516.88 714.15 503.62
  Q 690.49 475.82 656.43 436.91
  A 0.23 0.23 0.0 0 0 656.07 436.94
  Z
  M 525.6856 333.2852
  A 40.60 39.06 -177.0 0 0 564.1858 374.4165
  A 40.60 39.06 -177.0 0 0 606.7744 337.5348
  A 40.60 39.06 -177.0 0 0 568.2742 296.4035
  A 40.60 39.06 -177.0 0 0 525.6856 333.2852
  Z
  M 689.5640 418.9736
  A 40.74 38.97 -178.5 0 0 729.2699 458.9966
  A 40.74 38.97 -178.5 0 0 771.0160 421.1064
  A 40.74 38.97 -178.5 0 0 731.3101 381.0834
  A 40.74 38.97 -178.5 0 0 689.5640 418.9736
  Z"
/>
<path fill="#fefefe" d="
  M 635.03 319.08
  A 0.18 0.17 -48.5 0 1 634.75 319.10
  Q 599.00 277.93 576.87 251.93
  Q 566.16 239.35 560.99 233.84
  Q 550.31 222.47 535.69 218.85
  Q 529.62 217.35 513.24 217.65
  Q 505.87 217.79 489.58 217.70
  A 0.51 0.50 -89.4 0 0 489.07 218.21
  Q 488.95 380.89 489.01 539.25
  Q 489.02 544.75 488.55 551.27
  C 487.33 568.41 475.66 577.66 459.22 579.38
  Q 451.73 580.16 439.17 579.83
  A 0.61 0.61 0.0 0 1 438.57 579.22
  Q 438.60 364.56 438.58 213.25
  C 438.58 202.40 439.58 193.33 446.91 184.97
  C 455.48 175.19 469.01 172.81 481.25 173.03
  Q 487.47 173.14 517.87 173.03
  Q 538.90 172.95 549.03 174.99
  Q 571.72 179.54 588.88 193.07
  Q 596.31 198.92 609.51 214.08
  Q 630.84 238.58 636.63 245.37
  Q 654.48 266.29 662.17 275.03
  A 0.76 0.75 -49.8 0 1 662.24 275.93
  L 635.03 319.08
  Z"
/>
<path fill="#056f49" d="
  M 770.06 223.39
  Q 749.02 206.97 723.32 199.07
  Q 728.71 189.02 734.28 184.04
  C 742.80 176.42 754.03 173.72 765.38 173.48
  Q 783.98 173.07 799.41 173.54
  A 0.69 0.69 0.0 0 1 799.98 174.59
  L 770.06 223.39
  Z"
/>
<path fill="#fefefe" d="
  M 656.07 436.94
  A 0.23 0.23 0.0 0 1 656.43 436.91
  Q 690.49 475.82 714.15 503.62
  Q 725.43 516.88 731.44 521.26
  Q 741.89 528.88 754.13 531.55
  Q 760.72 533.00 776.39 532.82
  Q 791.13 532.65 798.73 532.88
  C 802.34 532.99 804.81 531.80 804.81 528.01
  Q 804.76 448.58 804.80 212.28
  Q 804.80 197.48 806.29 192.87
  Q 810.34 180.31 825.06 175.85
  C 835.11 172.80 844.08 173.16 855.89 173.34
  A 0.54 0.54 0.0 0 1 856.42 173.88
  Q 856.43 474.55 856.44 529.75
  Q 856.45 538.97 853.75 547.51
  C 847.70 566.67 828.69 577.35 809.88 580.11
  Q 804.22 580.94 793.56 580.93
  Q 763.49 580.90 760.01 580.80
  Q 755.97 580.69 744.04 578.87
  C 717.98 574.89 695.59 561.26 678.46 541.53
  Q 670.79 532.69 627.63 483.13
  A 0.81 0.81 0.0 0 1 627.56 482.16
  L 656.07 436.94
  Z"
/>
<path fill="#0c9648" d="
  M 723.32 199.07
  Q 749.02 206.97 770.06 223.39
  L 751.07 254.80
  Q 726.09 245.67 703.21 231.94
  L 723.32 199.07
  Z"
/>
<path fill="#4db93c" d="
  M 703.21 231.94
  Q 726.09 245.67 751.07 254.80
  L 737.38 276.96
  C 719.47 273.40 703.55 265.98 687.08 258.50
  L 703.21 231.94
  Z"
/>
<path fill="#8ace30" d="
  M 737.38 276.96
  L 706.99 326.52
  C 691.83 316.82 677.08 311.78 659.28 308.63
  A 0.97 0.96 -60.1 0 0 658.48 308.85
  L 654.41 312.23
  L 687.08 258.50
  C 703.55 265.98 719.47 273.40 737.38 276.96
  Z"
/>
<ellipse fill="#fefefe" cx="0.00" cy="0.00" transform="translate(566.23,335.41) rotate(-177.0)" rx="40.60" ry="39.06"/>
<path fill="#c4e623" d="
  M 706.99 326.52
  L 687.95 357.55
  L 689.35 348.79
  A 1.02 1.02 0.0 0 0 688.73 347.68
  C 682.49 345.12 677.00 343.05 669.66 341.71
  Q 660.04 339.95 650.54 338.45
  Q 645.59 337.67 643.03 338.44
  Q 639.40 339.52 636.82 343.65
  Q 627.54 358.50 619.04 373.71
  Q 617.15 376.47 615.24 377.12
  L 654.41 312.23
  L 658.48 308.85
  A 0.97 0.96 -60.1 0 1 659.28 308.63
  C 677.08 311.78 691.83 316.82 706.99 326.52
  Z"
/>
<path fill="#f9f40f" d="
  M 687.95 357.55
  L 666.41 392.61
  Q 640.61 387.85 619.04 373.71
  Q 627.54 358.50 636.82 343.65
  Q 639.40 339.52 643.03 338.44
  Q 645.59 337.67 650.54 338.45
  Q 660.04 339.95 669.66 341.71
  C 677.00 343.05 682.49 345.12 688.73 347.68
  A 1.02 1.02 0.0 0 1 689.35 348.79
  L 687.95 357.55
  Z"
/>
<path fill="#f9af22" d="
  M 619.04 373.71
  Q 640.61 387.85 666.41 392.61
  L 662.13 399.59
  Q 658.94 402.01 656.75 405.49
  Q 648.89 417.96 636.45 437.23
  Q 635.18 439.20 633.73 440.97
  A 0.59 0.59 0.0 0 1 632.97 441.09
  Q 613.44 428.94 595.03 415.41
  A 0.69 0.68 27.7 0 1 594.78 414.64
  Q 595.41 412.75 596.09 411.60
  Q 608.36 391.06 610.73 387.00
  Q 612.58 383.81 613.62 379.53
  Q 614.29 377.98 615.24 377.12
  Q 617.15 376.47 619.04 373.71
  Z"
/>
<path fill="#f57c26" d="
  M 613.62 379.53
  Q 612.58 383.81 610.73 387.00
  Q 608.36 391.06 596.09 411.60
  Q 595.41 412.75 594.78 414.64
  A 0.69 0.68 27.7 0 0 595.03 415.41
  Q 613.44 428.94 632.97 441.09
  A 0.59 0.59 0.0 0 0 633.73 440.97
  Q 635.18 439.20 636.45 437.23
  Q 648.89 417.96 656.75 405.49
  Q 658.94 402.01 662.13 399.59
  Q 613.82 478.55 598.42 503.91
  Q 593.69 511.70 589.64 517.38
  Q 592.75 505.59 600.67 495.02
  Q 601.20 494.32 602.59 491.06
  A 0.51 0.51 0.0 0 0 602.33 490.39
  L 560.43 472.32
  A 1.42 1.41 34.8 0 0 558.91 472.59
  L 553.91 477.28
  L 613.62 379.53
  Z"
/>
<ellipse fill="#fefefe" cx="0.00" cy="0.00" transform="translate(730.29,420.04) rotate(-178.5)" rx="40.74" ry="38.97"/>
<path fill="#d7171c" d="
  M 589.64 517.38
  Q 583.20 528.91 569.57 551.09
  Q 563.06 561.69 561.05 564.03
  C 551.46 575.19 539.06 579.06 524.75 579.14
  Q 509.32 579.23 492.03 579.16
  A 0.45 0.45 0.0 0 1 491.66 578.45
  C 498.47 568.86 504.19 558.25 510.83 547.55
  Q 532.57 512.53 553.91 477.28
  L 558.91 472.59
  A 1.42 1.41 34.8 0 1 560.43 472.32
  L 602.33 490.39
  A 0.51 0.51 0.0 0 1 602.59 491.06
  Q 601.20 494.32 600.67 495.02
  Q 592.75 505.59 589.64 517.38
  Z"
/>
</svg>
