<?xml version="1.0" encoding="UTF-8" standalone="no"?>
<!DOCTYPE svg PUBLIC "-//W3C//DTD SVG 1.1//EN" "http://www.w3.org/Graphics/SVG/1.1/DTD/svg11.dtd">
<svg xmlns="http://www.w3.org/2000/svg" version="1.1" viewBox="0.00 0.00 1280.00 853.00">
<g stroke-width="2.00" fill="none" stroke-linecap="butt">
<path stroke="#9ad6a3" vector-effect="non-scaling-stroke" d="
  M 718.29 206.84
  L 696.14 242.90"
/>
<path stroke="#c0e29f" vector-effect="non-scaling-stroke" d="
  M 696.14 242.90
  L 651.42 315.91"
/>
<path stroke="#fef385" vector-effect="non-scaling-stroke" d="
  M 651.42 315.91
  L 606.37 389.41"
/>
<path stroke="#faca90" vector-effect="non-scaling-stroke" d="
  M 606.37 389.41
  L 566.46 454.23"
/>
<path stroke="#f8ae93" vector-effect="non-scaling-stroke" d="
  M 566.46 454.23
  L 558.22 467.71"
/>
<path stroke="#f39094" vector-effect="non-scaling-stroke" d="
  M 558.22 467.71
  L 491.64 576.31
  A 0.29 0.28 15.9 0 0 491.88 576.74
  Q 512.88 577.05 526.76 576.70
  C 541.69 576.32 555.80 569.54 563.86 556.63
  Q 583.06 525.86 602.13 494.67"
/>
<path stroke="#f8ae93" vector-effect="non-scaling-stroke" d="
  M 602.13 494.67
  L 612.38 478.22"
/>
<path stroke="#faca90" vector-effect="non-scaling-stroke" d="
  M 612.38 478.22
  L 651.82 414.05"
/>
<path stroke="#fef385" vector-effect="non-scaling-stroke" d="
  M 651.82 414.05
  L 703.32 330.35"
/>
<path stroke="#c0e29f" vector-effect="non-scaling-stroke" d="
  M 703.32 330.35
  L 740.37 270.37"
/>
<path stroke="#9ad6a3" vector-effect="non-scaling-stroke" d="
  M 740.37 270.37
  L 764.41 231.21"
/>
<path stroke="#83c8a5" vector-effect="non-scaling-stroke" d="
  M 764.41 231.21
  L 797.73 176.99
  A 0.46 0.46 0.0 0 0 797.34 176.29
  Q 779.75 176.19 761.26 176.35
  Q 741.23 176.52 729.12 190.48
  C 725.41 194.76 721.68 201.36 718.29 206.84"
/>
<path stroke="#1e9e49" vector-effect="non-scaling-stroke" d="
  M 764.41 231.21
  L 718.29 206.84"
/>
<path stroke="#5bb843" vector-effect="non-scaling-stroke" d="
  M 740.37 270.37
  Q 716.98 258.90 696.14 242.90"
/>
<path stroke="#bfd525" vector-effect="non-scaling-stroke" d="
  M 703.32 330.35
  Q 678.88 318.47 651.42 315.91"
/>
<path stroke="#f9bd16" vector-effect="non-scaling-stroke" d="
  M 651.82 414.05
  Q 627.95 404.17 606.37 389.41"
/>
<path stroke="#f37823" vector-effect="non-scaling-stroke" d="
  M 612.38 478.22
  Q 589.92 465.35 566.46 454.23"
/>
<path stroke="#ec3f28" vector-effect="non-scaling-stroke" d="
  M 602.13 494.67
  Q 578.02 484.56 558.22 467.71"
/>
<path stroke="#888787" vector-effect="non-scaling-stroke" d="
  M 489.33 220.29
  Q 517.17 220.22 526.93 220.44
  Q 541.51 220.76 553.54 229.26
  Q 558.04 232.45 565.76 241.16
  Q 572.26 248.50 577.01 254.00
  Q 614.86 297.84 633.23 318.60
  A 0.65 0.64 40.5 0 0 634.26 318.52
  L 660.64 277.06
  A 1.41 1.40 41.1 0 0 660.52 275.38
  Q 632.32 242.42 601.18 207.31
  Q 581.03 184.57 550.30 178.32
  Q 540.61 176.35 519.88 176.47
  Q 487.96 176.67 480.61 176.53
  C 469.49 176.33 461.26 177.42 452.51 183.26
  C 442.85 189.71 438.80 200.68 438.79 212.00
  Q 438.68 470.28 438.73 576.34
  A 0.71 0.70 0.8 0 0 439.42 577.04
  C 452.51 577.27 468.83 578.43 479.16 568.73
  C 487.26 561.13 488.57 551.10 488.58 540.50
  Q 488.60 352.69 488.69 220.93
  A 0.64 0.64 0.0 0 1 489.33 220.29"
/>
<path stroke="#888787" vector-effect="non-scaling-stroke" d="
  M 655.01 436.00
  L 626.89 480.19
  A 1.03 1.02 -49.6 0 0 626.98 481.41
  Q 652.13 509.70 669.14 529.55
  Q 683.57 546.39 690.85 552.53
  Q 719.92 577.05 760.30 577.97
  Q 787.66 578.60 800.73 578.24
  C 826.73 577.53 853.07 561.17 853.11 532.49
  Q 853.18 482.13 853.15 177.08
  A 0.40 0.39 1.5 0 0 852.77 176.69
  C 836.82 175.97 812.37 175.20 805.42 193.92
  Q 803.06 200.25 803.05 208.50
  Q 802.90 344.94 802.99 524.72
  C 803.00 528.22 802.42 531.06 798.50 531.13
  Q 789.38 531.30 763.28 531.01
  C 752.40 530.89 739.99 526.88 730.67 519.83
  Q 723.99 514.78 722.13 512.61
  C 691.54 477.10 677.55 460.70 655.59 435.96
  A 0.36 0.36 0.0 0 0 655.01 436.00"
/>
<path stroke="#888787" vector-effect="non-scaling-stroke" d="
  M 525.6446 333.3777
  A 40.17 38.54 -177.3 0 0 563.9545 373.7672
  A 40.17 38.54 -177.3 0 0 605.8954 337.1623
  A 40.17 38.54 -177.3 0 0 567.5855 296.7728
  A 40.17 38.54 -177.3 0 0 525.6446 333.3777"
/>
<path stroke="#888787" vector-effect="non-scaling-stroke" d="
  M 769.5478 417.4535
  A 40.31 38.42 -1.9 0 0 727.9862 380.3911
  A 40.31 38.42 -1.9 0 0 688.9722 420.1265
  A 40.31 38.42 -1.9 0 0 730.5338 457.1889
  A 40.31 38.42 -1.9 0 0 769.5478 417.4535"
/>
</g>
<path fill="#ffffff" d="
  M 1280.00 0.00
  L 1280.00 853.00
  L 0.00 853.00
  L 0.00 0.00
  L 1280.00 0.00
  Z
  M 718.29 206.84
  L 696.14 242.90
  L 651.42 315.91
  L 606.37 389.41
  L 566.46 454.23
  L 558.22 467.71
  L 491.64 576.31
  A 0.29 0.28 15.9 0 0 491.88 576.74
  Q 512.88 577.05 526.76 576.70
  C 541.69 576.32 555.80 569.54 563.86 556.63
  Q 583.06 525.86 602.13 494.67
  L 612.38 478.22
  L 651.82 414.05
  L 703.32 330.35
  L 740.37 270.37
  L 764.41 231.21
  L 797.73 176.99
  A 0.46 0.46 0.0 0 0 797.34 176.29
  Q 779.75 176.19 761.26 176.35
  Q 741.23 176.52 729.12 190.48
  C 725.41 194.76 721.68 201.36 718.29 206.84
  Z
  M 489.33 220.29
  Q 517.17 220.22 526.93 220.44
  Q 541.51 220.76 553.54 229.26
  Q 558.04 232.45 565.76 241.16
  Q 572.26 248.50 577.01 254.00
  Q 614.86 297.84 633.23 318.60
  A 0.65 0.64 40.5 0 0 634.26 318.52
  L 660.64 277.06
  A 1.41 1.40 41.1 0 0 660.52 275.38
  Q 632.32 242.42 601.18 207.31
  Q 581.03 184.57 550.30 178.32
  Q 540.61 176.35 519.88 176.47
  Q 487.96 176.67 480.61 176.53
  C 469.49 176.33 461.26 177.42 452.51 183.26
  C 442.85 189.71 438.80 200.68 438.79 212.00
  Q 438.68 470.28 438.73 576.34
  A 0.71 0.70 0.8 0 0 439.42 577.04
  C 452.51 577.27 468.83 578.43 479.16 568.73
  C 487.26 561.13 488.57 551.10 488.58 540.50
  Q 488.60 352.69 488.69 220.93
  A 0.64 0.64 0.0 0 1 489.33 220.29
  Z
  M 655.01 436.00
  L 626.89 480.19
  A 1.03 1.02 -49.6 0 0 626.98 481.41
  Q 652.13 509.70 669.14 529.55
  Q 683.57 546.39 690.85 552.53
  Q 719.92 577.05 760.30 577.97
  Q 787.66 578.60 800.73 578.24
  C 826.73 577.53 853.07 561.17 853.11 532.49
  Q 853.18 482.13 853.15 177.08
  A 0.40 0.39 1.5 0 0 852.77 176.69
  C 836.82 175.97 812.37 175.20 805.42 193.92
  Q 803.06 200.25 803.05 208.50
  Q 802.90 344.94 802.99 524.72
  C 803.00 528.22 802.42 531.06 798.50 531.13
  Q 789.38 531.30 763.28 531.01
  C 752.40 530.89 739.99 526.88 730.67 519.83
  Q 723.99 514.78 722.13 512.61
  C 691.54 477.10 677.55 460.70 655.59 435.96
  A 0.36 0.36 0.0 0 0 655.01 436.00
  Z
  M 525.6446 333.3777
  A 40.17 38.54 -177.3 0 0 563.9545 373.7672
  A 40.17 38.54 -177.3 0 0 605.8954 337.1623
  A 40.17 38.54 -177.3 0 0 567.5855 296.7728
  A 40.17 38.54 -177.3 0 0 525.6446 333.3777
  Z
  M 769.5478 417.4535
  A 40.31 38.42 -1.9 0 0 727.9862 380.3911
  A 40.31 38.42 -1.9 0 0 688.9722 420.1265
  A 40.31 38.42 -1.9 0 0 730.5338 457.1889
  A 40.31 38.42 -1.9 0 0 769.5478 417.4535
  Z"
/>
<path fill="#07904a" d="
  M 764.41 231.21
  L 718.29 206.84
  C 721.68 201.36 725.41 194.76 729.12 190.48
  Q 741.23 176.52 761.26 176.35
  Q 779.75 176.19 797.34 176.29
  A 0.46 0.46 0.0 0 1 797.73 176.99
  L 764.41 231.21
  Z"
/>
<path fill="#100e0f" d="
  M 488.69 220.93
  Q 488.60 352.69 488.58 540.50
  C 488.57 551.10 487.26 561.13 479.16 568.73
  C 468.83 578.43 452.51 577.27 439.42 577.04
  A 0.71 0.70 0.8 0 1 438.73 576.34
  Q 438.68 470.28 438.79 212.00
  C 438.80 200.68 442.85 189.71 452.51 183.26
  C 461.26 177.42 469.49 176.33 480.61 176.53
  Q 487.96 176.67 519.88 176.47
  Q 540.61 176.35 550.30 178.32
  Q 581.03 184.57 601.18 207.31
  Q 632.32 242.42 660.52 275.38
  A 1.41 1.40 41.1 0 1 660.64 277.06
  L 634.26 318.52
  A 0.65 0.64 40.5 0 1 633.23 318.60
  Q 614.86 297.84 577.01 254.00
  Q 572.26 248.50 565.76 241.16
  Q 558.04 232.45 553.54 229.26
  Q 541.51 220.76 526.93 220.44
  Q 517.17 220.22 489.33 220.29
  A 0.64 0.64 0.0 0 0 488.69 220.93
  Z"
/>
<path fill="#100e0f" d="
  M 655.01 436.00
  A 0.36 0.36 0.0 0 1 655.59 435.96
  C 677.55 460.70 691.54 477.10 722.13 512.61
  Q 723.99 514.78 730.67 519.83
  C 739.99 526.88 752.40 530.89 763.28 531.01
  Q 789.38 531.30 798.50 531.13
  C 802.42 531.06 803.00 528.22 802.99 524.72
  Q 802.90 344.94 803.05 208.50
  Q 803.06 200.25 805.42 193.92
  C 812.37 175.20 836.82 175.97 852.77 176.69
  A 0.40 0.39 1.5 0 1 853.15 177.08
  Q 853.18 482.13 853.11 532.49
  C 853.07 561.17 826.73 577.53 800.73 578.24
  Q 787.66 578.60 760.30 577.97
  Q 719.92 577.05 690.85 552.53
  Q 683.57 546.39 669.14 529.55
  Q 652.13 509.70 626.98 481.41
  A 1.03 1.02 -49.6 0 1 626.89 480.19
  L 655.01 436.00
  Z"
/>
<path fill="#35ac47" d="
  M 764.41 231.21
  L 740.37 270.37
  Q 716.98 258.90 696.14 242.90
  L 718.29 206.84
  L 764.41 231.21
  Z"
/>
<path fill="#80c43e" d="
  M 696.14 242.90
  Q 716.98 258.90 740.37 270.37
  L 703.32 330.35
  Q 678.88 318.47 651.42 315.91
  L 696.14 242.90
  Z"
/>
<ellipse fill="#100e0f" cx="0.00" cy="0.00" transform="translate(565.77,335.27) rotate(-177.3)" rx="40.17" ry="38.54"/>
<path fill="#fde60b" d="
  M 703.32 330.35
  L 651.82 414.05
  Q 627.95 404.17 606.37 389.41
  L 651.42 315.91
  Q 678.88 318.47 703.32 330.35
  Z"
/>
<ellipse fill="#100e0f" cx="0.00" cy="0.00" transform="translate(729.26,418.79) rotate(-1.9)" rx="40.31" ry="38.42"/>
<path fill="#f59420" d="
  M 606.37 389.41
  Q 627.95 404.17 651.82 414.05
  L 612.38 478.22
  Q 589.92 465.35 566.46 454.23
  L 606.37 389.41
  Z"
/>
<path fill="#f05c26" d="
  M 612.38 478.22
  L 602.13 494.67
  Q 578.02 484.56 558.22 467.71
  L 566.46 454.23
  Q 589.92 465.35 612.38 478.22
  Z"
/>
<path fill="#e72129" d="
  M 558.22 467.71
  Q 578.02 484.56 602.13 494.67
  Q 583.06 525.86 563.86 556.63
  C 555.80 569.54 541.69 576.32 526.76 576.70
  Q 512.88 577.05 491.88 576.74
  A 0.29 0.28 15.9 0 1 491.64 576.31
  L 558.22 467.71
  Z"
/>
</svg>
