<?xml version="1.0" encoding="UTF-8" standalone="no"?>
<!DOCTYPE svg PUBLIC "-//W3C//DTD SVG 1.1//EN" "http://www.w3.org/Graphics/SVG/1.1/DTD/svg11.dtd">
<svg xmlns="http://www.w3.org/2000/svg" version="1.1" viewBox="0.00 0.00 1280.00 853.00">
<g stroke-width="2.00" fill="none" stroke-linecap="butt">
<path stroke="#808080" vector-effect="non-scaling-stroke" d="
  M 450.21 98.74
  Q 450.24 98.75 503.49 98.70
  Q 515.11 98.69 523.65 103.03
  Q 529.35 105.93 536.47 113.31
  Q 540.75 117.75 549.74 128.75
  Q 589.45 177.31 621.93 218.46
  A 0.43 0.42 -48.7 0 0 622.63 218.41
  L 651.39 170.02
  A 1.30 1.30 0.0 0 0 651.28 168.54
  Q 621.85 132.28 587.20 91.05
  C 573.67 74.94 558.87 62.26 539.00 54.67
  C 533.95 52.74 528.34 51.52 523.46 50.35
  Q 514.62 48.23 502.50 48.15
  Q 485.72 48.05 443.25 48.19
  Q 436.37 48.21 431.31 49.59
  C 427.55 50.61 422.46 52.02 418.67 53.80
  Q 401.76 61.75 394.91 79.10
  C 393.49 82.69 392.22 85.80 392.22 88.75
  Q 392.24 448.66 392.21 508.25
  Q 392.20 523.83 392.31 530.75
  A 0.63 0.62 89.5 0 0 392.93 531.37
  Q 396.78 531.40 410.10 531.23
  C 416.10 531.15 423.04 530.00 427.43 528.44
  C 436.65 525.17 446.02 516.96 448.10 506.80
  Q 449.37 500.59 449.38 494.25
  Q 449.43 431.68 449.48 108.50
  Q 449.48 100.19 449.56 99.29
  A 0.61 0.60 4.3 0 1 450.21 98.74"
/>
<path stroke="#87b38d" vector-effect="non-scaling-stroke" d="
  M 723.06 90.19
  L 678.39 168.00"
/>
<path stroke="#9ecf8c" vector-effect="non-scaling-stroke" d="
  M 678.39 168.00
  L 641.46 231.88"
/>
<path stroke="#d0dd85" vector-effect="non-scaling-stroke" d="
  M 641.46 231.88
  L 613.30 279.83"
/>
<path stroke="#e1cb81" vector-effect="non-scaling-stroke" d="
  M 613.30 279.83
  L 584.44 329.66"
/>
<path stroke="#eab181" vector-effect="non-scaling-stroke" d="
  M 584.44 329.66
  L 544.49 397.51"
/>
<path stroke="#e79581" vector-effect="non-scaling-stroke" d="
  M 544.49 397.51
  C 539.65 405.44 534.88 414.15 530.46 421.49
  Q 516.97 443.87 503.94 467.01
  Q 503.54 467.70 496.47 479.97
  Q 482.78 503.71 468.05 529.68
  A 0.44 0.44 0.0 0 0 468.38 530.34
  C 473.99 531.05 482.53 530.76 498.49 530.72
  Q 510.76 530.69 518.99 527.00
  Q 532.28 521.04 540.98 507.24
  Q 547.55 496.81 555.43 482.43
  Q 557.15 479.31 575.49 448.23
  Q 579.50 441.43 583.30 434.48"
/>
<path stroke="#eab181" vector-effect="non-scaling-stroke" d="
  M 583.30 434.48
  L 645.08 329.54"
/>
<path stroke="#e1cb81" vector-effect="non-scaling-stroke" d="
  M 645.08 329.54
  L 671.76 284.24"
/>
<path stroke="#d0dd85" vector-effect="non-scaling-stroke" d="
  M 671.76 284.24
  L 706.81 225.05"
/>
<path stroke="#9ecf8c" vector-effect="non-scaling-stroke" d="
  M 706.81 225.05
  L 741.61 165.95"
/>
<path stroke="#87b38d" vector-effect="non-scaling-stroke" d="
  M 741.61 165.95
  L 787.04 88.56"
/>
<path stroke="#819588" vector-effect="non-scaling-stroke" d="
  M 787.04 88.56
  L 809.63 49.67
  A 0.55 0.55 0.0 0 0 809.16 48.84
  Q 788.31 48.93 785.85 48.93
  C 774.34 48.91 765.86 49.93 756.88 52.89
  C 746.22 56.41 738.90 63.94 732.77 73.52
  Q 727.67 81.49 723.06 90.19"
/>
<path stroke="#094916" vector-effect="non-scaling-stroke" d="
  M 787.04 88.56
  Q 755.05 86.11 723.06 90.19"
/>
<path stroke="#26831a" vector-effect="non-scaling-stroke" d="
  M 741.61 165.95
  Q 710.00 168.54 678.39 168.00"
/>
<path stroke="#6fad11" vector-effect="non-scaling-stroke" d="
  M 706.81 225.05
  Q 674.36 230.54 641.46 231.88"
/>
<path stroke="#b2a907" vector-effect="non-scaling-stroke" d="
  M 671.76 284.24
  Q 642.68 280.39 613.30 279.83"
/>
<path stroke="#cb7d03" vector-effect="non-scaling-stroke" d="
  M 645.08 329.54
  Q 614.77 328.50 584.44 329.66"
/>
<path stroke="#d14702" vector-effect="non-scaling-stroke" d="
  M 583.30 434.48
  Q 582.21 434.86 581.48 435.46
  A 0.12 0.12 0.0 0 1 581.30 435.30
  Q 593.31 416.68 603.38 397.65
  A 0.92 0.91 -45.9 0 0 603.37 396.78
  C 601.66 393.72 597.70 394.15 594.79 394.56
  Q 577.25 397.03 574.05 397.25
  Q 559.21 398.27 544.49 397.51"
/>
<path stroke="#808080" vector-effect="non-scaling-stroke" d="
  M 876.70 49.02
  C 861.87 48.52 847.20 48.34 835.03 54.35
  Q 823.56 60.01 820.05 71.04
  Q 818.46 76.05 818.46 88.14
  Q 818.54 296.69 818.50 456.75
  Q 818.50 464.36 818.22 469.97
  C 817.71 480.42 807.15 479.55 799.75 479.52
  Q 780.38 479.43 763.92 479.47
  C 756.98 479.48 747.68 478.79 741.46 477.06
  Q 730.16 473.91 720.64 466.26
  Q 710.84 458.38 704.44 450.22
  Q 681.24 420.70 647.78 379.16
  Q 645.64 376.50 643.70 374.53
  A 0.49 0.48 38.1 0 0 642.94 374.62
  L 613.05 424.93
  A 1.56 1.54 -49.3 0 0 613.17 426.69
  C 622.89 438.80 634.07 452.03 643.56 463.91
  Q 658.66 482.80 666.76 492.24
  C 682.90 511.03 704.36 524.16 728.79 529.21
  Q 744.93 532.55 758.76 532.62
  Q 765.59 532.66 790.51 532.62
  C 807.15 532.59 816.46 532.75 829.16 529.18
  Q 854.30 522.13 867.92 500.67
  C 873.97 491.14 876.33 478.49 876.80 467.27
  Q 877.09 460.47 877.09 435.52
  Q 877.08 198.90 877.19 49.52
  A 0.50 0.50 0.0 0 0 876.70 49.02"
/>
<path stroke="#808080" vector-effect="non-scaling-stroke" d="
  M 491.5668 240.4620
  A 44.03 42.86 -176.2 0 0 532.6595 286.1458
  A 44.03 42.86 -176.2 0 0 579.4332 246.2980
  A 44.03 42.86 -176.2 0 0 538.3405 200.6142
  A 44.03 42.86 -176.2 0 0 491.5668 240.4620"
/>
<path stroke="#808080" vector-effect="non-scaling-stroke" d="
  M 688.3267 335.8396
  A 44.36 43.04 -175.5 0 0 729.1731 382.2273
  A 44.36 43.04 -175.5 0 0 776.7733 342.8004
  A 44.36 43.04 -175.5 0 0 735.9269 296.4127
  A 44.36 43.04 -175.5 0 0 688.3267 335.8396"
/>
<path stroke="#808080" vector-effect="non-scaling-stroke" d="
  M 655.47 617.90
  Q 638.63 611.65 622.26 609.46
  Q 598.51 606.27 577.59 613.39
  Q 569.27 616.22 563.76 621.51
  C 558.51 626.55 557.31 634.70 560.56 641.57
  Q 564.23 649.33 571.54 652.76
  Q 579.24 656.37 589.42 658.15
  C 599.05 659.83 610.13 660.99 621.97 662.31
  C 626.99 662.87 632.96 664.77 636.63 668.30
  A 3.05 2.93 -82.0 0 1 637.23 669.13
  Q 640.56 676.00 633.90 678.83
  Q 629.30 680.79 626.39 681.17
  Q 594.37 685.39 565.25 672.53
  A 0.68 0.68 0.0 0 0 564.41 672.77
  L 554.85 686.91
  A 0.27 0.27 0.0 0 0 554.95 687.30
  C 562.54 691.25 568.56 692.81 577.63 694.82
  Q 599.53 699.68 623.59 697.77
  Q 631.24 697.16 635.34 696.06
  C 642.18 694.23 648.36 692.47 654.19 687.67
  C 661.00 682.07 663.34 671.97 660.07 664.03
  C 656.38 655.08 645.88 649.94 636.69 648.06
  C 624.58 645.58 614.42 644.26 599.60 642.43
  C 594.98 641.86 577.42 638.22 583.14 630.06
  Q 584.57 628.04 587.75 626.95
  C 598.66 623.21 610.51 622.67 621.50 624.99
  Q 632.58 627.34 634.17 627.63
  C 638.44 628.42 641.41 630.03 645.68 632.00
  A 0.79 0.78 31.9 0 0 646.61 631.79
  Q 651.68 625.69 655.71 618.58
  A 0.48 0.47 -65.0 0 0 655.47 617.90"
/>
<path stroke="#808080" vector-effect="non-scaling-stroke" d="
  M 392.42 655.35
  L 340.55 610.63
  A 3.00 2.99 -24.6 0 0 338.60 609.91
  L 309.13 609.91
  A 0.40 0.39 0.0 0 0 308.73 610.30
  L 308.55 697.10
  A 3.29 2.55 -56.2 0 0 308.58 697.53
  L 308.61 697.68
  A 0.24 0.24 0.0 0 0 308.99 697.83
  Q 324.97 685.94 336.90 675.94
  C 342.85 670.95 343.50 666.39 344.62 658.84
  A 0.26 0.26 0.0 0 1 345.04 658.68
  L 388.96 696.54
  A 4.39 4.37 -24.5 0 0 391.82 697.60
  L 430.97 697.60
  A 0.32 0.31 0.0 0 0 431.29 697.29
  Q 431.39 663.74 431.42 613.51
  Q 431.43 610.20 431.17 609.83
  A 0.46 0.45 -37.0 0 0 430.50 609.74
  L 393.64 640.81
  A 1.25 1.23 70.6 0 0 393.19 641.77
  L 393.19 654.99
  A 0.47 0.47 0.0 0 1 392.42 655.35"
/>
<path stroke="#808080" vector-effect="non-scaling-stroke" d="
  M 474.25 644.42
  A 0.60 0.60 0.0 0 1 473.65 643.82
  L 473.65 626.28
  A 0.60 0.60 0.0 0 1 474.25 625.68
  L 542.05 625.68
  A 0.60 0.60 0.0 0 0 542.65 625.08
  L 542.65 610.54
  A 0.60 0.60 0.0 0 0 542.05 609.94
  L 453.19 609.94
  A 0.60 0.60 0.0 0 0 452.59 610.54
  L 452.59 696.98
  A 0.60 0.60 0.0 0 0 453.19 697.58
  L 546.03 697.58
  A 0.60 0.60 0.0 0 0 546.63 696.98
  L 546.63 681.64
  A 0.60 0.60 0.0 0 0 546.03 681.04
  L 474.14 681.04
  A 0.60 0.60 0.0 0 1 473.54 680.44
  L 473.54 660.26
  A 0.60 0.60 0.0 0 1 474.14 659.66
  L 535.38 659.66
  A 0.60 0.60 0.0 0 0 535.98 659.06
  L 535.98 645.02
  A 0.60 0.60 0.0 0 0 535.38 644.42
  L 474.25 644.42"
/>
<path stroke="#808080" vector-effect="non-scaling-stroke" d="
  M 721.50 610.01
  A 0.73 0.73 0.0 0 0 720.88 610.36
  L 667.88 696.55
  A 0.73 0.73 0.0 0 0 668.51 697.66
  L 691.93 697.66
  A 0.73 0.73 0.0 0 0 692.56 697.30
  L 703.88 678.26
  A 0.73 0.73 0.0 0 1 704.51 677.90
  L 767.99 677.90
  A 0.73 0.73 0.0 0 1 768.61 678.24
  L 780.84 697.33
  A 0.73 0.73 0.0 0 0 781.46 697.67
  L 804.73 697.67
  A 0.73 0.73 0.0 0 0 805.35 696.55
  L 750.08 610.35
  A 0.73 0.73 0.0 0 0 749.46 610.01
  L 721.50 610.01"
/>
<path stroke="#808080" vector-effect="non-scaling-stroke" d="
  M 928.28 652.45
  C 935.48 650.21 942.68 644.91 943.74 637.00
  C 945.82 621.58 932.77 613.42 919.03 611.73
  Q 906.99 610.26 904.25 610.24
  Q 843.50 609.90 820.81 609.94
  A 0.80 0.79 -0.0 0 0 820.01 610.73
  L 820.01 698.02
  A 0.87 0.87 0.0 0 0 821.37 698.74
  Q 841.15 685.39 844.28 683.27
  C 852.33 677.79 860.09 671.15 862.82 661.93
  A 0.79 0.79 0.0 0 1 864.08 661.55
  L 873.77 669.62
  A 0.71 0.70 43.4 0 1 873.80 670.67
  L 845.80 697.44
  A 0.12 0.12 0.0 0 0 845.89 697.64
  Q 888.67 697.75 906.74 697.55
  C 921.05 697.39 946.59 694.99 947.97 675.55
  Q 948.81 663.70 939.31 658.19
  Q 933.59 654.87 928.27 653.02
  A 0.30 0.30 0.0 0 1 928.28 652.45"
/>
<path stroke="#808080" vector-effect="non-scaling-stroke" d="
  M 405.34 682.48
  L 335.31 622.12
  A 3.66 3.65 65.4 0 0 332.92 621.23
  L 321.19 621.23
  A 0.30 0.30 0.0 0 0 320.89 621.53
  L 320.89 671.66
  A 0.52 0.52 0.0 0 0 321.73 672.07
  C 326.28 668.56 331.41 664.93 332.41 659.09
  Q 332.50 658.56 332.52 649.94
  Q 332.53 644.55 332.57 633.53
  A 0.51 0.50 -69.9 0 1 333.40 633.14
  Q 347.44 645.14 351.97 648.88
  Q 354.82 651.23 356.42 652.74
  C 360.20 656.35 364.04 659.16 367.68 662.38
  Q 386.77 679.27 395.02 686.28
  Q 397.94 688.76 399.53 688.78
  Q 410.07 688.89 417.92 688.86
  A 0.61 0.61 0.0 0 0 418.53 688.25
  Q 418.65 665.03 418.58 644.75
  Q 418.57 640.50 418.02 637.22
  A 0.39 0.39 0.0 0 0 417.38 636.98
  L 407.73 645.12
  A 4.21 4.18 -20.1 0 0 406.23 648.33
  L 406.23 682.07
  A 0.54 0.54 0.0 0 1 405.34 682.48"
/>
<path stroke="#808080" vector-effect="non-scaling-stroke" d="
  M 735.85 626.10
  A 1.01 1.01 0.0 0 0 734.13 626.13
  L 713.15 661.46
  A 1.01 1.01 0.0 0 0 714.01 662.99
  L 757.66 662.99
  A 1.01 1.01 0.0 0 0 758.51 661.43
  L 735.85 626.10"
/>
<path stroke="#808080" vector-effect="non-scaling-stroke" d="
  M 873.23 623.01
  L 894.58 640.81
  A 0.63 0.63 0.0 0 1 894.58 641.77
  L 885.09 649.77
  A 0.84 0.84 0.0 0 1 884.01 649.77
  L 851.55 622.71
  A 1.80 1.77 -25.0 0 0 850.42 622.31
  L 835.96 622.31
  A 0.55 0.55 0.0 0 0 835.41 622.86
  L 835.37 672.91
  A 0.12 0.09 35.8 0 0 835.39 672.97
  Q 835.57 673.18 835.58 673.20
  A 0.55 0.55 0.0 0 0 836.37 673.44
  C 841.37 670.33 848.94 662.67 848.93 656.24
  Q 848.91 646.36 848.80 636.02
  A 0.45 0.45 0.0 0 1 849.52 635.65
  L 894.19 668.03
  A 0.79 0.78 42.9 0 1 894.24 669.26
  L 876.70 684.04
  A 0.58 0.58 0.0 0 0 876.89 685.03
  Q 877.57 685.26 879.02 685.27
  C 893.12 685.40 903.73 685.91 915.00 683.74
  C 919.67 682.83 923.38 681.67 925.68 677.89
  C 928.46 673.31 925.43 668.72 921.00 666.76
  Q 915.04 664.12 910.79 662.85
  C 903.43 660.66 897.95 658.19 890.55 656.23
  A 0.41 0.41 0.0 0 1 890.52 655.45
  Q 903.94 650.62 915.17 645.86
  C 919.29 644.11 922.92 642.03 924.66 637.72
  C 926.18 633.96 923.37 628.89 920.32 627.20
  Q 914.51 623.99 905.59 623.12
  C 893.91 621.97 881.82 622.66 873.44 622.45
  A 0.32 0.32 0.0 0 0 873.23 623.01"
/>
</g>
<path fill="#ffffff" d="
  M 1280.00 0.00
  L 1280.00 853.00
  L 0.00 853.00
  L 0.00 0.00
  L 1280.00 0.00
  Z
  M 450.21 98.74
  Q 450.24 98.75 503.49 98.70
  Q 515.11 98.69 523.65 103.03
  Q 529.35 105.93 536.47 113.31
  Q 540.75 117.75 549.74 128.75
  Q 589.45 177.31 621.93 218.46
  A 0.43 0.42 -48.7 0 0 622.63 218.41
  L 651.39 170.02
  A 1.30 1.30 0.0 0 0 651.28 168.54
  Q 621.85 132.28 587.20 91.05
  C 573.67 74.94 558.87 62.26 539.00 54.67
  C 533.95 52.74 528.34 51.52 523.46 50.35
  Q 514.62 48.23 502.50 48.15
  Q 485.72 48.05 443.25 48.19
  Q 436.37 48.21 431.31 49.59
  C 427.55 50.61 422.46 52.02 418.67 53.80
  Q 401.76 61.75 394.91 79.10
  C 393.49 82.69 392.22 85.80 392.22 88.75
  Q 392.24 448.66 392.21 508.25
  Q 392.20 523.83 392.31 530.75
  A 0.63 0.62 89.5 0 0 392.93 531.37
  Q 396.78 531.40 410.10 531.23
  C 416.10 531.15 423.04 530.00 427.43 528.44
  C 436.65 525.17 446.02 516.96 448.10 506.80
  Q 449.37 500.59 449.38 494.25
  Q 449.43 431.68 449.48 108.50
  Q 449.48 100.19 449.56 99.29
  A 0.61 0.60 4.3 0 1 450.21 98.74
  Z
  M 723.06 90.19
  L 678.39 168.00
  L 641.46 231.88
  L 613.30 279.83
  L 584.44 329.66
  L 544.49 397.51
  C 539.65 405.44 534.88 414.15 530.46 421.49
  Q 516.97 443.87 503.94 467.01
  Q 503.54 467.70 496.47 479.97
  Q 482.78 503.71 468.05 529.68
  A 0.44 0.44 0.0 0 0 468.38 530.34
  C 473.99 531.05 482.53 530.76 498.49 530.72
  Q 510.76 530.69 518.99 527.00
  Q 532.28 521.04 540.98 507.24
  Q 547.55 496.81 555.43 482.43
  Q 557.15 479.31 575.49 448.23
  Q 579.50 441.43 583.30 434.48
  L 645.08 329.54
  L 671.76 284.24
  L 706.81 225.05
  L 741.61 165.95
  L 787.04 88.56
  L 809.63 49.67
  A 0.55 0.55 0.0 0 0 809.16 48.84
  Q 788.31 48.93 785.85 48.93
  C 774.34 48.91 765.86 49.93 756.88 52.89
  C 746.22 56.41 738.90 63.94 732.77 73.52
  Q 727.67 81.49 723.06 90.19
  Z
  M 876.70 49.02
  C 861.87 48.52 847.20 48.34 835.03 54.35
  Q 823.56 60.01 820.05 71.04
  Q 818.46 76.05 818.46 88.14
  Q 818.54 296.69 818.50 456.75
  Q 818.50 464.36 818.22 469.97
  C 817.71 480.42 807.15 479.55 799.75 479.52
  Q 780.38 479.43 763.92 479.47
  C 756.98 479.48 747.68 478.79 741.46 477.06
  Q 730.16 473.91 720.64 466.26
  Q 710.84 458.38 704.44 450.22
  Q 681.24 420.70 647.78 379.16
  Q 645.64 376.50 643.70 374.53
  A 0.49 0.48 38.1 0 0 642.94 374.62
  L 613.05 424.93
  A 1.56 1.54 -49.3 0 0 613.17 426.69
  C 622.89 438.80 634.07 452.03 643.56 463.91
  Q 658.66 482.80 666.76 492.24
  C 682.90 511.03 704.36 524.16 728.79 529.21
  Q 744.93 532.55 758.76 532.62
  Q 765.59 532.66 790.51 532.62
  C 807.15 532.59 816.46 532.75 829.16 529.18
  Q 854.30 522.13 867.92 500.67
  C 873.97 491.14 876.33 478.49 876.80 467.27
  Q 877.09 460.47 877.09 435.52
  Q 877.08 198.90 877.19 49.52
  A 0.50 0.50 0.0 0 0 876.70 49.02
  Z
  M 491.5668 240.4620
  A 44.03 42.86 -176.2 0 0 532.6595 286.1458
  A 44.03 42.86 -176.2 0 0 579.4332 246.2980
  A 44.03 42.86 -176.2 0 0 538.3405 200.6142
  A 44.03 42.86 -176.2 0 0 491.5668 240.4620
  Z
  M 688.3267 335.8396
  A 44.36 43.04 -175.5 0 0 729.1731 382.2273
  A 44.36 43.04 -175.5 0 0 776.7733 342.8004
  A 44.36 43.04 -175.5 0 0 735.9269 296.4127
  A 44.36 43.04 -175.5 0 0 688.3267 335.8396
  Z
  M 655.47 617.90
  Q 638.63 611.65 622.26 609.46
  Q 598.51 606.27 577.59 613.39
  Q 569.27 616.22 563.76 621.51
  C 558.51 626.55 557.31 634.70 560.56 641.57
  Q 564.23 649.33 571.54 652.76
  Q 579.24 656.37 589.42 658.15
  C 599.05 659.83 610.13 660.99 621.97 662.31
  C 626.99 662.87 632.96 664.77 636.63 668.30
  A 3.05 2.93 -82.0 0 1 637.23 669.13
  Q 640.56 676.00 633.90 678.83
  Q 629.30 680.79 626.39 681.17
  Q 594.37 685.39 565.25 672.53
  A 0.68 0.68 0.0 0 0 564.41 672.77
  L 554.85 686.91
  A 0.27 0.27 0.0 0 0 554.95 687.30
  C 562.54 691.25 568.56 692.81 577.63 694.82
  Q 599.53 699.68 623.59 697.77
  Q 631.24 697.16 635.34 696.06
  C 642.18 694.23 648.36 692.47 654.19 687.67
  C 661.00 682.07 663.34 671.97 660.07 664.03
  C 656.38 655.08 645.88 649.94 636.69 648.06
  C 624.58 645.58 614.42 644.26 599.60 642.43
  C 594.98 641.86 577.42 638.22 583.14 630.06
  Q 584.57 628.04 587.75 626.95
  C 598.66 623.21 610.51 622.67 621.50 624.99
  Q 632.58 627.34 634.17 627.63
  C 638.44 628.42 641.41 630.03 645.68 632.00
  A 0.79 0.78 31.9 0 0 646.61 631.79
  Q 651.68 625.69 655.71 618.58
  A 0.48 0.47 -65.0 0 0 655.47 617.90
  Z
  M 392.42 655.35
  L 340.55 610.63
  A 3.00 2.99 -24.6 0 0 338.60 609.91
  L 309.13 609.91
  A 0.40 0.39 0.0 0 0 308.73 610.30
  L 308.55 697.10
  A 3.29 2.55 -56.2 0 0 308.58 697.53
  L 308.61 697.68
  A 0.24 0.24 0.0 0 0 308.99 697.83
  Q 324.97 685.94 336.90 675.94
  C 342.85 670.95 343.50 666.39 344.62 658.84
  A 0.26 0.26 0.0 0 1 345.04 658.68
  L 388.96 696.54
  A 4.39 4.37 -24.5 0 0 391.82 697.60
  L 430.97 697.60
  A 0.32 0.31 0.0 0 0 431.29 697.29
  Q 431.39 663.74 431.42 613.51
  Q 431.43 610.20 431.17 609.83
  A 0.46 0.45 -37.0 0 0 430.50 609.74
  L 393.64 640.81
  A 1.25 1.23 70.6 0 0 393.19 641.77
  L 393.19 654.99
  A 0.47 0.47 0.0 0 1 392.42 655.35
  Z
  M 474.25 644.42
  A 0.60 0.60 0.0 0 1 473.65 643.82
  L 473.65 626.28
  A 0.60 0.60 0.0 0 1 474.25 625.68
  L 542.05 625.68
  A 0.60 0.60 0.0 0 0 542.65 625.08
  L 542.65 610.54
  A 0.60 0.60 0.0 0 0 542.05 609.94
  L 453.19 609.94
  A 0.60 0.60 0.0 0 0 452.59 610.54
  L 452.59 696.98
  A 0.60 0.60 0.0 0 0 453.19 697.58
  L 546.03 697.58
  A 0.60 0.60 0.0 0 0 546.63 696.98
  L 546.63 681.64
  A 0.60 0.60 0.0 0 0 546.03 681.04
  L 474.14 681.04
  A 0.60 0.60 0.0 0 1 473.54 680.44
  L 473.54 660.26
  A 0.60 0.60 0.0 0 1 474.14 659.66
  L 535.38 659.66
  A 0.60 0.60 0.0 0 0 535.98 659.06
  L 535.98 645.02
  A 0.60 0.60 0.0 0 0 535.38 644.42
  L 474.25 644.42
  Z
  M 721.50 610.01
  A 0.73 0.73 0.0 0 0 720.88 610.36
  L 667.88 696.55
  A 0.73 0.73 0.0 0 0 668.51 697.66
  L 691.93 697.66
  A 0.73 0.73 0.0 0 0 692.56 697.30
  L 703.88 678.26
  A 0.73 0.73 0.0 0 1 704.51 677.90
  L 767.99 677.90
  A 0.73 0.73 0.0 0 1 768.61 678.24
  L 780.84 697.33
  A 0.73 0.73 0.0 0 0 781.46 697.67
  L 804.73 697.67
  A 0.73 0.73 0.0 0 0 805.35 696.55
  L 750.08 610.35
  A 0.73 0.73 0.0 0 0 749.46 610.01
  L 721.50 610.01
  Z
  M 928.28 652.45
  C 935.48 650.21 942.68 644.91 943.74 637.00
  C 945.82 621.58 932.77 613.42 919.03 611.73
  Q 906.99 610.26 904.25 610.24
  Q 843.50 609.90 820.81 609.94
  A 0.80 0.79 -0.0 0 0 820.01 610.73
  L 820.01 698.02
  A 0.87 0.87 0.0 0 0 821.37 698.74
  Q 841.15 685.39 844.28 683.27
  C 852.33 677.79 860.09 671.15 862.82 661.93
  A 0.79 0.79 0.0 0 1 864.08 661.55
  L 873.77 669.62
  A 0.71 0.70 43.4 0 1 873.80 670.67
  L 845.80 697.44
  A 0.12 0.12 0.0 0 0 845.89 697.64
  Q 888.67 697.75 906.74 697.55
  C 921.05 697.39 946.59 694.99 947.97 675.55
  Q 948.81 663.70 939.31 658.19
  Q 933.59 654.87 928.27 653.02
  A 0.30 0.30 0.0 0 1 928.28 652.45
  Z"
/>
<path fill="#000000" d="
  M 450.21 98.74
  A 0.61 0.60 4.3 0 0 449.56 99.29
  Q 449.48 100.19 449.48 108.50
  Q 449.43 431.68 449.38 494.25
  Q 449.37 500.59 448.10 506.80
  C 446.02 516.96 436.65 525.17 427.43 528.44
  C 423.04 530.00 416.10 531.15 410.10 531.23
  Q 396.78 531.40 392.93 531.37
  A 0.63 0.62 89.5 0 1 392.31 530.75
  Q 392.20 523.83 392.21 508.25
  Q 392.24 448.66 392.22 88.75
  C 392.22 85.80 393.49 82.69 394.91 79.10
  Q 401.76 61.75 418.67 53.80
  C 422.46 52.02 427.55 50.61 431.31 49.59
  Q 436.37 48.21 443.25 48.19
  Q 485.72 48.05 502.50 48.15
  Q 514.62 48.23 523.46 50.35
  C 528.34 51.52 533.95 52.74 539.00 54.67
  C 558.87 62.26 573.67 74.94 587.20 91.05
  Q 621.85 132.28 651.28 168.54
  A 1.30 1.30 0.0 0 1 651.39 170.02
  L 622.63 218.41
  A 0.43 0.42 -48.7 0 1 621.93 218.46
  Q 589.45 177.31 549.74 128.75
  Q 540.75 117.75 536.47 113.31
  Q 529.35 105.93 523.65 103.03
  Q 515.11 98.69 503.49 98.70
  Q 450.24 98.75 450.21 98.74
  Z"
/>
<path fill="#022b11" d="
  M 787.04 88.56
  Q 755.05 86.11 723.06 90.19
  Q 727.67 81.49 732.77 73.52
  C 738.90 63.94 746.22 56.41 756.88 52.89
  C 765.86 49.93 774.34 48.91 785.85 48.93
  Q 788.31 48.93 809.16 48.84
  A 0.55 0.55 0.0 0 1 809.63 49.67
  L 787.04 88.56
  Z"
/>
<path fill="#000000" d="
  M 877.19 49.52
  Q 877.08 198.90 877.09 435.52
  Q 877.09 460.47 876.80 467.27
  C 876.33 478.49 873.97 491.14 867.92 500.67
  Q 854.30 522.13 829.16 529.18
  C 816.46 532.75 807.15 532.59 790.51 532.62
  Q 765.59 532.66 758.76 532.62
  Q 744.93 532.55 728.79 529.21
  C 704.36 524.16 682.90 511.03 666.76 492.24
  Q 658.66 482.80 643.56 463.91
  C 634.07 452.03 622.89 438.80 613.17 426.69
  A 1.56 1.54 -49.3 0 1 613.05 424.93
  L 642.94 374.62
  A 0.49 0.48 38.1 0 1 643.70 374.53
  Q 645.64 376.50 647.78 379.16
  Q 681.24 420.70 704.44 450.22
  Q 710.84 458.38 720.64 466.26
  Q 730.16 473.91 741.46 477.06
  C 747.68 478.79 756.98 479.48 763.92 479.47
  Q 780.38 479.43 799.75 479.52
  C 807.15 479.55 817.71 480.42 818.22 469.97
  Q 818.50 464.36 818.50 456.75
  Q 818.54 296.69 818.46 88.14
  Q 818.46 76.05 820.05 71.04
  Q 823.56 60.01 835.03 54.35
  C 847.20 48.34 861.87 48.52 876.70 49.02
  A 0.50 0.50 0.0 0 1 877.19 49.52
  Z"
/>
<path fill="#0f661b" d="
  M 787.04 88.56
  L 741.61 165.95
  Q 710.00 168.54 678.39 168.00
  L 723.06 90.19
  Q 755.05 86.11 787.04 88.56
  Z"
/>
<path fill="#3d9f18" d="
  M 741.61 165.95
  L 706.81 225.05
  Q 674.36 230.54 641.46 231.88
  L 678.39 168.00
  Q 710.00 168.54 741.61 165.95
  Z"
/>
<ellipse fill="#000000" cx="0.00" cy="0.00" transform="translate(535.50,243.38) rotate(-176.2)" rx="44.03" ry="42.86"/>
<path fill="#a1bb0a" d="
  M 706.81 225.05
  L 671.76 284.24
  Q 642.68 280.39 613.30 279.83
  L 641.46 231.88
  Q 674.36 230.54 706.81 225.05
  Z"
/>
<path fill="#c29603" d="
  M 613.30 279.83
  Q 642.68 280.39 671.76 284.24
  L 645.08 329.54
  Q 614.77 328.50 584.44 329.66
  L 613.30 279.83
  Z"
/>
<ellipse fill="#000000" cx="0.00" cy="0.00" transform="translate(732.55,339.32) rotate(-175.5)" rx="44.36" ry="43.04"/>
<path fill="#d46302" d="
  M 645.08 329.54
  L 583.30 434.48
  Q 582.21 434.86 581.48 435.46
  A 0.12 0.12 0.0 0 1 581.30 435.30
  Q 593.31 416.68 603.38 397.65
  A 0.92 0.91 -45.9 0 0 603.37 396.78
  C 601.66 393.72 597.70 394.15 594.79 394.56
  Q 577.25 397.03 574.05 397.25
  Q 559.21 398.27 544.49 397.51
  L 584.44 329.66
  Q 614.77 328.50 645.08 329.54
  Z"
/>
<path fill="#ce2b02" d="
  M 583.30 434.48
  Q 579.50 441.43 575.49 448.23
  Q 557.15 479.31 555.43 482.43
  Q 547.55 496.81 540.98 507.24
  Q 532.28 521.04 518.99 527.00
  Q 510.76 530.69 498.49 530.72
  C 482.53 530.76 473.99 531.05 468.38 530.34
  A 0.44 0.44 0.0 0 1 468.05 529.68
  Q 482.78 503.71 496.47 479.97
  Q 503.54 467.70 503.94 467.01
  Q 516.97 443.87 530.46 421.49
  C 534.88 414.15 539.65 405.44 544.49 397.51
  Q 559.21 398.27 574.05 397.25
  Q 577.25 397.03 594.79 394.56
  C 597.70 394.15 601.66 393.72 603.37 396.78
  A 0.92 0.91 -45.9 0 1 603.38 397.65
  Q 593.31 416.68 581.30 435.30
  A 0.12 0.12 0.0 0 0 581.48 435.46
  Q 582.21 434.86 583.30 434.48
  Z"
/>
<path fill="#000000" d="
  M 655.47 617.90
  A 0.48 0.47 -65.0 0 1 655.71 618.58
  Q 651.68 625.69 646.61 631.79
  A 0.79 0.78 31.9 0 1 645.68 632.00
  C 641.41 630.03 638.44 628.42 634.17 627.63
  Q 632.58 627.34 621.50 624.99
  C 610.51 622.67 598.66 623.21 587.75 626.95
  Q 584.57 628.04 583.14 630.06
  C 577.42 638.22 594.98 641.86 599.60 642.43
  C 614.42 644.26 624.58 645.58 636.69 648.06
  C 645.88 649.94 656.38 655.08 660.07 664.03
  C 663.34 671.97 661.00 682.07 654.19 687.67
  C 648.36 692.47 642.18 694.23 635.34 696.06
  Q 631.24 697.16 623.59 697.77
  Q 599.53 699.68 577.63 694.82
  C 568.56 692.81 562.54 691.25 554.95 687.30
  A 0.27 0.27 0.0 0 1 554.85 686.91
  L 564.41 672.77
  A 0.68 0.68 0.0 0 1 565.25 672.53
  Q 594.37 685.39 626.39 681.17
  Q 629.30 680.79 633.90 678.83
  Q 640.56 676.00 637.23 669.13
  A 3.05 2.93 -82.0 0 0 636.63 668.30
  C 632.96 664.77 626.99 662.87 621.97 662.31
  C 610.13 660.99 599.05 659.83 589.42 658.15
  Q 579.24 656.37 571.54 652.76
  Q 564.23 649.33 560.56 641.57
  C 557.31 634.70 558.51 626.55 563.76 621.51
  Q 569.27 616.22 577.59 613.39
  Q 598.51 606.27 622.26 609.46
  Q 638.63 611.65 655.47 617.90
  Z"
/>
<path fill="#000000" d="
  M 392.42 655.35
  A 0.47 0.47 0.0 0 0 393.19 654.99
  L 393.19 641.77
  A 1.25 1.23 70.6 0 1 393.64 640.81
  L 430.50 609.74
  A 0.46 0.45 -37.0 0 1 431.17 609.83
  Q 431.43 610.20 431.42 613.51
  Q 431.39 663.74 431.29 697.29
  A 0.32 0.31 -0.0 0 1 430.97 697.60
  L 391.82 697.60
  A 4.39 4.37 -24.5 0 1 388.96 696.54
  L 345.04 658.68
  A 0.26 0.26 0.0 0 0 344.62 658.84
  C 343.50 666.39 342.85 670.95 336.90 675.94
  Q 324.97 685.94 308.99 697.83
  A 0.24 0.24 0.0 0 1 308.61 697.68
  L 308.58 697.53
  A 3.29 2.55 -56.2 0 1 308.55 697.10
  L 308.73 610.30
  A 0.40 0.39 -0.0 0 1 309.13 609.91
  L 338.60 609.91
  A 3.00 2.99 -24.6 0 1 340.55 610.63
  L 392.42 655.35
  Z
  M 405.34 682.48
  L 335.31 622.12
  A 3.66 3.65 65.4 0 0 332.92 621.23
  L 321.19 621.23
  A 0.30 0.30 0.0 0 0 320.89 621.53
  L 320.89 671.66
  A 0.52 0.52 0.0 0 0 321.73 672.07
  C 326.28 668.56 331.41 664.93 332.41 659.09
  Q 332.50 658.56 332.52 649.94
  Q 332.53 644.55 332.57 633.53
  A 0.51 0.50 -69.9 0 1 333.40 633.14
  Q 347.44 645.14 351.97 648.88
  Q 354.82 651.23 356.42 652.74
  C 360.20 656.35 364.04 659.16 367.68 662.38
  Q 386.77 679.27 395.02 686.28
  Q 397.94 688.76 399.53 688.78
  Q 410.07 688.89 417.92 688.86
  A 0.61 0.61 0.0 0 0 418.53 688.25
  Q 418.65 665.03 418.58 644.75
  Q 418.57 640.50 418.02 637.22
  A 0.39 0.39 0.0 0 0 417.38 636.98
  L 407.73 645.12
  A 4.21 4.18 -20.1 0 0 406.23 648.33
  L 406.23 682.07
  A 0.54 0.54 0.0 0 1 405.34 682.48
  Z"
/>
<path fill="#000000" d="
  M 474.25 644.42
  L 535.38 644.42
  A 0.60 0.60 0.0 0 1 535.98 645.02
  L 535.98 659.06
  A 0.60 0.60 0.0 0 1 535.38 659.66
  L 474.14 659.66
  A 0.60 0.60 0.0 0 0 473.54 660.26
  L 473.54 680.44
  A 0.60 0.60 0.0 0 0 474.14 681.04
  L 546.03 681.04
  A 0.60 0.60 0.0 0 1 546.63 681.64
  L 546.63 696.98
  A 0.60 0.60 0.0 0 1 546.03 697.58
  L 453.19 697.58
  A 0.60 0.60 0.0 0 1 452.59 696.98
  L 452.59 610.54
  A 0.60 0.60 0.0 0 1 453.19 609.94
  L 542.05 609.94
  A 0.60 0.60 0.0 0 1 542.65 610.54
  L 542.65 625.08
  A 0.60 0.60 0.0 0 1 542.05 625.68
  L 474.25 625.68
  A 0.60 0.60 0.0 0 0 473.65 626.28
  L 473.65 643.82
  A 0.60 0.60 0.0 0 0 474.25 644.42
  Z"
/>
<path fill="#000000" d="
  M 721.50 610.01
  L 749.46 610.01
  A 0.73 0.73 0.0 0 1 750.08 610.35
  L 805.35 696.55
  A 0.73 0.73 0.0 0 1 804.73 697.67
  L 781.46 697.67
  A 0.73 0.73 0.0 0 1 780.84 697.33
  L 768.61 678.24
  A 0.73 0.73 0.0 0 0 767.99 677.90
  L 704.51 677.90
  A 0.73 0.73 0.0 0 0 703.88 678.26
  L 692.56 697.30
  A 0.73 0.73 0.0 0 1 691.93 697.66
  L 668.51 697.66
  A 0.73 0.73 0.0 0 1 667.88 696.55
  L 720.88 610.36
  A 0.73 0.73 0.0 0 1 721.50 610.01
  Z
  M 735.85 626.10
  A 1.01 1.01 0.0 0 0 734.13 626.13
  L 713.15 661.46
  A 1.01 1.01 0.0 0 0 714.01 662.99
  L 757.66 662.99
  A 1.01 1.01 0.0 0 0 758.51 661.43
  L 735.85 626.10
  Z"
/>
<path fill="#000000" d="
  M 928.28 652.45
  A 0.30 0.30 0.0 0 0 928.27 653.02
  Q 933.59 654.87 939.31 658.19
  Q 948.81 663.70 947.97 675.55
  C 946.59 694.99 921.05 697.39 906.74 697.55
  Q 888.67 697.75 845.89 697.64
  A 0.12 0.12 0.0 0 1 845.80 697.44
  L 873.80 670.67
  A 0.71 0.70 43.4 0 0 873.77 669.62
  L 864.08 661.55
  A 0.79 0.79 0.0 0 0 862.82 661.93
  C 860.09 671.15 852.33 677.79 844.28 683.27
  Q 841.15 685.39 821.37 698.74
  A 0.87 0.87 0.0 0 1 820.01 698.02
  L 820.01 610.73
  A 0.80 0.79 0.0 0 1 820.81 609.94
  Q 843.50 609.90 904.25 610.24
  Q 906.99 610.26 919.03 611.73
  C 932.77 613.42 945.82 621.58 943.74 637.00
  C 942.68 644.91 935.48 650.21 928.28 652.45
  Z
  M 873.23 623.01
  L 894.58 640.81
  A 0.63 0.63 0.0 0 1 894.58 641.77
  L 885.09 649.77
  A 0.84 0.84 0.0 0 1 884.01 649.77
  L 851.55 622.71
  A 1.80 1.77 -25.0 0 0 850.42 622.31
  L 835.96 622.31
  A 0.55 0.55 0.0 0 0 835.41 622.86
  L 835.37 672.91
  A 0.12 0.09 35.8 0 0 835.39 672.97
  Q 835.57 673.18 835.58 673.20
  A 0.55 0.55 0.0 0 0 836.37 673.44
  C 841.37 670.33 848.94 662.67 848.93 656.24
  Q 848.91 646.36 848.80 636.02
  A 0.45 0.45 0.0 0 1 849.52 635.65
  L 894.19 668.03
  A 0.79 0.78 42.9 0 1 894.24 669.26
  L 876.70 684.04
  A 0.58 0.58 0.0 0 0 876.89 685.03
  Q 877.57 685.26 879.02 685.27
  C 893.12 685.40 903.73 685.91 915.00 683.74
  C 919.67 682.83 923.38 681.67 925.68 677.89
  C 928.46 673.31 925.43 668.72 921.00 666.76
  Q 915.04 664.12 910.79 662.85
  C 903.43 660.66 897.95 658.19 890.55 656.23
  A 0.41 0.41 0.0 0 1 890.52 655.45
  Q 903.94 650.62 915.17 645.86
  C 919.29 644.11 922.92 642.03 924.66 637.72
  C 926.18 633.96 923.37 628.89 920.32 627.20
  Q 914.51 623.99 905.59 623.12
  C 893.91 621.97 881.82 622.66 873.44 622.45
  A 0.32 0.32 0.0 0 0 873.23 623.01
  Z"
/>
<path fill="#ffffff" d="
  M 405.34 682.48
  A 0.54 0.54 0.0 0 0 406.23 682.07
  L 406.23 648.33
  A 4.21 4.18 -20.1 0 1 407.73 645.12
  L 417.38 636.98
  A 0.39 0.39 0.0 0 1 418.02 637.22
  Q 418.57 640.50 418.58 644.75
  Q 418.65 665.03 418.53 688.25
  A 0.61 0.61 0.0 0 1 417.92 688.86
  Q 410.07 688.89 399.53 688.78
  Q 397.94 688.76 395.02 686.28
  Q 386.77 679.27 367.68 662.38
  C 364.04 659.16 360.20 656.35 356.42 652.74
  Q 354.82 651.23 351.97 648.88
  Q 347.44 645.14 333.40 633.14
  A 0.51 0.50 -69.9 0 0 332.57 633.53
  Q 332.53 644.55 332.52 649.94
  Q 332.50 658.56 332.41 659.09
  C 331.41 664.93 326.28 668.56 321.73 672.07
  A 0.52 0.52 0.0 0 1 320.89 671.66
  L 320.89 621.53
  A 0.30 0.30 0.0 0 1 321.19 621.23
  L 332.92 621.23
  A 3.66 3.65 65.4 0 1 335.31 622.12
  L 405.34 682.48
  Z"
/>
<path fill="#ffffff" d="
  M 873.23 623.01
  A 0.32 0.32 0.0 0 1 873.44 622.45
  C 881.82 622.66 893.91 621.97 905.59 623.12
  Q 914.51 623.99 920.32 627.20
  C 923.37 628.89 926.18 633.96 924.66 637.72
  C 922.92 642.03 919.29 644.11 915.17 645.86
  Q 903.94 650.62 890.52 655.45
  A 0.41 0.41 0.0 0 0 890.55 656.23
  C 897.95 658.19 903.43 660.66 910.79 662.85
  Q 915.04 664.12 921.00 666.76
  C 925.43 668.72 928.46 673.31 925.68 677.89
  C 923.38 681.67 919.67 682.83 915.00 683.74
  C 903.73 685.91 893.12 685.40 879.02 685.27
  Q 877.57 685.26 876.89 685.03
  A 0.58 0.58 0.0 0 1 876.70 684.04
  L 894.24 669.26
  A 0.79 0.78 42.9 0 0 894.19 668.03
  L 849.52 635.65
  A 0.45 0.45 0.0 0 0 848.80 636.02
  Q 848.91 646.36 848.93 656.24
  C 848.94 662.67 841.37 670.33 836.37 673.44
  A 0.55 0.55 0.0 0 1 835.58 673.20
  Q 835.57 673.18 835.39 672.97
  A 0.12 0.09 35.8 0 1 835.37 672.91
  L 835.41 622.86
  A 0.55 0.55 0.0 0 1 835.96 622.31
  L 850.42 622.31
  A 1.80 1.77 -25.0 0 1 851.55 622.71
  L 884.01 649.77
  A 0.84 0.84 0.0 0 0 885.09 649.77
  L 894.58 641.77
  A 0.63 0.63 0.0 0 0 894.58 640.81
  L 873.23 623.01
  Z"
/>
<path fill="#ffffff" d="
  M 735.85 626.10
  L 758.51 661.43
  A 1.01 1.01 0.0 0 1 757.66 662.99
  L 714.01 662.99
  A 1.01 1.01 0.0 0 1 713.15 661.46
  L 734.13 626.13
  A 1.01 1.01 0.0 0 1 735.85 626.10
  Z"
/>
</svg>
