<?xml version="1.0" encoding="UTF-8" standalone="no"?>
<!DOCTYPE svg PUBLIC "-//W3C//DTD SVG 1.1//EN" "http://www.w3.org/Graphics/SVG/1.1/DTD/svg11.dtd">
<svg xmlns="http://www.w3.org/2000/svg" version="1.1" viewBox="0.00 0.00 1024.00 1024.00">
<g stroke-width="2.00" fill="none" stroke-linecap="butt">
<path stroke="#868686" vector-effect="non-scaling-stroke" d="
  M 653.66 330.64
  Q 656.01 330.50 693.87 330.63
  Q 710.47 330.69 719.92 342.36
  Q 745.83 374.30 773.54 407.35
  A 0.86 0.86 0.0 0 0 774.92 407.26
  L 795.71 374.48
  A 1.01 1.00 -46.9 0 0 795.68 373.35
  Q 792.92 369.52 791.58 367.93
  Q 773.82 346.73 760.35 330.57
  Q 747.00 314.56 740.07 309.13
  Q 719.60 293.08 691.75 293.16
  Q 651.00 293.28 650.18 293.24
  Q 642.16 292.94 637.44 294.45
  C 623.38 298.95 613.69 307.12 612.03 322.75
  Q 611.99 323.16 611.93 333.26
  Q 611.90 339.82 611.90 343.75
  Q 612.15 593.39 612.18 613.84
  A 0.62 0.62 0.0 0 0 612.79 614.46
  Q 622.11 614.75 629.22 614.43
  C 640.15 613.94 649.06 607.49 652.36 597.23
  Q 653.52 593.62 653.51 582.13
  Q 653.45 517.28 653.51 330.80
  A 0.16 0.16 0.0 0 1 653.66 330.64"
/>
<path stroke="#868686" vector-effect="non-scaling-stroke" d="
  M 954.39 295.89
  Q 946.94 295.66 939.78 296.26
  C 929.82 297.09 920.35 303.57 916.56 312.81
  Q 914.06 318.91 913.96 326.00
  Q 913.86 333.42 913.89 568.03
  C 913.89 575.85 906.48 579.99 899.77 580.08
  Q 885.80 580.28 868.50 580.19
  Q 858.94 580.14 850.13 576.37
  Q 842.68 573.19 835.56 564.95
  Q 832.24 561.11 825.24 552.99
  Q 804.58 529.03 792.92 515.92
  A 0.59 0.58 -49.2 0 0 791.99 515.99
  L 771.22 548.76
  A 0.94 0.92 -46.1 0 0 771.23 549.78
  Q 772.78 552.09 774.95 554.55
  Q 788.12 569.49 797.20 579.99
  Q 809.87 594.62 816.05 599.30
  Q 832.56 611.78 853.26 615.49
  Q 861.75 617.02 876.84 616.77
  Q 881.17 616.70 900.49 616.71
  Q 914.19 616.71 925.47 612.20
  C 939.01 606.79 950.27 594.69 953.30 580.07
  Q 954.81 572.83 954.81 566.50
  Q 954.79 423.45 954.91 296.43
  A 0.54 0.54 0.0 0 0 954.39 295.89"
/>
<path stroke="#b7dfa4" vector-effect="non-scaling-stroke" d="
  M 829.63 348.30
  L 812.08 376.02"
/>
<path stroke="#d8eb9d" vector-effect="non-scaling-stroke" d="
  M 812.08 376.02
  L 794.37 404.56"
/>
<path stroke="#f6ea92" vector-effect="non-scaling-stroke" d="
  M 794.37 404.56
  Q 791.92 407.50 790.70 410.87"
/>
<path stroke="#f19193" vector-effect="non-scaling-stroke" d="
  M 790.70 410.87
  Q 782.73 422.38 780.89 425.40
  C 773.21 438.00 764.94 450.83 756.87 463.65
  C 739.01 492.00 731.88 502.95 718.41 524.44
  Q 689.37 570.74 661.52 614.38
  A 0.48 0.48 0.0 0 0 661.93 615.12
  C 663.77 615.12 665.66 615.58 667.37 615.57
  Q 676.22 615.51 683.22 615.70
  Q 693.07 615.98 698.90 614.41
  Q 713.38 610.50 721.66 597.39
  C 728.10 587.20 732.41 580.91 737.79 572.22
  Q 750.55 551.63 764.62 529.64
  Q 766.93 526.04 771.33 518.48"
/>
<path stroke="#b7dfa4" vector-effect="non-scaling-stroke" d="
  M 771.33 518.48
  L 818.06 444.58"
/>
<path stroke="#f6ea92" vector-effect="non-scaling-stroke" d="
  M 818.06 444.58
  L 830.36 425.70"
/>
<path stroke="#d8eb9d" vector-effect="non-scaling-stroke" d="
  M 830.36 425.70
  L 851.24 392.72"
/>
<path stroke="#b7dfa4" vector-effect="non-scaling-stroke" d="
  M 851.24 392.72
  L 869.34 363.79"
/>
<path stroke="#8ed2a4" vector-effect="non-scaling-stroke" d="
  M 869.34 363.79
  C 875.94 354.35 883.32 341.83 887.75 334.77
  Q 899.36 316.28 910.97 297.20
  A 0.55 0.55 0.0 0 0 910.50 296.36
  Q 899.67 296.37 891.98 296.09
  Q 880.28 295.67 874.08 297.32
  Q 864.94 299.76 857.82 306.08
  Q 854.05 309.43 849.11 317.19
  Q 839.30 332.64 829.63 348.30"
/>
<path stroke="#45b249" vector-effect="non-scaling-stroke" d="
  M 869.34 363.79
  Q 861.30 358.59 853.55 352.89
  C 846.02 347.37 837.93 340.99 829.63 348.30"
/>
<path stroke="#8fcb42" vector-effect="non-scaling-stroke" d="
  M 851.24 392.72
  L 812.08 376.02"
/>
<path stroke="#cfd630" vector-effect="non-scaling-stroke" d="
  M 830.36 425.70
  Q 813.29 413.66 794.37 404.56"
/>
<path stroke="#aeca37" vector-effect="non-scaling-stroke" d="
  M 818.06 444.58
  L 807.48 459.59"
/>
<path stroke="#f1bd23" vector-effect="non-scaling-stroke" d="
  M 807.48 459.59
  Q 790.88 448.34 776.36 434.62"
/>
<path stroke="#e87c26" vector-effect="non-scaling-stroke" d="
  M 776.36 434.62
  Q 784.39 423.30 790.70 410.87"
/>
<path stroke="#af9c35" vector-effect="non-scaling-stroke" d="
  M 771.14 517.29
  L 777.55 506.60"
/>
<path stroke="#b1b235" vector-effect="non-scaling-stroke" d="
  M 807.48 459.59
  Q 804.72 464.40 801.69 469.03
  Q 796.69 476.67 795.71 478.35
  Q 792.03 484.69 788.89 488.64
  Q 785.12 493.38 783.47 497.06
  A 3.83 3.50 -15.8 0 1 782.95 497.90
  Q 779.68 501.82 777.55 506.60"
/>
<path stroke="#f28f21" vector-effect="non-scaling-stroke" d="
  M 777.55 506.60
  Q 770.34 504.64 765.54 501.21
  Q 753.80 492.81 743.20 487.17"
/>
<path stroke="#ec6424" vector-effect="non-scaling-stroke" d="
  M 776.36 434.62
  L 764.52 453.85
  A 4.04 3.11 -15.8 0 1 764.15 454.35
  Q 763.12 455.51 762.30 456.84
  Q 752.85 472.12 743.20 487.17"
/>
<path stroke="#ea4e24" vector-effect="non-scaling-stroke" d="
  M 743.20 487.17
  Q 737.89 495.31 732.91 503.57
  C 731.50 505.90 729.42 508.32 728.17 510.42
  C 724.92 515.87 718.73 526.80 713.81 534.21
  Q 709.51 540.69 707.44 544.88
  A 0.82 0.82 0.0 0 0 707.69 545.91
  L 738.12 568.02
  A 0.68 0.68 0.0 0 0 739.09 567.83
  L 771.14 517.29"
/>
<path stroke="#a97138" vector-effect="non-scaling-stroke" d="
  M 771.14 517.29
  Q 771.08 517.92 771.33 518.48"
/>
<path stroke="#868686" vector-effect="non-scaling-stroke" d="
  M 679.4294 425.0350
  A 33.10 30.25 -174.2 0 0 709.3030 458.4751
  A 33.10 30.25 -174.2 0 0 745.2906 431.7250
  A 33.10 30.25 -174.2 0 0 715.4170 398.2849
  A 33.10 30.25 -174.2 0 0 679.4294 425.0350"
/>
<path stroke="#868686" vector-effect="non-scaling-stroke" d="
  M 340.84 442.19
  L 347.81 432.59
  A 0.79 0.78 28.0 0 0 347.44 431.39
  C 326.25 423.71 300.54 421.21 279.15 429.13
  C 271.16 432.09 263.75 441.16 267.50 450.24
  C 270.64 457.85 278.66 460.89 286.15 462.64
  Q 296.49 465.04 308.38 466.08
  Q 316.95 466.83 323.18 468.07
  C 327.69 468.96 332.14 470.86 332.50 475.85
  A 1.98 1.93 -32.6 0 1 332.24 476.96
  Q 330.32 480.14 328.32 481.08
  C 324.51 482.87 319.21 483.80 315.07 483.98
  Q 292.43 484.99 271.62 475.76
  A 0.68 0.67 28.1 0 0 270.77 476.01
  L 264.88 485.30
  A 2.47 2.00 -14.4 0 1 264.68 485.55
  L 263.22 487.08
  A 0.50 0.50 0.0 0 0 263.38 487.88
  Q 273.57 492.34 285.99 494.63
  Q 299.81 497.18 309.37 497.15
  Q 325.12 497.10 339.25 491.55
  Q 350.18 487.27 351.59 476.24
  C 353.84 458.67 328.76 454.29 316.74 453.49
  Q 305.63 452.76 294.48 450.57
  C 291.03 449.89 286.47 448.65 285.25 445.00
  C 284.00 441.27 288.95 438.70 291.97 437.96
  C 307.38 434.15 325.04 436.66 339.71 442.51
  A 0.96 0.96 0.0 0 0 340.84 442.19"
/>
<path stroke="#868686" vector-effect="non-scaling-stroke" d="
  M 89.82 464.43
  A 0.19 0.19 0.0 0 1 90.13 464.28
  L 128.77 495.82
  A 2.06 2.06 0.0 0 0 130.08 496.29
  L 161.10 496.29
  A 0.40 0.40 0.0 0 0 161.50 495.89
  L 161.50 426.02
  A 0.55 0.55 0.0 0 0 160.94 425.47
  C 158.91 425.52 157.80 425.68 156.11 427.24
  Q 144.40 438.04 131.43 447.83
  A 1.78 1.77 71.7 0 0 130.72 449.25
  L 130.72 460.38
  A 0.53 0.52 19.9 0 1 129.86 460.78
  L 87.25 426.01
  A 2.64 2.62 64.5 0 0 85.58 425.41
  L 60.89 425.41
  A 0.33 0.32 90.0 0 0 60.57 425.74
  L 60.57 495.95
  A 0.20 0.20 0.0 0 0 60.89 496.11
  Q 72.89 486.85 83.61 478.01
  Q 90.01 472.74 89.82 464.43"
/>
<path stroke="#868686" vector-effect="non-scaling-stroke" d="
  M 197.08 453.54
  A 0.45 0.45 0.0 0 1 196.63 453.09
  L 196.63 438.38
  A 0.45 0.45 0.0 0 1 197.08 437.93
  L 252.72 437.93
  A 0.45 0.45 0.0 0 0 253.17 437.48
  L 253.17 425.89
  A 0.45 0.45 0.0 0 0 252.72 425.44
  L 179.84 425.44
  A 0.45 0.45 0.0 0 0 179.39 425.89
  L 179.39 495.81
  A 0.45 0.45 0.0 0 0 179.84 496.26
  L 255.62 496.26
  A 0.45 0.45 0.0 0 0 256.07 495.81
  L 256.07 483.39
  A 0.45 0.45 0.0 0 0 255.62 482.94
  L 197.16 482.94
  A 0.45 0.45 0.0 0 1 196.71 482.49
  L 196.71 466.05
  A 0.45 0.45 0.0 0 1 197.16 465.60
  L 246.93 465.60
  A 0.45 0.45 0.0 0 0 247.38 465.15
  L 247.38 453.99
  A 0.45 0.45 0.0 0 0 246.93 453.54
  L 197.08 453.54"
/>
<path stroke="#868686" vector-effect="non-scaling-stroke" d="
  M 423.46 425.62
  A 0.32 0.32 0.0 0 0 423.19 425.47
  L 399.92 425.47
  A 0.32 0.32 0.0 0 0 399.65 425.62
  L 355.17 495.76
  A 0.32 0.32 0.0 0 0 355.44 496.25
  L 375.01 496.25
  A 0.32 0.32 0.0 0 0 375.28 496.09
  L 384.87 479.49
  A 0.32 0.32 0.0 0 1 385.14 479.33
  L 436.89 479.33
  A 0.32 0.32 0.0 0 1 437.16 479.48
  L 447.68 496.12
  A 0.32 0.32 0.0 0 0 447.95 496.27
  L 467.51 496.27
  A 0.32 0.32 0.0 0 0 467.78 495.78
  L 423.46 425.62"
/>
<path stroke="#868686" vector-effect="non-scaling-stroke" d="
  M 497.88 496.22
  Q 528.13 496.52 550.73 496.07
  C 557.00 495.94 568.67 493.66 573.77 488.83
  C 577.91 484.92 580.09 479.42 578.88 473.65
  C 577.41 466.68 569.80 462.70 563.75 460.59
  A 0.70 0.70 0.0 0 1 563.78 459.26
  Q 569.21 457.63 572.95 453.50
  C 578.81 447.02 577.64 436.36 570.24 431.31
  C 563.55 426.75 554.29 425.55 546.25 425.53
  Q 520.59 425.44 479.07 425.43
  A 0.32 0.32 0.0 0 0 478.75 425.75
  L 478.75 496.22
  A 0.24 0.24 0.0 0 0 479.14 496.41
  Q 481.87 494.30 484.01 493.02
  Q 495.42 486.24 505.02 477.47
  C 508.49 474.30 510.57 470.50 511.82 466.29
  A 0.23 0.22 28.7 0 1 512.18 466.19
  L 520.45 472.94
  A 0.55 0.55 0.0 0 1 520.51 473.73
  Q 509.24 486.40 497.77 495.91
  A 0.18 0.17 -65.0 0 0 497.88 496.22"
/>
<path stroke="#868686" vector-effect="non-scaling-stroke" d="
  M 822.5344 491.0205
  A 32.64 30.12 -176.4 0 0 853.2187 523.1306
  A 32.64 30.12 -176.4 0 0 887.6856 495.1195
  A 32.64 30.12 -176.4 0 0 857.0013 463.0094
  A 32.64 30.12 -176.4 0 0 822.5344 491.0205"
/>
<path stroke="#868686" vector-effect="non-scaling-stroke" d="
  M 151.78 487.79
  L 151.78 445.71
  A 0.88 0.88 0.0 0 0 150.31 445.05
  Q 144.66 450.06 142.41 451.74
  Q 141.14 452.69 141.13 454.99
  Q 141.05 477.27 141.07 481.81
  A 0.44 0.43 19.6 0 1 140.36 482.14
  L 81.65 434.22
  A 1.50 1.47 -24.7 0 0 80.70 433.88
  L 71.08 433.88
  A 0.69 0.68 90.0 0 0 70.40 434.57
  L 70.40 473.91
  A 1.11 1.11 0.0 0 0 72.29 474.70
  L 78.05 468.94
  A 7.39 7.38 67.5 0 0 80.20 463.73
  L 80.20 444.85
  A 0.52 0.52 0.0 0 1 81.04 444.45
  L 134.65 488.21
  A 1.49 1.43 64.0 0 0 135.58 488.55
  L 151.02 488.55
  A 0.76 0.76 0.0 0 0 151.78 487.79"
/>
<path stroke="#868686" vector-effect="non-scaling-stroke" d="
  M 392.74 466.80
  A 0.58 0.58 0.0 0 0 393.23 467.69
  L 429.23 467.50
  A 0.58 0.58 0.0 0 0 429.72 466.61
  L 411.57 438.03
  A 0.58 0.58 0.0 0 0 410.59 438.04
  L 392.74 466.80"
/>
<path stroke="#868686" vector-effect="non-scaling-stroke" d="
  M 534.06 461.50
  Q 543.90 458.55 555.46 452.89
  C 559.35 450.98 562.33 447.50 561.19 443.34
  C 559.23 436.15 547.56 435.13 541.74 435.12
  Q 532.11 435.09 521.25 434.88
  Q 520.50 434.86 520.49 434.87
  A 1.07 1.07 0.0 0 0 520.49 436.53
  L 537.43 450.39
  A 0.38 0.38 0.0 0 1 537.45 450.95
  L 530.28 458.12
  A 0.77 0.77 0.0 0 1 529.23 458.16
  L 502.78 435.38
  A 1.98 1.94 -24.0 0 0 501.49 434.90
  L 490.30 434.90
  A 0.56 0.56 0.0 0 0 489.74 435.46
  L 489.74 476.11
  A 0.43 0.43 0.0 0 0 490.41 476.47
  Q 497.35 471.88 500.60 464.12
  A 1.40 1.37 -34.1 0 0 500.71 463.58
  L 500.95 447.42
  A 0.65 0.65 0.0 0 1 502.05 446.96
  C 506.20 450.99 511.69 453.96 517.53 458.20
  Q 524.79 463.47 536.99 471.43
  A 0.18 0.17 39.2 0 1 537.02 471.70
  L 523.23 485.49
  A 0.35 0.34 -67.3 0 0 523.47 486.08
  Q 538.26 486.15 547.25 485.77
  C 553.51 485.50 562.62 484.64 562.50 476.72
  Q 562.45 473.41 559.06 471.29
  C 556.97 470.00 553.79 468.48 551.99 467.97
  Q 542.23 465.24 534.04 462.34
  A 0.44 0.44 0.0 0 1 534.06 461.50"
/>
</g>
<path fill="#ffffff" d="
  M 1024.00 0.00
  L 1024.00 1024.00
  L 0.00 1024.00
  L 0.00 0.00
  L 1024.00 0.00
  Z
  M 653.66 330.64
  Q 656.01 330.50 693.87 330.63
  Q 710.47 330.69 719.92 342.36
  Q 745.83 374.30 773.54 407.35
  A 0.86 0.86 0.0 0 0 774.92 407.26
  L 795.71 374.48
  A 1.01 1.00 -46.9 0 0 795.68 373.35
  Q 792.92 369.52 791.58 367.93
  Q 773.82 346.73 760.35 330.57
  Q 747.00 314.56 740.07 309.13
  Q 719.60 293.08 691.75 293.16
  Q 651.00 293.28 650.18 293.24
  Q 642.16 292.94 637.44 294.45
  C 623.38 298.95 613.69 307.12 612.03 322.75
  Q 611.99 323.16 611.93 333.26
  Q 611.90 339.82 611.90 343.75
  Q 612.15 593.39 612.18 613.84
  A 0.62 0.62 0.0 0 0 612.79 614.46
  Q 622.11 614.75 629.22 614.43
  C 640.15 613.94 649.06 607.49 652.36 597.23
  Q 653.52 593.62 653.51 582.13
  Q 653.45 517.28 653.51 330.80
  A 0.16 0.16 0.0 0 1 653.66 330.64
  Z
  M 954.39 295.89
  Q 946.94 295.66 939.78 296.26
  C 929.82 297.09 920.35 303.57 916.56 312.81
  Q 914.06 318.91 913.96 326.00
  Q 913.86 333.42 913.89 568.03
  C 913.89 575.85 906.48 579.99 899.77 580.08
  Q 885.80 580.28 868.50 580.19
  Q 858.94 580.14 850.13 576.37
  Q 842.68 573.19 835.56 564.95
  Q 832.24 561.11 825.24 552.99
  Q 804.58 529.03 792.92 515.92
  A 0.59 0.58 -49.2 0 0 791.99 515.99
  L 771.22 548.76
  A 0.94 0.92 -46.1 0 0 771.23 549.78
  Q 772.78 552.09 774.95 554.55
  Q 788.12 569.49 797.20 579.99
  Q 809.87 594.62 816.05 599.30
  Q 832.56 611.78 853.26 615.49
  Q 861.75 617.02 876.84 616.77
  Q 881.17 616.70 900.49 616.71
  Q 914.19 616.71 925.47 612.20
  C 939.01 606.79 950.27 594.69 953.30 580.07
  Q 954.81 572.83 954.81 566.50
  Q 954.79 423.45 954.91 296.43
  A 0.54 0.54 0.0 0 0 954.39 295.89
  Z
  M 829.63 348.30
  L 812.08 376.02
  L 794.37 404.56
  Q 791.92 407.50 790.70 410.87
  Q 782.73 422.38 780.89 425.40
  C 773.21 438.00 764.94 450.83 756.87 463.65
  C 739.01 492.00 731.88 502.95 718.41 524.44
  Q 689.37 570.74 661.52 614.38
  A 0.48 0.48 0.0 0 0 661.93 615.12
  C 663.77 615.12 665.66 615.58 667.37 615.57
  Q 676.22 615.51 683.22 615.70
  Q 693.07 615.98 698.90 614.41
  Q 713.38 610.50 721.66 597.39
  C 728.10 587.20 732.41 580.91 737.79 572.22
  Q 750.55 551.63 764.62 529.64
  Q 766.93 526.04 771.33 518.48
  L 818.06 444.58
  L 830.36 425.70
  L 851.24 392.72
  L 869.34 363.79
  C 875.94 354.35 883.32 341.83 887.75 334.77
  Q 899.36 316.28 910.97 297.20
  A 0.55 0.55 0.0 0 0 910.50 296.36
  Q 899.67 296.37 891.98 296.09
  Q 880.28 295.67 874.08 297.32
  Q 864.94 299.76 857.82 306.08
  Q 854.05 309.43 849.11 317.19
  Q 839.30 332.64 829.63 348.30
  Z
  M 679.4294 425.0350
  A 33.10 30.25 -174.2 0 0 709.3030 458.4751
  A 33.10 30.25 -174.2 0 0 745.2906 431.7250
  A 33.10 30.25 -174.2 0 0 715.4170 398.2849
  A 33.10 30.25 -174.2 0 0 679.4294 425.0350
  Z
  M 340.84 442.19
  L 347.81 432.59
  A 0.79 0.78 28.0 0 0 347.44 431.39
  C 326.25 423.71 300.54 421.21 279.15 429.13
  C 271.16 432.09 263.75 441.16 267.50 450.24
  C 270.64 457.85 278.66 460.89 286.15 462.64
  Q 296.49 465.04 308.38 466.08
  Q 316.95 466.83 323.18 468.07
  C 327.69 468.96 332.14 470.86 332.50 475.85
  A 1.98 1.93 -32.6 0 1 332.24 476.96
  Q 330.32 480.14 328.32 481.08
  C 324.51 482.87 319.21 483.80 315.07 483.98
  Q 292.43 484.99 271.62 475.76
  A 0.68 0.67 28.1 0 0 270.77 476.01
  L 264.88 485.30
  A 2.47 2.00 -14.4 0 1 264.68 485.55
  L 263.22 487.08
  A 0.50 0.50 0.0 0 0 263.38 487.88
  Q 273.57 492.34 285.99 494.63
  Q 299.81 497.18 309.37 497.15
  Q 325.12 497.10 339.25 491.55
  Q 350.18 487.27 351.59 476.24
  C 353.84 458.67 328.76 454.29 316.74 453.49
  Q 305.63 452.76 294.48 450.57
  C 291.03 449.89 286.47 448.65 285.25 445.00
  C 284.00 441.27 288.95 438.70 291.97 437.96
  C 307.38 434.15 325.04 436.66 339.71 442.51
  A 0.96 0.96 0.0 0 0 340.84 442.19
  Z
  M 89.82 464.43
  A 0.19 0.19 0.0 0 1 90.13 464.28
  L 128.77 495.82
  A 2.06 2.06 0.0 0 0 130.08 496.29
  L 161.10 496.29
  A 0.40 0.40 0.0 0 0 161.50 495.89
  L 161.50 426.02
  A 0.55 0.55 0.0 0 0 160.94 425.47
  C 158.91 425.52 157.80 425.68 156.11 427.24
  Q 144.40 438.04 131.43 447.83
  A 1.78 1.77 71.7 0 0 130.72 449.25
  L 130.72 460.38
  A 0.53 0.52 19.9 0 1 129.86 460.78
  L 87.25 426.01
  A 2.64 2.62 64.5 0 0 85.58 425.41
  L 60.89 425.41
  A 0.33 0.32 90.0 0 0 60.57 425.74
  L 60.57 495.95
  A 0.20 0.20 0.0 0 0 60.89 496.11
  Q 72.89 486.85 83.61 478.01
  Q 90.01 472.74 89.82 464.43
  Z
  M 197.08 453.54
  A 0.45 0.45 0.0 0 1 196.63 453.09
  L 196.63 438.38
  A 0.45 0.45 0.0 0 1 197.08 437.93
  L 252.72 437.93
  A 0.45 0.45 0.0 0 0 253.17 437.48
  L 253.17 425.89
  A 0.45 0.45 0.0 0 0 252.72 425.44
  L 179.84 425.44
  A 0.45 0.45 0.0 0 0 179.39 425.89
  L 179.39 495.81
  A 0.45 0.45 0.0 0 0 179.84 496.26
  L 255.62 496.26
  A 0.45 0.45 0.0 0 0 256.07 495.81
  L 256.07 483.39
  A 0.45 0.45 0.0 0 0 255.62 482.94
  L 197.16 482.94
  A 0.45 0.45 0.0 0 1 196.71 482.49
  L 196.71 466.05
  A 0.45 0.45 0.0 0 1 197.16 465.60
  L 246.93 465.60
  A 0.45 0.45 0.0 0 0 247.38 465.15
  L 247.38 453.99
  A 0.45 0.45 0.0 0 0 246.93 453.54
  L 197.08 453.54
  Z
  M 423.46 425.62
  A 0.32 0.32 0.0 0 0 423.19 425.47
  L 399.92 425.47
  A 0.32 0.32 0.0 0 0 399.65 425.62
  L 355.17 495.76
  A 0.32 0.32 0.0 0 0 355.44 496.25
  L 375.01 496.25
  A 0.32 0.32 0.0 0 0 375.28 496.09
  L 384.87 479.49
  A 0.32 0.32 0.0 0 1 385.14 479.33
  L 436.89 479.33
  A 0.32 0.32 0.0 0 1 437.16 479.48
  L 447.68 496.12
  A 0.32 0.32 0.0 0 0 447.95 496.27
  L 467.51 496.27
  A 0.32 0.32 0.0 0 0 467.78 495.78
  L 423.46 425.62
  Z
  M 497.88 496.22
  Q 528.13 496.52 550.73 496.07
  C 557.00 495.94 568.67 493.66 573.77 488.83
  C 577.91 484.92 580.09 479.42 578.88 473.65
  C 577.41 466.68 569.80 462.70 563.75 460.59
  A 0.70 0.70 0.0 0 1 563.78 459.26
  Q 569.21 457.63 572.95 453.50
  C 578.81 447.02 577.64 436.36 570.24 431.31
  C 563.55 426.75 554.29 425.55 546.25 425.53
  Q 520.59 425.44 479.07 425.43
  A 0.32 0.32 0.0 0 0 478.75 425.75
  L 478.75 496.22
  A 0.24 0.24 0.0 0 0 479.14 496.41
  Q 481.87 494.30 484.01 493.02
  Q 495.42 486.24 505.02 477.47
  C 508.49 474.30 510.57 470.50 511.82 466.29
  A 0.23 0.22 28.7 0 1 512.18 466.19
  L 520.45 472.94
  A 0.55 0.55 0.0 0 1 520.51 473.73
  Q 509.24 486.40 497.77 495.91
  A 0.18 0.17 -65.0 0 0 497.88 496.22
  Z
  M 822.5344 491.0205
  A 32.64 30.12 -176.4 0 0 853.2187 523.1306
  A 32.64 30.12 -176.4 0 0 887.6856 495.1195
  A 32.64 30.12 -176.4 0 0 857.0013 463.0094
  A 32.64 30.12 -176.4 0 0 822.5344 491.0205
  Z"
/>
<path fill="#0c0c0c" d="
  M 653.66 330.64
  A 0.16 0.16 0.0 0 0 653.51 330.80
  Q 653.45 517.28 653.51 582.13
  Q 653.52 593.62 652.36 597.23
  C 649.06 607.49 640.15 613.94 629.22 614.43
  Q 622.11 614.75 612.79 614.46
  A 0.62 0.62 0.0 0 1 612.18 613.84
  Q 612.15 593.39 611.90 343.75
  Q 611.90 339.82 611.93 333.26
  Q 611.99 323.16 612.03 322.75
  C 613.69 307.12 623.38 298.95 637.44 294.45
  Q 642.16 292.94 650.18 293.24
  Q 651.00 293.28 691.75 293.16
  Q 719.60 293.08 740.07 309.13
  Q 747.00 314.56 760.35 330.57
  Q 773.82 346.73 791.58 367.93
  Q 792.92 369.52 795.68 373.35
  A 1.01 1.00 -46.9 0 1 795.71 374.48
  L 774.92 407.26
  A 0.86 0.86 0.0 0 1 773.54 407.35
  Q 745.83 374.30 719.92 342.36
  Q 710.47 330.69 693.87 330.63
  Q 656.01 330.50 653.66 330.64
  Z"
/>
<path fill="#0c0c0c" d="
  M 954.91 296.43
  Q 954.79 423.45 954.81 566.50
  Q 954.81 572.83 953.30 580.07
  C 950.27 594.69 939.01 606.79 925.47 612.20
  Q 914.19 616.71 900.49 616.71
  Q 881.17 616.70 876.84 616.77
  Q 861.75 617.02 853.26 615.49
  Q 832.56 611.78 816.05 599.30
  Q 809.87 594.62 797.20 579.99
  Q 788.12 569.49 774.95 554.55
  Q 772.78 552.09 771.23 549.78
  A 0.94 0.92 -46.1 0 1 771.22 548.76
  L 791.99 515.99
  A 0.59 0.58 -49.2 0 1 792.92 515.92
  Q 804.58 529.03 825.24 552.99
  Q 832.24 561.11 835.56 564.95
  Q 842.68 573.19 850.13 576.37
  Q 858.94 580.14 868.50 580.19
  Q 885.80 580.28 899.77 580.08
  C 906.48 579.99 913.89 575.85 913.89 568.03
  Q 913.86 333.42 913.96 326.00
  Q 914.06 318.91 916.56 312.81
  C 920.35 303.57 929.82 297.09 939.78 296.26
  Q 946.94 295.66 954.39 295.89
  A 0.54 0.54 0.0 0 1 954.91 296.43
  Z"
/>
<path fill="#1ca549" d="
  M 869.34 363.79
  Q 861.30 358.59 853.55 352.89
  C 846.02 347.37 837.93 340.99 829.63 348.30
  Q 839.30 332.64 849.11 317.19
  Q 854.05 309.43 857.82 306.08
  Q 864.94 299.76 874.08 297.32
  Q 880.28 295.67 891.98 296.09
  Q 899.67 296.37 910.50 296.36
  A 0.55 0.55 0.0 0 1 910.97 297.20
  Q 899.36 316.28 887.75 334.77
  C 883.32 341.83 875.94 354.35 869.34 363.79
  Z"
/>
<path fill="#6ebf49" d="
  M 869.34 363.79
  L 851.24 392.72
  L 812.08 376.02
  L 829.63 348.30
  C 837.93 340.99 846.02 347.37 853.55 352.89
  Q 861.30 358.59 869.34 363.79
  Z"
/>
<path fill="#b0d63b" d="
  M 812.08 376.02
  L 851.24 392.72
  L 830.36 425.70
  Q 813.29 413.66 794.37 404.56
  L 812.08 376.02
  Z"
/>
<ellipse fill="#0c0c0c" cx="0.00" cy="0.00" transform="translate(712.36,428.38) rotate(-174.2)" rx="33.10" ry="30.25"/>
<path fill="#edd525" d="
  M 830.36 425.70
  L 818.06 444.58
  L 807.48 459.59
  Q 790.88 448.34 776.36 434.62
  Q 784.39 423.30 790.70 410.87
  Q 791.92 407.50 794.37 404.56
  Q 813.29 413.66 830.36 425.70
  Z"
/>
<path fill="#e32327" d="
  M 790.70 410.87
  Q 784.39 423.30 776.36 434.62
  L 764.52 453.85
  A 4.04 3.11 -15.8 0 1 764.15 454.35
  Q 763.12 455.51 762.30 456.84
  Q 752.85 472.12 743.20 487.17
  Q 737.89 495.31 732.91 503.57
  C 731.50 505.90 729.42 508.32 728.17 510.42
  C 724.92 515.87 718.73 526.80 713.81 534.21
  Q 709.51 540.69 707.44 544.88
  A 0.82 0.82 0.0 0 0 707.69 545.91
  L 738.12 568.02
  A 0.68 0.68 0.0 0 0 739.09 567.83
  L 771.14 517.29
  Q 771.08 517.92 771.33 518.48
  Q 766.93 526.04 764.62 529.64
  Q 750.55 551.63 737.79 572.22
  C 732.41 580.91 728.10 587.20 721.66 597.39
  Q 713.38 610.50 698.90 614.41
  Q 693.07 615.98 683.22 615.70
  Q 676.22 615.51 667.37 615.57
  C 665.66 615.58 663.77 615.12 661.93 615.12
  A 0.48 0.48 0.0 0 1 661.52 614.38
  Q 689.37 570.74 718.41 524.44
  C 731.88 502.95 739.01 492.00 756.87 463.65
  C 764.94 450.83 773.21 438.00 780.89 425.40
  Q 782.73 422.38 790.70 410.87
  Z"
/>
<path fill="#0c0c0c" d="
  M 340.84 442.19
  A 0.96 0.96 0.0 0 1 339.71 442.51
  C 325.04 436.66 307.38 434.15 291.97 437.96
  C 288.95 438.70 284.00 441.27 285.25 445.00
  C 286.47 448.65 291.03 449.89 294.48 450.57
  Q 305.63 452.76 316.74 453.49
  C 328.76 454.29 353.84 458.67 351.59 476.24
  Q 350.18 487.27 339.25 491.55
  Q 325.12 497.10 309.37 497.15
  Q 299.81 497.18 285.99 494.63
  Q 273.57 492.34 263.38 487.88
  A 0.50 0.50 0.0 0 1 263.22 487.08
  L 264.68 485.55
  A 2.47 2.00 -14.4 0 0 264.88 485.30
  L 270.77 476.01
  A 0.68 0.67 28.1 0 1 271.62 475.76
  Q 292.43 484.99 315.07 483.98
  C 319.21 483.80 324.51 482.87 328.32 481.08
  Q 330.32 480.14 332.24 476.96
  A 1.98 1.93 -32.6 0 0 332.50 475.85
  C 332.14 470.86 327.69 468.96 323.18 468.07
  Q 316.95 466.83 308.38 466.08
  Q 296.49 465.04 286.15 462.64
  C 278.66 460.89 270.64 457.85 267.50 450.24
  C 263.75 441.16 271.16 432.09 279.15 429.13
  C 300.54 421.21 326.25 423.71 347.44 431.39
  A 0.79 0.78 28.0 0 1 347.81 432.59
  L 340.84 442.19
  Z"
/>
<path fill="#0c0c0c" d="
  M 89.82 464.43
  Q 90.01 472.74 83.61 478.01
  Q 72.89 486.85 60.89 496.11
  A 0.20 0.20 0.0 0 1 60.57 495.95
  L 60.57 425.74
  A 0.33 0.32 -90.0 0 1 60.89 425.41
  L 85.58 425.41
  A 2.64 2.62 64.5 0 1 87.25 426.01
  L 129.86 460.78
  A 0.53 0.52 19.9 0 0 130.72 460.38
  L 130.72 449.25
  A 1.78 1.77 71.7 0 1 131.43 447.83
  Q 144.40 438.04 156.11 427.24
  C 157.80 425.68 158.91 425.52 160.94 425.47
  A 0.55 0.55 0.0 0 1 161.50 426.02
  L 161.50 495.89
  A 0.40 0.40 0.0 0 1 161.10 496.29
  L 130.08 496.29
  A 2.06 2.06 0.0 0 1 128.77 495.82
  L 90.13 464.28
  A 0.19 0.19 0.0 0 0 89.82 464.43
  Z
  M 151.78 487.79
  L 151.78 445.71
  A 0.88 0.88 0.0 0 0 150.31 445.05
  Q 144.66 450.06 142.41 451.74
  Q 141.14 452.69 141.13 454.99
  Q 141.05 477.27 141.07 481.81
  A 0.44 0.43 19.6 0 1 140.36 482.14
  L 81.65 434.22
  A 1.50 1.47 -24.7 0 0 80.70 433.88
  L 71.08 433.88
  A 0.69 0.68 90.0 0 0 70.40 434.57
  L 70.40 473.91
  A 1.11 1.11 0.0 0 0 72.29 474.70
  L 78.05 468.94
  A 7.39 7.38 67.5 0 0 80.20 463.73
  L 80.20 444.85
  A 0.52 0.52 0.0 0 1 81.04 444.45
  L 134.65 488.21
  A 1.49 1.43 64.0 0 0 135.58 488.55
  L 151.02 488.55
  A 0.76 0.76 0.0 0 0 151.78 487.79
  Z"
/>
<path fill="#0c0c0c" d="
  M 197.08 453.54
  L 246.93 453.54
  A 0.45 0.45 0.0 0 1 247.38 453.99
  L 247.38 465.15
  A 0.45 0.45 0.0 0 1 246.93 465.60
  L 197.16 465.60
  A 0.45 0.45 0.0 0 0 196.71 466.05
  L 196.71 482.49
  A 0.45 0.45 0.0 0 0 197.16 482.94
  L 255.62 482.94
  A 0.45 0.45 0.0 0 1 256.07 483.39
  L 256.07 495.81
  A 0.45 0.45 0.0 0 1 255.62 496.26
  L 179.84 496.26
  A 0.45 0.45 0.0 0 1 179.39 495.81
  L 179.39 425.89
  A 0.45 0.45 0.0 0 1 179.84 425.44
  L 252.72 425.44
  A 0.45 0.45 0.0 0 1 253.17 425.89
  L 253.17 437.48
  A 0.45 0.45 0.0 0 1 252.72 437.93
  L 197.08 437.93
  A 0.45 0.45 0.0 0 0 196.63 438.38
  L 196.63 453.09
  A 0.45 0.45 0.0 0 0 197.08 453.54
  Z"
/>
<path fill="#0c0c0c" d="
  M 423.46 425.62
  L 467.78 495.78
  A 0.32 0.32 0.0 0 1 467.51 496.27
  L 447.95 496.27
  A 0.32 0.32 0.0 0 1 447.68 496.12
  L 437.16 479.48
  A 0.32 0.32 0.0 0 0 436.89 479.33
  L 385.14 479.33
  A 0.32 0.32 0.0 0 0 384.87 479.49
  L 375.28 496.09
  A 0.32 0.32 0.0 0 1 375.01 496.25
  L 355.44 496.25
  A 0.32 0.32 0.0 0 1 355.17 495.76
  L 399.65 425.62
  A 0.32 0.32 0.0 0 1 399.92 425.47
  L 423.19 425.47
  A 0.32 0.32 0.0 0 1 423.46 425.62
  Z
  M 392.74 466.80
  A 0.58 0.58 0.0 0 0 393.23 467.69
  L 429.23 467.50
  A 0.58 0.58 0.0 0 0 429.72 466.61
  L 411.57 438.03
  A 0.58 0.58 0.0 0 0 410.59 438.04
  L 392.74 466.80
  Z"
/>
<path fill="#0c0c0c" d="
  M 497.88 496.22
  A 0.18 0.17 -65.0 0 1 497.77 495.91
  Q 509.24 486.40 520.51 473.73
  A 0.55 0.55 0.0 0 0 520.45 472.94
  L 512.18 466.19
  A 0.23 0.22 28.7 0 0 511.82 466.29
  C 510.57 470.50 508.49 474.30 505.02 477.47
  Q 495.42 486.24 484.01 493.02
  Q 481.87 494.30 479.14 496.41
  A 0.24 0.24 0.0 0 1 478.75 496.22
  L 478.75 425.75
  A 0.32 0.32 0.0 0 1 479.07 425.43
  Q 520.59 425.44 546.25 425.53
  C 554.29 425.55 563.55 426.75 570.24 431.31
  C 577.64 436.36 578.81 447.02 572.95 453.50
  Q 569.21 457.63 563.78 459.26
  A 0.70 0.70 0.0 0 0 563.75 460.59
  C 569.80 462.70 577.41 466.68 578.88 473.65
  C 580.09 479.42 577.91 484.92 573.77 488.83
  C 568.67 493.66 557.00 495.94 550.73 496.07
  Q 528.13 496.52 497.88 496.22
  Z
  M 534.06 461.50
  Q 543.90 458.55 555.46 452.89
  C 559.35 450.98 562.33 447.50 561.19 443.34
  C 559.23 436.15 547.56 435.13 541.74 435.12
  Q 532.11 435.09 521.25 434.88
  Q 520.50 434.86 520.49 434.87
  A 1.07 1.07 0.0 0 0 520.49 436.53
  L 537.43 450.39
  A 0.38 0.38 0.0 0 1 537.45 450.95
  L 530.28 458.12
  A 0.77 0.77 0.0 0 1 529.23 458.16
  L 502.78 435.38
  A 1.98 1.94 -24.0 0 0 501.49 434.90
  L 490.30 434.90
  A 0.56 0.56 0.0 0 0 489.74 435.46
  L 489.74 476.11
  A 0.43 0.43 0.0 0 0 490.41 476.47
  Q 497.35 471.88 500.60 464.12
  A 1.40 1.37 -34.1 0 0 500.71 463.58
  L 500.95 447.42
  A 0.65 0.65 0.0 0 1 502.05 446.96
  C 506.20 450.99 511.69 453.96 517.53 458.20
  Q 524.79 463.47 536.99 471.43
  A 0.18 0.17 39.2 0 1 537.02 471.70
  L 523.23 485.49
  A 0.35 0.34 -67.3 0 0 523.47 486.08
  Q 538.26 486.15 547.25 485.77
  C 553.51 485.50 562.62 484.64 562.50 476.72
  Q 562.45 473.41 559.06 471.29
  C 556.97 470.00 553.79 468.48 551.99 467.97
  Q 542.23 465.24 534.04 462.34
  A 0.44 0.44 0.0 0 1 534.06 461.50
  Z"
/>
<path fill="#ffffff" d="
  M 151.02 488.55
  L 135.58 488.55
  A 1.49 1.43 64.0 0 1 134.65 488.21
  L 81.04 444.45
  A 0.52 0.52 0.0 0 0 80.20 444.85
  L 80.20 463.73
  A 7.39 7.38 67.5 0 1 78.05 468.94
  L 72.29 474.70
  A 1.11 1.11 0.0 0 1 70.40 473.91
  L 70.40 434.57
  A 0.69 0.68 -90.0 0 1 71.08 433.88
  L 80.70 433.88
  A 1.50 1.47 -24.7 0 1 81.65 434.22
  L 140.36 482.14
  A 0.44 0.43 19.6 0 0 141.07 481.81
  Q 141.05 477.27 141.13 454.99
  Q 141.14 452.69 142.41 451.74
  Q 144.66 450.06 150.31 445.05
  A 0.88 0.88 0.0 0 1 151.78 445.71
  L 151.78 487.79
  A 0.76 0.76 0.0 0 1 151.02 488.55
  Z"
/>
<path fill="#ffffff" d="
  M 534.06 461.50
  A 0.44 0.44 0.0 0 0 534.04 462.34
  Q 542.23 465.24 551.99 467.97
  C 553.79 468.48 556.97 470.00 559.06 471.29
  Q 562.45 473.41 562.50 476.72
  C 562.62 484.64 553.51 485.50 547.25 485.77
  Q 538.26 486.15 523.47 486.08
  A 0.35 0.34 -67.3 0 1 523.23 485.49
  L 537.02 471.70
  A 0.18 0.17 39.2 0 0 536.99 471.43
  Q 524.79 463.47 517.53 458.20
  C 511.69 453.96 506.20 450.99 502.05 446.96
  A 0.65 0.65 0.0 0 0 500.95 447.42
  L 500.71 463.58
  A 1.40 1.37 -34.1 0 1 500.60 464.12
  Q 497.35 471.88 490.41 476.47
  A 0.43 0.43 0.0 0 1 489.74 476.11
  L 489.74 435.46
  A 0.56 0.56 0.0 0 1 490.30 434.90
  L 501.49 434.90
  A 1.98 1.94 -24.0 0 1 502.78 435.38
  L 529.23 458.16
  A 0.77 0.77 0.0 0 0 530.28 458.12
  L 537.45 450.95
  A 0.38 0.38 0.0 0 0 537.43 450.39
  L 520.49 436.53
  A 1.07 1.07 0.0 0 1 520.49 434.87
  Q 520.50 434.86 521.25 434.88
  Q 532.11 435.09 541.74 435.12
  C 547.56 435.13 559.23 436.15 561.19 443.34
  C 562.33 447.50 559.35 450.98 555.46 452.89
  Q 543.90 458.55 534.06 461.50
  Z"
/>
<path fill="#f4a521" d="
  M 776.36 434.62
  Q 790.88 448.34 807.48 459.59
  Q 804.72 464.40 801.69 469.03
  Q 796.69 476.67 795.71 478.35
  Q 792.03 484.69 788.89 488.64
  Q 785.12 493.38 783.47 497.06
  A 3.83 3.50 -15.8 0 1 782.95 497.90
  Q 779.68 501.82 777.55 506.60
  Q 770.34 504.64 765.54 501.21
  Q 753.80 492.81 743.20 487.17
  Q 752.85 472.12 762.30 456.84
  Q 763.12 455.51 764.15 454.35
  A 4.04 3.11 -15.8 0 0 764.52 453.85
  L 776.36 434.62
  Z"
/>
<path fill="#ffffff" d="
  M 392.74 466.80
  L 410.59 438.04
  A 0.58 0.58 0.0 0 1 411.57 438.03
  L 429.72 466.61
  A 0.58 0.58 0.0 0 1 429.23 467.50
  L 393.23 467.69
  A 0.58 0.58 0.0 0 1 392.74 466.80
  Z"
/>
<path fill="#6ebf49" d="
  M 818.06 444.58
  L 771.33 518.48
  Q 771.08 517.92 771.14 517.29
  L 777.55 506.60
  Q 779.68 501.82 782.95 497.90
  A 3.83 3.50 -15.8 0 0 783.47 497.06
  Q 785.12 493.38 788.89 488.64
  Q 792.03 484.69 795.71 478.35
  Q 796.69 476.67 801.69 469.03
  Q 804.72 464.40 807.48 459.59
  L 818.06 444.58
  Z"
/>
<ellipse fill="#0c0c0c" cx="0.00" cy="0.00" transform="translate(855.11,493.07) rotate(-176.4)" rx="32.64" ry="30.12"/>
<path fill="#f07821" d="
  M 743.20 487.17
  Q 753.80 492.81 765.54 501.21
  Q 770.34 504.64 777.55 506.60
  L 771.14 517.29
  L 739.09 567.83
  A 0.68 0.68 0.0 0 1 738.12 568.02
  L 707.69 545.91
  A 0.82 0.82 0.0 0 1 707.44 544.88
  Q 709.51 540.69 713.81 534.21
  C 718.73 526.80 724.92 515.87 728.17 510.42
  C 729.42 508.32 731.50 505.90 732.91 503.57
  Q 737.89 495.31 743.20 487.17
  Z"
/>
</svg>
